<?xml version="1.0" encoding="UTF-8"?>
<svg width="325px" height="160px" viewBox="0 0 325 160" version="1.1" xmlns="http://www.w3.org/2000/svg" xmlns:xlink="http://www.w3.org/1999/xlink">
    <!-- Generator: Sketch 46.2 (44496) - http://www.bohemiancoding.com/sketch -->
    <title>skiguttas-favoritter</title>
    <desc>Created with Sketch.</desc>
    <defs>
        <filter x="-0.5%" y="-0.9%" width="100.9%" height="101.9%" filterUnits="objectBoundingBox" id="filter-1">
            <feOffset dx="0" dy="0" in="SourceAlpha" result="shadowOffsetOuter1"></feOffset>
            <feGaussianBlur stdDeviation="0.5" in="shadowOffsetOuter1" result="shadowBlurOuter1"></feGaussianBlur>
            <feColorMatrix values="0 0 0 0 0   0 0 0 0 0   0 0 0 0 0  0 0 0 0.5 0" type="matrix" in="shadowBlurOuter1" result="shadowMatrixOuter1"></feColorMatrix>
            <feMerge>
                <feMergeNode in="shadowMatrixOuter1"></feMergeNode>
                <feMergeNode in="SourceGraphic"></feMergeNode>
            </feMerge>
        </filter>
    </defs>
    <g id="Page-1" stroke="none" stroke-width="1" fill="none" fill-rule="evenodd">
        <g id="iPhone-7-Copy" transform="translate(-23.000000, -54.000000)">
            <g id="skiguttas-favoritter" filter="url(#filter-1)" transform="translate(24.000000, 52.000000)">
                <path d="M312.43,94 C294.706826,87.4804673 276.595167,82.0700142 258.2,77.8 C261.53,76.04 265.2,73.89 267.13,71.86 C270.33,68.54 271.83,63.77 272.29,58.31 C272.29,58.2033333 272.29,58.0933333 272.29,57.98 L272.35,56.98 C274.282578,56.0879353 276.006405,54.8001751 277.41,53.2 C280.449128,49.6689212 281.790173,44.9843966 281.08,40.38 C280.67,37.38 278.67,29.9 268.84,26.12 L268.59,26.03 C265.631484,24.9158897 262.501121,24.327043 259.34,24.29 C255.639971,24.263066 251.984138,25.0948706 248.66,26.72 C248.23,26.5 247.8,26.29 247.35,26.09 C243.876886,24.7054364 240.157454,24.0452628 236.42,24.15 L236.13,24.15 C235.5,24.15 234.88,24.15 234.26,24.21 C233.302732,22.2517082 231.939112,20.5199109 230.26,19.13 C226.799527,16.3214569 222.455857,14.8298703 218,14.92 L217.33,14.92 C214.549074,14.9929682 211.818096,15.6757128 209.33,16.92 C206.568339,15.5646508 203.526053,14.8794513 200.45,14.92 L199.78,14.92 C195.45,15.04 189.12,16.71 183.52,24.01 C183.313333,24.2766667 183.12,24.55 182.94,24.83 L182.84,24.99 C182.38,25.1 181.94,25.24 181.5,25.4 C180.272906,25.1439499 179.023484,25.0099636 177.77,25 C176.377889,25.0017157 174.989969,25.1525766 173.63,25.45 C172.381931,25.7146063 171.169991,26.127539 170.02,26.68 C167.498851,25.3805288 164.706298,24.6952399 161.87,24.68 C159.231938,24.6996409 156.634193,25.3293972 154.28,26.52 C150.699031,25.0670337 146.864225,24.3429081 143,24.39 L142.87,24.39 C141.244667,24.3993021 139.622736,24.539758 138.02,24.81 C137.73,24.39 137.43,23.97 137.1,23.57 C133.65942,19.3162215 128.470942,16.8581344 123,16.89 C121.573644,16.8932228 120.153058,17.0712159 118.77,17.42 C117.299158,14.7814303 115.09297,12.6273576 112.42,11.22 C109.527394,9.6574539 106.287596,8.84922421 103,8.87 C102.3,8.87 101.59,8.87 100.88,8.97 C96.7647514,9.39673728 92.884829,11.0955141 89.78,13.83 L89.65,13.94 C85.9191041,11.8392624 81.7014461,10.7563968 77.42,10.8 C67.93,10.8 62.16,15.12 58.99,18.74 C54.39,23.99 52.21,31.1 52.37,40.34 C49.6611605,41.1171462 47.2318757,42.6545364 45.37,44.77 C42.5630168,48.0411371 41.2988987,52.3617251 41.9,56.63 C42.1976714,58.8309511 42.9503071,60.9458231 44.11,62.84 C46.62,67.08 57.21,76.28 63.56,77.93 C45.614689,82.2844829 27.9298229,87.6497047 10.59,94 C2.86,96.92 -1.28,104.55 1.3,110.66 L18.93,153.23 C21.51,159.34 28.79,162.17 35.19,159.78 C116.649826,129.30562 206.380174,129.30562 287.84,159.78 C294.24,162.17 301.52,159.34 304.1,153.23 L321.73,110.66 C324.3,104.55 320.16,96.92 312.43,94 Z" id="Shape" fill="#FFFFFF" fill-rule="nonzero"></path>
                <path d="M27.5,136.5 C35.0096761,134.682478 40.289282,133.406091 43.3388176,132.670839 C51.4663299,130.711273 57.3672498,129.299464 61.0415773,128.435413 C67.6446541,126.88264 72.7391234,125.719299 76.3249852,124.945391 C82.621431,123.586478 87.9167484,122.531113 92.2109375,121.779297 C99.224404,120.551396 105.914363,119.552498 112.268912,118.743833 C124.408517,117.198976 135.324023,116.348389 144.932437,115.92178 C150.979585,115.65329 156.509003,115.552734 161.5,115.552734 C178.960709,115.552734 204.028076,116.496995 234.560547,121.779297 C247.30169,123.983592 268.617301,128.890493 298.50738,136.5" id="Line-2" stroke="#FFFFFF" stroke-linecap="square"></path>
                <path d="M49.4213072,122.27346 C49.8377815,123.994631 49.7709358,125.628429 49.2207682,127.174902 C48.6706005,128.721375 47.6624857,130.06382 46.1963934,131.202277 C44.7303012,132.340734 42.8899113,133.177903 40.6751686,133.713807 C38.8274404,134.160904 37.2457555,134.406313 35.9300666,134.450041 C34.6143776,134.493768 33.2013869,134.356748 31.6910521,134.038976 L30.0741601,127.356814 C31.6818652,127.744802 33.3074519,127.957646 34.950969,127.995354 C36.5944862,128.033061 38.0616621,127.895739 39.3525407,127.583384 C40.4662399,127.3139 41.235819,126.923388 41.6613011,126.411835 C42.0867832,125.900283 42.2260267,125.340778 42.0790358,124.733306 C41.9871664,124.353636 41.8023742,124.046693 41.5246537,123.812469 C41.2469331,123.578244 40.8418963,123.371482 40.3095311,123.192176 C39.7771659,123.01287 38.4024937,122.715867 36.1854734,122.30116 C34.176662,121.916451 32.6264388,121.447584 31.5347572,120.894543 C30.4430757,120.341502 29.5579766,119.617918 28.8794333,118.72377 C28.2008901,117.829622 27.6962612,116.699158 27.3655317,115.332345 C26.7469449,112.7759 27.1948162,110.557585 28.709159,108.677334 C30.2235017,106.797083 32.6068913,105.463471 35.8593992,104.676457 C38.7322368,103.981313 41.82275,103.936811 45.1310314,104.542951 L44.2350384,110.888699 C41.3527683,110.32684 38.9688214,110.274053 37.0831262,110.730337 C36.1086394,110.966135 35.441273,111.308471 35.0810068,111.757355 C34.7207407,112.206239 34.6018556,112.683787 34.724348,113.190014 C34.8560274,113.734208 35.255509,114.153309 35.922805,114.447329 C36.590101,114.741349 38.308111,115.15622 41.0768865,115.691956 C43.729105,116.188911 45.6695688,116.941802 46.898336,117.95065 C48.1271032,118.959498 48.9680852,120.40042 49.4213072,122.27346 Z M71.3628798,105.925745 C72.1060533,109.028092 71.7652462,111.643619 70.3404481,113.772402 C68.9156501,115.901186 66.5191555,117.368993 63.1508926,118.175867 L61.0425732,118.680919 L63.2493327,127.892945 L55.7467545,129.690203 L49.094626,101.921167 L58.7055235,99.618857 C62.2130755,98.7786158 65.0303812,98.9137645 67.1575253,100.024307 C69.2846693,101.134849 70.6864401,103.101976 71.3628798,105.925745 Z M59.5774669,112.564893 L60.9450255,112.237292 C62.0720006,111.967323 62.8920362,111.436154 63.4051569,110.643771 C63.9182775,109.851387 64.0413681,108.898053 63.7744323,107.783741 C63.3254948,105.90967 62.0627083,105.22138 59.9860349,105.718851 L58.0486603,106.182953 L59.5774669,112.564893 Z M97.5336044,120.401235 L95.0375747,115.462956 L85.9660424,117.406255 L85.6737696,122.941842 L77.3852538,124.717403 L80.4891669,94.7301129 L90.5537932,92.5740744 L105.783924,118.633856 L97.5336044,120.401235 Z M92.1460077,109.610691 L89.9609589,105.284923 C89.462658,104.326363 88.8397942,103.081575 88.0923488,101.550521 C87.3449035,100.019467 86.8325234,98.9174624 86.5551932,98.2444748 C86.5797048,98.9183558 86.5828169,100.036243 86.5645295,101.598169 C86.5462422,103.160094 86.4269139,106.255021 86.2065412,110.88304 L92.1460077,109.610691 Z M115.190301,107.783931 L116.65625,118.070625 L109.018573,119.159065 L104.989968,90.8899916 L114.25186,89.5700862 C121.934693,88.4752114 126.172846,90.7121228 126.966447,96.2808874 C127.433054,99.5551148 126.195609,102.315881 123.254074,104.563268 L133.246445,115.706369 L124.583966,116.940853 L117.12389,107.508377 L115.190301,107.783931 Z M114.371904,102.041171 L115.80276,101.837261 C118.471127,101.456994 119.637204,100.087386 119.301026,97.7283953 C119.023633,95.7819058 117.576556,94.9951323 114.959752,95.368051 L113.451553,95.5829834 L114.371904,102.041171 Z M152.842981,115.133275 L135.938381,116.415049 L133.779448,87.9420933 L150.684048,86.6603193 L151.152162,92.8340038 L141.940323,93.5324821 L142.279964,98.0118116 L150.810165,97.3650178 L151.278278,103.538702 L142.748077,104.185496 L143.155646,109.560692 L152.367484,108.862213 L152.842981,115.133275 Z M182.339754,115.114869 L174.587117,115.255161 L174.376502,103.616441 L165.413126,103.778642 L165.62374,115.417362 L157.871103,115.557654 L157.354463,87.0076404 L165.1071,86.8673487 L165.298631,97.4515534 L174.262008,97.2893521 L174.070476,86.7051475 L181.823113,86.5648558 L182.339754,115.114869 Z M185.767026,125.190115 C184.362864,125.113378 183.037691,124.904037 181.791467,124.562084 L182.118662,118.574925 C182.530447,118.67567 182.967695,118.787587 183.43042,118.910677 C183.893145,119.033767 184.397532,119.110232 184.943595,119.140074 C186.217742,119.209706 187.148793,118.875903 187.736777,118.138657 C188.324761,117.401411 188.66955,116.1032 188.771155,114.243986 L190.21316,87.8575775 L197.955514,88.2806934 L196.549745,114.004029 C196.338719,117.865473 195.333946,120.741333 193.535396,122.631693 C191.736846,124.522053 189.147416,125.374852 185.767026,125.190115 Z M229.233547,91.1587796 L227.722004,108.279685 C227.393356,112.002203 226.085025,114.791803 223.796972,116.648567 C221.508919,118.505332 218.380461,119.2585 214.411504,118.908095 C210.53334,118.565706 207.641024,117.310396 205.73447,115.142127 C203.827915,112.973857 203.038974,110.028508 203.367622,106.305989 L204.894624,89.0099838 L212.618486,89.6918958 L211.144732,106.384778 C210.967239,108.395198 211.214553,109.887559 211.886681,110.861907 C212.558809,111.836255 213.627688,112.38812 215.093348,112.517517 C216.662772,112.656076 217.840704,112.305842 218.627179,111.466805 C219.413654,110.627767 219.897348,109.183605 220.078276,107.134274 L221.548595,90.4803029 L229.233547,91.1587796 Z M232.537959,121.423094 L237.06908,93.2302024 L244.686175,94.4544109 L241.143718,116.495775 L252.000489,118.24066 L251.011824,124.392187 L232.537959,121.423094 Z M271.912588,129.676222 L255.356981,126.026518 L261.504293,98.1413837 L278.0599,101.791087 L276.727001,107.837317 L267.70534,105.848481 L266.738253,110.235335 L275.092349,112.077006 L273.75945,118.123235 L265.405354,116.281565 L264.244849,121.54579 L273.26651,123.534626 L271.912588,129.676222 Z M288.980794,134.02333 L281.482147,132.20974 L286.711712,110.587059 L279.934454,108.947942 L281.417465,102.816137 L302.451645,107.90337 L300.968634,114.035175 L294.210359,112.400649 L288.980794,134.02333 Z" id="sparehjulet" fill="#0E0E0E"></path>
                <path d="M27.5,77.5 C35.0096761,75.6824778 40.289282,74.4060909 43.3388176,73.6708393 C51.4663299,71.711273 57.3672498,70.2994643 61.0415773,69.4354131 C67.6446541,67.8826401 72.7391234,66.7192992 76.3249852,65.9453905 C82.621431,64.5864776 87.9167484,63.531113 92.2109375,62.7792969 C99.224404,61.5513963 105.914363,60.5524977 112.268912,59.7438332 C124.408517,58.1989765 135.324023,57.3483893 144.932437,56.9217803 C150.979585,56.6532898 156.509003,56.5527344 161.5,56.5527344 C178.960709,56.5527344 204.028076,57.4969951 234.560547,62.7792969 C247.30169,64.9835915 268.617301,69.8904926 298.50738,77.5" id="Line-2" stroke-opacity="0" stroke="#4A90E2" stroke-linecap="square"></path>
                <path d="M76.6494019,50.3572848 C77.0389522,52.0120596 76.4262354,53.8852872 74.8112332,55.9770238 C73.1962309,58.0687604 71.3154295,59.4022104 69.1687726,59.9774138 C66.9117972,60.5785872 65.7209994,60.6144094 65.5963433,60.0848814 C65.5184333,59.7539265 65.740998,59.5618163 66.2640443,59.5085452 C67.9435014,59.3227619 69.5242053,58.3219257 71.0062035,56.5060066 C72.5608743,54.6031205 73.1330379,52.7801901 72.7227116,51.0371607 C72.6344135,50.6620784 72.4909585,50.2999866 72.2923421,49.9508743 C71.814624,49.1085922 71.1675968,48.783545 70.3512413,48.9757232 C69.9982227,49.0588272 69.7289343,49.2502936 69.543368,49.5501279 C68.5714094,51.0596876 67.1739108,53.9268503 65.3508302,58.1517019 C63.8119151,61.7042121 62.6870107,64.937995 61.9760834,67.8531475 C61.7425703,68.8395741 61.6446597,69.5612043 61.6823488,70.0180595 C61.7070312,70.2218265 61.6901835,70.4470099 61.6318052,70.6936166 C61.3826233,70.8221356 61.0565236,70.7475435 60.6534964,70.4698379 C60.2504692,70.1921324 59.9600398,69.9228548 59.7821994,69.6619972 C59.5563254,69.2960153 59.3914508,68.8923938 59.2875707,68.4511205 C59.0070945,67.2596827 59.1444948,65.6671731 59.6997756,63.6735438 C60.0643397,62.3535435 60.7558985,60.4442912 61.7744729,57.9457296 C62.7359566,55.600326 64.0757217,52.9330427 65.7938082,49.9437997 C64.2960978,50.5059529 63.1063308,51.0654682 62.2244716,51.6223623 C61.3426123,52.1792564 60.3806474,52.9645773 59.338548,53.9783484 C58.8648665,54.4391534 58.44371,54.4800827 58.075066,54.1011375 C57.982905,54.0064012 57.9212434,53.8928438 57.8900794,53.7604618 C57.8121693,53.4295068 57.9068825,53.139421 58.1742217,52.8901957 C59.5173997,51.5726839 62.0124225,50.2518208 65.6593652,48.9275669 C65.8306805,48.8639512 66.0824557,48.7464657 66.4146983,48.575107 C66.5976893,48.46217 66.9020149,48.221705 67.3276845,47.8537048 C67.753354,47.4857046 68.362038,47.3016638 69.1537546,47.301577 C69.4782279,47.2950519 69.8098434,47.3683456 70.148611,47.5214601 C70.4873787,47.6745747 70.8663616,47.7017886 71.2855712,47.6031025 C74.3940159,47.4535035 76.1819416,48.3715551 76.6494019,50.3572848 Z M87.1109001,52.3113076 C87.1778877,52.6214916 87.1511547,52.9808969 87.0307004,53.3895344 C86.9102461,53.7981718 86.7170858,54.031196 86.4512138,54.088614 C86.3404338,54.1125381 86.1666471,54.0862995 85.9298486,54.0098974 C85.69305,53.9334953 85.4860299,53.9144338 85.3087819,53.9527124 C85.0650659,54.0053456 84.8096514,54.1648555 84.5425309,54.4312471 C82.9398077,56.0295967 81.4225052,58.5602285 79.9905779,62.0232184 C79.7479011,62.7249285 79.5076203,63.4377059 79.2697284,64.161572 C78.8832974,65.0566527 78.4242168,65.5616034 77.8924728,65.6764393 C77.3828848,65.7864904 76.9553742,65.739682 76.6099283,65.5360128 C76.178875,65.258074 75.927466,64.9529392 75.8556935,64.6205992 C75.7887059,64.3104152 75.8331219,63.8718269 75.9889429,63.3048209 C76.6092099,61.130206 77.8123819,57.6818821 79.5984949,52.9597458 C79.8255687,52.4005414 80.1495827,52.0754882 80.5705467,51.9845765 C80.8585747,51.9223737 81.1902854,51.9550876 81.5656889,52.0827192 C82.1201085,52.2876369 82.4269067,52.5808098 82.4860928,52.9622466 C82.5548486,53.3879955 82.3929967,54.1418078 82.0005323,55.2237061 L80.4727068,59.1016073 C81.5360938,56.8312957 82.489466,55.0717425 83.3328519,53.8228947 C84.3152071,52.3585203 85.1830237,51.5450032 85.9363277,51.382319 C86.5566957,51.2483438 86.9482159,51.5580036 87.1109001,52.3113076 Z M99.3903517,52.7546733 C99.4377919,52.9994531 98.8704457,53.4672764 97.6882961,54.158157 C97.1790871,56.0577528 96.2255272,57.9279991 94.8275878,59.768952 C93.2014305,61.8619323 91.5427738,63.0722885 89.8515677,63.4000571 C88.4273942,63.6760727 87.5579053,63.0018667 87.243075,61.3774188 C87.1740711,61.0213754 87.1452603,60.6344597 87.1566417,60.2166599 C86.6836441,60.5161274 86.3692655,60.6809533 86.2134965,60.7111425 C85.946464,60.7628954 85.7806046,60.6218787 85.7159134,60.288088 C85.672786,60.0655609 86.1708742,59.6573368 87.2101931,59.0634035 C87.4673748,56.9355899 88.2127269,54.9440784 89.4462718,53.0888093 C90.8635292,50.9901383 92.5289995,49.7553733 94.4427326,49.3844773 C95.5108628,49.1774656 96.1009847,49.3632422 96.213116,49.9418127 C96.230367,50.0308235 96.1054781,50.1012043 95.8384455,50.1529573 C95.6604239,50.1874592 95.4554953,50.2618082 95.2236537,50.3760066 C93.1500176,51.4705496 91.7234672,53.6402589 90.9439596,56.8851996 L95.7145388,54.1597269 C95.8973835,53.3161909 96.0242499,52.5412365 96.095142,51.8348404 C96.1294651,51.2971516 96.173536,50.9884636 96.2273559,50.9087673 C96.3134319,50.638111 96.5678669,50.4618144 96.9906684,50.3798723 C97.5024808,50.2806791 97.8101353,50.4981119 97.9136412,51.0321769 C98.017147,51.566242 98.0312973,52.175337 97.9560925,52.8594804 C98.3221394,52.6038293 98.6164219,52.4544422 98.838949,52.4113148 C99.150487,52.3509364 99.3342861,52.4653881 99.3903517,52.7546733 Z M95.3196959,55.5176588 L90.709542,58.1774072 C90.62071,58.9103687 90.6194214,59.4993677 90.7056763,59.9444219 C90.8178077,60.5229924 91.0963963,60.7691465 91.5414505,60.6828916 C92.2980427,60.5362583 93.0803208,59.8074417 93.8883083,58.4964199 C94.5075816,57.5221235 94.984706,56.5292131 95.3196959,55.5176588 Z M112.850971,47.8618391 C112.933284,48.8354063 112.231697,50.5958437 110.74619,53.1432041 C109.728306,54.8610126 108.642271,56.5090939 107.488056,58.0874975 C106.008696,60.0833855 104.630679,61.1804061 103.353963,61.3785921 C102.435624,61.521147 101.853031,60.7972878 101.606168,59.2069928 C101.369735,57.6838933 101.427557,55.8398851 101.779633,53.6749127 C102.039445,52.0977189 102.311057,50.9660057 102.594477,50.279739 C103.096063,49.077903 103.817213,48.4039792 104.757951,48.2579474 C105.116328,48.2023163 105.484745,48.248347 105.863215,48.396041 C106.241684,48.543735 106.456993,48.7855673 106.509147,49.1215451 C106.526532,49.2335377 106.512057,49.3619431 106.465724,49.506765 C105.409342,53.3408687 105.006327,56.0642264 105.256667,57.6769199 C105.294914,57.9233036 105.370032,58.0378014 105.482025,58.0204167 C105.70601,57.9856472 106.17229,57.4430389 106.880879,56.3925755 C108.73673,53.7189115 110.113096,50.7641767 111.010017,47.5282826 C111.095731,47.1938416 111.317773,46.9988084 111.676149,46.9431773 C111.944932,46.9014539 112.201358,46.9648691 112.445437,47.1334248 C112.689515,47.3019805 112.824692,47.5447828 112.850971,47.8618391 Z M132.727956,37.9833782 C131.589047,39.2477217 130.087409,41.6802776 128.223,45.2811188 C125.175053,51.2000343 123.405737,55.463077 122.914999,58.0703748 C122.931806,58.433362 122.939806,58.8201058 122.938998,59.2306179 L122.878776,59.305593 C122.793562,59.3604942 122.70589,59.3928619 122.615757,59.4026971 C122.097498,59.4592492 121.628807,59.1341762 121.209672,58.4274682 C120.825363,57.8309666 120.598789,57.2172626 120.529943,56.5863378 C120.335699,54.8062288 121.45118,51.4467681 123.876422,46.5078549 C124.808829,44.6048063 125.79981,42.8207986 126.849396,41.1557781 C128.132496,39.1232567 129.107311,37.9224381 129.77387,37.5532863 C129.921766,37.4459426 130.282491,37.3039761 130.856056,37.1273824 C131.59227,36.9786432 132.155999,37.025434 132.547263,37.2677562 C132.938526,37.5100784 132.998757,37.7486166 132.727956,37.9833782 Z M142.268076,48.1361066 C140.465721,52.4161282 139.441002,54.8288457 139.193887,55.3743314 C137.684588,58.6041089 136.180523,61.1279149 134.681648,62.9458252 C132.687312,65.3314051 130.629061,66.6189617 128.506834,66.8085337 C126.881298,66.9537377 126.043334,66.7441318 125.992916,66.1797096 C125.950565,65.705595 126.019696,65.4604745 126.200311,65.4443408 C126.268041,65.4382906 126.488064,65.4812175 126.860387,65.5731228 C127.232709,65.6650281 127.565615,65.6978716 127.859114,65.6716542 C129.367732,65.49138 130.866611,64.3106821 132.355795,62.1295249 C133.421283,60.5551411 134.555467,58.348834 135.758381,55.5105376 C136.506169,53.6914485 137.252937,51.8610985 137.998708,50.0194325 C137.140445,51.6208196 135.866546,53.2820681 134.176972,55.0032277 C132.172946,57.0255607 130.493651,58.0972129 129.139038,58.2182162 C128.100502,58.3109855 127.53284,57.8155323 127.436038,56.7318418 C127.40377,56.3706116 127.449513,55.9910402 127.573267,55.5931161 C128.045705,54.0034364 129.554786,50.8988867 132.100554,46.2793739 C132.51215,45.5371393 133.000152,45.1408189 133.564574,45.0904008 C133.858073,45.0641834 134.192492,45.1139593 134.567839,45.2397299 C135.086714,45.4437078 135.374382,45.8617668 135.43085,46.4939196 C135.467151,46.9003036 135.406087,47.2357302 135.247656,47.5002098 C132.913933,51.6911547 131.779356,54.1478204 131.843891,54.8702807 C131.853975,54.9831652 131.904169,55.0355732 131.994477,55.0275063 C132.487135,54.9379846 133.78403,53.6615458 135.8852,51.1981516 C136.853544,50.0648289 137.970416,48.4289856 139.235848,46.2905726 C139.906659,45.1383135 140.535555,44.5359756 141.122554,44.4835408 C141.3709,44.4613569 141.63658,44.5058946 141.919603,44.6171552 C142.463072,44.8416932 142.760011,45.2361674 142.810429,45.8005895 C142.858831,46.3424347 142.678048,47.1209327 142.268076,48.1361066 Z M156.564224,44.8769461 C156.633887,45.3500004 156.544074,45.7007261 156.294781,45.9291337 C156.045489,46.1575412 155.795181,46.2554942 155.543852,46.2229954 C155.385393,46.2311252 155.222581,46.1543673 155.055411,45.9927194 C154.888242,45.8310716 154.702793,45.7554751 154.49906,45.7659276 C154.27269,45.7775415 153.971741,45.8837667 153.596203,46.0846064 C152.734264,46.5373667 151.891787,47.1479962 151.068745,47.9165132 C150.744288,48.2282152 150.624727,48.5520968 150.710059,48.8881677 C150.765215,49.5208425 151.084471,50.4350094 151.667838,51.6306958 C152.201284,52.738157 152.68567,53.5530669 153.121009,54.0754501 C153.628906,54.6848971 154.063943,54.9803251 154.426135,54.9617428 C154.471409,54.9594201 154.52742,54.9451983 154.59417,54.9190771 L154.763947,54.9103667 C154.877132,54.9045598 154.970582,54.956506 155.0443,55.0662068 C155.215534,55.3070842 155.081171,55.5636364 154.641206,55.8358713 C153.652737,56.476696 152.728413,56.8191697 151.868207,56.8633025 C150.78163,56.9190492 149.785597,56.0849968 148.880076,54.3611202 C148.225315,53.101007 147.785031,51.8185612 147.559211,50.5137445 L146.028683,53.8605611 C145.499352,55.0452445 145.140374,55.7899419 144.951739,56.0946755 C144.488567,56.7993363 143.962707,57.1667593 143.374145,57.1969554 C143.238323,57.2039237 143.101922,57.1995736 142.964939,57.1839049 C142.322973,57.0579648 141.984574,56.6554457 141.949733,55.9763355 C141.914891,55.2972252 142.210594,54.2039823 142.836851,52.6965737 C143.605307,50.8641174 144.799774,48.4878177 146.420287,45.5676034 C148.684478,41.4795357 150.433247,38.847835 151.666649,37.6724225 C151.924356,37.3868417 152.193959,37.1120029 152.475464,36.8478978 C153.040799,36.3649615 153.59394,36.0869238 154.134906,36.0137765 C154.810532,35.9110238 155.381675,35.9838545 155.848352,36.2322707 C156.057892,36.3350033 156.166725,36.4655971 156.174855,36.6240562 C156.184146,36.8051522 156.058778,37.0158505 155.798748,37.2561572 C153.85549,39.1942798 151.334781,43.147923 148.236546,49.1172052 C150.449696,46.6886074 152.442558,45.0543668 154.215193,44.2144344 C154.502505,44.0635143 154.804616,43.9799257 155.121534,43.9636663 C155.981741,43.9195335 156.462632,44.223957 156.564224,44.8769461 Z M170.75793,44.9522031 C170.810227,45.4274908 170.707633,45.7746931 170.450145,45.9938204 C170.192657,46.2129476 169.938931,46.3016706 169.68896,46.2599919 C169.530309,46.2623146 169.370417,46.1796473 169.209278,46.0119874 C169.048139,45.8443275 168.865582,45.761992 168.661603,45.7649783 C168.43496,45.7682965 168.130323,45.8634321 167.747683,46.0503878 C166.869746,46.4712871 166.005477,47.0506622 165.15485,47.7885305 C164.819199,48.0881444 164.68786,48.4074314 164.76083,48.7464012 C164.792786,49.3806713 165.078358,50.3059139 165.617556,51.5221571 C166.110099,52.6484064 166.564324,53.4805045 166.980246,54.0184761 C167.465488,54.6461098 167.889418,54.9572674 168.252048,54.9519583 C168.297376,54.9512946 168.35387,54.9391331 168.421532,54.9154733 L168.591513,54.9129846 C168.704835,54.9113256 168.796321,54.9666583 168.865973,55.0789846 C169.028273,55.3259698 168.884607,55.5774307 168.43497,55.8333749 C167.423702,56.4375799 166.487459,56.7459823 165.626213,56.7585915 C164.538325,56.7745188 163.573495,55.9045585 162.731697,54.1486846 C162.12351,52.8654439 161.730475,51.5677382 161.552579,50.2555286 L159.900542,53.5440651 C159.328192,54.7085743 158.94219,55.4396294 158.742524,55.7372524 C158.253863,56.4244829 157.714904,56.7724066 157.125631,56.7810339 C156.989645,56.7830248 156.853495,56.7736837 156.717177,56.7530103 C156.080253,56.6036508 155.756818,56.1890119 155.746863,55.5090814 C155.736909,54.8291509 156.07244,53.7474672 156.753466,52.263998 C157.588498,50.4609051 158.869166,48.1299308 160.595508,45.271005 C163.007854,41.2685753 164.851803,38.7026655 166.127412,37.5731986 C166.395403,37.2972445 166.674887,37.0324607 166.965873,36.7788392 C167.54851,36.3169249 168.11146,36.0593254 168.654741,36.0060331 C169.333676,35.9280854 169.90177,36.0217781 170.359039,36.287114 C170.564677,36.3974493 170.668656,36.5319403 170.670979,36.6905907 C170.673633,36.8719055 170.540635,37.0778725 170.271981,37.3084978 C168.259067,39.174174 165.595296,43.0328776 162.280589,48.8847243 C164.581172,46.5387831 166.632532,44.9786014 168.43473,44.2041323 C168.727375,44.0638325 169.032344,43.991361 169.349645,43.9867155 C170.21089,43.9741064 170.680314,44.2959324 170.75793,44.9522031 Z M184.219621,45.8715943 C184.175492,47.0496586 183.361245,48.1910073 181.776856,49.2956746 C180.192467,50.400342 178.51644,50.9365681 176.748725,50.9043691 C176.499431,50.8998283 176.250348,50.8839561 176.001468,50.8567522 C175.183081,52.2247482 174.767082,53.2826702 174.75346,54.0305499 C174.74025,54.7557665 175.107579,55.1251807 175.855459,55.1388033 C176.943284,55.158618 178.382591,54.5500694 180.173424,53.3131392 C180.564062,53.0255377 180.848378,52.974041 181.026379,53.1586476 C181.270719,53.4351447 181.186033,53.7283148 180.772319,54.0381666 C180.1979,54.4584438 179.222972,55.0867861 177.847504,55.9232125 C176.245406,56.7555108 174.741619,57.1701882 173.336099,57.1672572 C171.522645,57.1568956 170.607304,56.380771 170.590048,54.8388599 C170.582701,52.7530364 171.699632,50.5517018 173.940877,48.2347899 C176.620563,45.495124 179.377423,44.1171176 182.211539,44.1007295 C182.82344,44.1118752 183.313877,44.2568298 183.682863,44.5355973 C184.051849,44.8143649 184.230766,45.2596928 184.219621,45.8715943 Z M182.116924,45.5612486 C181.482359,45.54969 180.573262,45.9865347 179.389604,46.871796 C178.205946,47.7570573 177.264485,48.7260622 176.565192,49.77884 C177.198931,49.8357246 177.915902,49.6787578 178.716125,49.3079347 C178.945232,49.1760846 179.586805,48.8023775 180.640863,48.186802 C180.962273,47.9659511 181.365681,47.5992409 181.851099,47.0866604 C182.336517,46.5740798 182.581699,46.1818173 182.586653,45.9098611 C182.590781,45.6832309 182.434206,45.5670279 182.116924,45.5612486 Z M199.679719,48.2267902 L196.872667,52.1439955 C195.145742,54.5808027 194.267798,56.3431075 194.238808,57.4309628 C194.229127,57.634734 194.110545,57.7425604 193.883056,57.7544451 C193.700851,57.7684812 193.509479,57.7366975 193.308935,57.6590929 C192.307289,57.248429 191.83444,56.4544366 191.890374,55.2770919 C191.968896,53.6242812 193.002047,51.4608939 194.989857,48.7868651 C195.207612,48.5022098 195.319715,48.2919615 195.326168,48.156114 C195.331547,48.0429078 195.266313,47.9830787 195.130466,47.9766248 C194.904053,47.9658683 194.557986,48.0855793 194.092253,48.3357613 C192.764055,49.0668931 191.294679,50.1430318 189.684082,51.56421 C188.52303,52.5982831 186.973952,54.3967795 185.036802,56.9597533 C184.867557,57.1786362 184.579167,57.2783954 184.171625,57.2590338 C182.948998,57.2009489 182.361357,56.673807 182.408686,55.6775923 C182.444182,54.9304313 182.862933,53.9972612 183.664952,52.8780541 C184.274009,51.9992955 185.24741,50.6159438 186.585184,48.7279573 C187.533807,47.3887917 188.381633,46.2604322 189.128689,45.342845 C189.442387,44.949286 189.870924,44.765417 190.414314,44.7912325 C190.867139,44.8127454 191.266608,45.0019135 191.612733,45.3587425 C191.849955,45.6196283 191.959959,45.9311964 191.942748,46.2934563 C191.92016,46.7689224 191.677105,47.3473674 191.213576,48.0288087 C190.701538,48.7760224 189.843467,49.8812032 188.639336,51.3443843 C191.883119,48.0265618 194.801408,46.0661941 197.394289,45.4632223 C198.518769,45.1989515 199.308511,45.2932008 199.76354,45.745973 C200.132307,46.1038776 200.306469,46.4979158 200.286031,46.9280994 C200.270972,47.2450769 200.06887,47.6779694 199.679719,48.2267902 Z M229.871497,55.5497439 C227.924412,58.0349499 226.92025,59.7871127 226.858982,60.8062848 C226.837711,61.0091738 226.722087,61.1337958 226.512108,61.1801545 C226.349579,61.2086969 226.170417,61.1785182 225.974618,61.0896175 C224.952902,60.6178441 224.508227,59.7507601 224.640579,58.4883394 C224.827291,56.7074245 226.019341,54.5761233 228.216765,52.094372 C228.398202,51.8854838 228.494828,51.7246841 228.506645,51.6119679 C228.520826,51.4767086 228.437744,51.3996263 228.257399,51.3807187 C227.85162,51.3381768 227.361676,51.4463455 226.78755,51.705228 C225.419866,52.3595248 223.891583,53.3502277 222.202657,54.6773666 C220.93478,55.6839924 219.339141,57.3171676 217.41569,59.5769414 C217.234253,59.7858295 216.94065,59.8690014 216.534872,59.8264594 C216.17418,59.7886443 215.811676,59.6594766 215.447349,59.4389523 C214.934673,59.1117109 214.711426,58.6324923 214.777603,58.0012819 C214.817781,57.6180471 214.961765,57.2229104 215.20956,56.8158601 C215.98494,55.5068997 217.327245,53.790188 219.236515,51.6656736 C219.624296,51.2277175 219.828818,50.9072998 219.850089,50.7044107 C219.86427,50.5691514 219.79246,50.4932508 219.634658,50.4767067 C219.319052,50.4436185 218.885465,50.5576957 218.333883,50.8189417 C216.966198,51.4732384 215.437916,52.4639413 213.748989,53.7910802 C212.530926,54.7573464 210.881929,56.464695 208.801948,58.9131771 C208.620511,59.1220653 208.326908,59.2052371 207.921129,59.1626952 C206.703795,59.0350693 206.148314,58.4640424 206.254669,57.4495972 C206.327935,56.7507571 206.760615,55.8844927 207.552721,54.8507779 C208.235746,53.9879551 209.323715,52.6320202 210.816662,50.7829324 C211.946735,49.3516211 212.832545,48.293561 213.474119,47.6087206 C213.809723,47.2336673 214.248037,47.0745043 214.789075,47.1312269 C215.239939,47.1784958 215.627986,47.3901087 215.953226,47.7660722 C216.175203,48.0400456 216.267283,48.3573733 216.229468,48.7180649 C216.179836,49.1914727 215.90423,49.7551354 215.402642,50.40907 C214.794337,51.2113535 213.899618,52.2456889 212.71846,53.5121074 C216.308475,50.3558795 219.33368,48.5649065 221.794165,48.1391345 C222.909328,47.9369746 223.687376,48.0698245 224.128331,48.5376881 C224.569287,49.0055518 224.766128,49.4649091 224.718859,49.9157736 C224.681044,50.2764652 224.444524,50.6846911 224.009294,51.1404636 C223.574063,51.5962361 222.628351,52.6822019 221.172128,54.3983937 C225.019572,51.1779908 228.231028,49.3495678 230.806593,48.9130698 C231.919393,48.7334531 232.702485,48.8725296 233.155894,49.3303034 C233.526221,49.7109937 233.690111,50.104222 233.647569,50.5100001 C233.616844,50.8030621 233.353646,51.2483746 232.857966,51.8459512 C232.362287,52.4435277 231.366807,53.678113 229.871497,55.5497439 Z M246.784845,53.6097161 C246.571281,54.7691008 245.600944,55.7810896 243.873806,56.6457128 C242.146669,57.5103361 240.41083,57.7992447 238.666237,57.5124475 C238.420205,57.4720018 238.176015,57.4203735 237.933659,57.3575612 C236.926539,58.5932308 236.362319,59.5800992 236.240982,60.318196 C236.123322,61.0339262 236.433535,61.4524537 237.171632,61.573791 C238.245227,61.7502816 239.757251,61.3556675 241.707749,60.3899368 C242.135781,60.1616785 242.424551,60.1517233 242.574068,60.360071 C242.775978,60.6689156 242.649897,60.9468077 242.195822,61.1937557 C241.566797,61.5267983 240.511443,62.0079706 239.029727,62.637287 C237.324345,63.2298345 235.776475,63.4233051 234.386071,63.2177047 C232.593069,62.9459203 231.799227,62.0459013 232.004522,60.5176208 C232.298063,58.4525427 233.720789,56.4353013 236.272742,54.4658362 C239.319521,52.1412672 242.246293,51.1752527 245.053145,51.5677639 C245.657042,51.6670399 246.121447,51.8812084 246.446372,52.2102759 C246.771298,52.5393433 246.884121,53.0058187 246.784845,53.6097161 Z M244.748887,52.9993698 C244.122623,52.896417 243.160029,53.1975876 241.861075,53.9028906 C240.562121,54.6081937 239.490755,55.4312939 238.646944,56.3722161 C239.265854,56.5199021 239.997967,56.4679755 240.843304,56.2164349 C241.089031,56.1190044 241.777792,55.8417297 242.909607,55.3846026 C243.259508,55.2124133 243.711584,54.907715 244.265851,54.4704986 C244.820117,54.0332821 245.119307,53.6804798 245.16343,53.4120809 C245.200199,53.1884152 245.062019,53.0508462 244.748887,52.9993698 Z M269.861047,49.790693 C269.833923,49.9239613 269.619873,50.1232722 269.21889,50.3886317 C267.232063,51.6265835 264.369412,54.2129085 260.630853,58.1476842 C256.798535,62.2021659 254.595239,65.015216 254.020899,66.5869189 C253.980212,66.7868214 253.950631,66.9889812 253.932156,67.1934045 C253.869258,67.3887862 253.726754,67.4638722 253.50464,67.4186646 C253.17599,67.3286419 252.943166,67.1655987 252.806162,66.9295302 C252.302175,66.1098754 252.158682,65.1669888 252.375678,64.1008422 C252.588154,63.0569071 253.105192,61.9940178 253.926809,60.9121425 C249.915418,64.0280481 246.89915,65.3802863 244.877914,64.9688976 C243.767344,64.7428599 243.331866,64.0412498 243.571466,62.8640463 C243.919564,61.1537696 245.24386,59.3068063 247.544394,57.3231012 C250.009841,55.2110409 252.349559,54.1143321 254.563619,54.0329419 C255.33276,54.0044357 256.039386,54.0557328 256.683516,54.1868347 C257.616394,54.3767063 258.368721,54.7148791 258.940519,55.2013632 C259.083221,55.0684873 259.299532,54.8580708 259.589457,54.5701076 C261.409205,52.7892562 262.722497,51.5645948 263.529375,50.8960868 C265.361507,49.3953342 266.713132,48.6642291 267.584289,48.7027495 C268.610926,48.7729151 269.256079,48.9273562 269.519766,49.1660775 C269.783454,49.4047988 269.897213,49.6130019 269.861047,49.790693 Z M258.150944,56.012177 C257.520769,55.6988633 256.983379,55.5547899 256.538759,55.5799525 C254.826912,55.6941651 253.059274,56.5372125 251.23579,58.10912 C249.840414,59.2823996 248.894388,60.3505004 248.397685,61.3134544 C248.317096,61.482104 248.26098,61.6441662 248.229335,61.7996459 C248.161524,62.1328167 248.27199,62.328784 248.560738,62.3875538 C249.471405,62.5729048 251.675793,61.4023894 255.173967,58.8759726 C255.392345,58.7122362 256.384661,57.7576472 258.150944,56.012177 Z" id="Prøv-lykken-med" fill="#F01516"></path>
                <path d="M244.446708,12.6623835 C244.447257,12.6629318 244.43891,12.6547679 244.436595,12.6527573 C244.398212,12.6150446 244.16761,12.3719532 243.928235,11.7660523 C243.604418,10.9464869 243.410188,9.86104398 243.35103,8.53982065 C243.195488,5.05819064 242.424846,3.82951266 240.296912,3.67068073 C239.502326,3.61140053 238.762268,3.95489666 238.23295,4.30022055 C238.333233,3.77461907 238.454352,3.56064986 238.461785,3.54797742 C238.532702,3.43684991 238.5023,3.28880173 238.39233,3.21477765 C238.372956,3.20173966 237.670489,2.67918444 237.670489,2.67918444 C237.619129,2.6398877 237.554304,2.62282865 237.490272,2.63111448 C237.426179,2.639644 237.368117,2.6732747 237.32882,2.72457369 C237.230487,2.85312581 236.908741,3.35612405 236.761912,4.57450569 C233.984637,5.48131598 232.74938,7.25490873 232.20154,8.59526256 C232.025832,9.02515059 231.907272,9.43883253 231.827582,9.81614213 C231.676244,9.80170286 231.523139,9.79378259 231.36979,9.79378259 C228.749398,9.79378259 226.617626,11.9256154 226.617626,14.5459462 C226.617626,17.166277 228.749398,19.2981098 231.36979,19.2981098 C232.110579,19.2981098 232.836807,19.1257525 233.492849,18.7980359 C233.602758,20.0476113 234.145419,21.2075047 235.047599,22.0979871 C236.045736,23.0830862 237.367812,23.6256249 238.770371,23.6256249 C241.693073,23.6256249 244.070861,21.2478372 244.070861,18.3251347 C244.070861,16.9474338 243.544894,15.6422947 242.589831,14.6500673 C241.680218,13.7050569 240.472803,13.1389402 239.173147,13.0415818 C238.27377,9.43895438 238.084658,7.15279814 238.099707,5.81926792 C238.100864,5.71801028 238.103179,5.62089555 238.106469,5.52755819 C238.633046,5.73744541 239.290855,6.18067606 239.401982,7.09790455 C239.534373,8.1880387 240.272298,11.8406857 244.209831,13.0749079 C244.233958,13.0824626 244.258511,13.0861181 244.282698,13.0861181 C244.372319,13.0861181 244.457248,13.036525 244.499774,12.9531184 C244.55022,12.8544196 244.52713,12.7356156 244.446708,12.6623835 Z M240.260722,4.15674177 C241.204636,4.22723219 241.771058,4.518881 242.154703,5.13209288 C242.568995,5.79434953 242.787777,6.85201055 242.864177,8.56163187 C242.923214,9.88047911 243.109157,10.8329833 243.320811,11.5108368 C242.377689,10.2720452 242.193939,9.01613367 242.02804,7.87646736 C241.895467,6.96551415 241.770266,6.10506791 241.252341,5.43952131 C240.57997,4.57548049 239.458155,4.52076968 238.61751,4.6333594 C239.067381,4.35876964 239.653116,4.11171806 240.260722,4.15674177 Z M227.105089,14.5458853 C227.105089,12.1942954 229.018261,10.2811231 231.369851,10.2811231 C231.494808,10.2811231 231.619461,10.2871547 231.742835,10.2977556 C231.704635,10.5676542 231.685687,10.8094052 231.677949,11.011494 C231.674781,11.0943523 231.686662,11.1750172 231.710971,11.2514783 C231.47781,11.2114505 231.212603,11.1228043 230.967745,10.9391149 C230.86009,10.8583891 230.707351,10.8802003 230.626503,10.9878551 C230.545777,11.0955099 230.567588,11.2482493 230.675243,11.3290361 C231.162035,11.6940997 231.696958,11.7694032 232.05532,11.7694032 C232.2766,11.7694032 232.428974,11.7410121 232.462909,11.7341275 C232.802202,11.6928812 233.065459,11.4095791 233.079107,11.0649254 C233.083859,10.943136 233.093668,10.803922 233.11091,10.6514263 C234.484102,11.2659176 235.441419,12.5704474 235.607623,14.0712172 C234.284328,15.0569865 233.491753,16.607715 233.470855,18.2581171 C232.832786,18.6198907 232.109422,18.8105865 231.36979,18.8105865 C229.018261,18.8106475 227.105089,16.8975361 227.105089,14.5458853 Z M236.05786,13.7712217 C235.792775,12.1602382 234.706784,10.7840604 233.189198,10.1548861 C233.254998,9.82802254 233.35656,9.46649256 233.512772,9.09143718 C234.086443,7.71416269 235.153426,6.70597291 236.687217,6.09056772 C236.703484,7.9685253 237.059592,10.3265732 237.748229,13.1241354 C237.154209,13.2404416 236.579745,13.4605642 236.05786,13.7712217 Z M243.583521,18.3250738 C243.583521,20.9790353 241.424393,23.1381626 238.770432,23.1381626 C237.496913,23.1381626 236.296443,22.6455216 235.39012,21.7510182 C234.48465,20.8573678 233.976291,19.665184 233.958622,18.394163 C233.958562,18.3909949 233.957343,18.3451182 233.957343,18.3250738 C233.957343,16.7603935 234.722441,15.2877102 236.003881,14.3857739 C236.560858,13.9942078 237.200999,13.7242484 237.866911,13.5976458 C238.001434,14.1250751 238.311482,15.2466466 238.315199,15.2576131 C237.87471,15.2174635 237.323581,15.0679531 236.909594,14.6235039 C236.818024,14.5249879 236.663822,14.5195047 236.565184,14.611258 C236.466729,14.7030113 236.461246,14.8572129 236.552999,14.955668 C237.182356,15.6315109 238.030374,15.7602458 238.585036,15.7602458 C238.766654,15.7602458 239.214881,15.6942029 239.234864,15.6864045 C239.565566,15.556573 239.751266,15.1919967 239.652872,14.843261 C239.525721,14.3925366 239.408684,13.9594805 239.300664,13.5426913 C241.727435,13.8057053 243.583521,15.8451755 243.583521,18.3250738 Z M239.183687,14.9755296 C239.214942,15.0863525 239.152189,15.2018057 239.043803,15.2366549 C239.029851,15.2417726 239.010782,15.2465248 238.973434,15.2470122 C238.880584,15.244697 238.798762,15.1818222 238.773417,15.0920185 C237.678104,11.2115114 237.140562,8.06570095 237.175654,5.7420148 C237.176873,5.66232467 237.138977,5.58714301 237.074397,5.54059617 C237.032358,5.51031636 236.9824,5.49465859 236.931954,5.49465859 C236.904842,5.49465859 236.877487,5.49916706 236.851289,5.50842768 C235.006292,6.15581858 233.731676,7.29828745 233.06284,8.90397042 C232.709961,9.75125682 232.612115,10.5363386 232.592071,11.045734 C232.587867,11.1536934 232.504095,11.2422786 232.397293,11.2516002 C232.331433,11.2573881 232.269777,11.2338709 232.224692,11.1868976 C232.183933,11.1446156 232.162731,11.088869 232.165046,11.0298935 C232.185273,10.4982604 232.286287,9.67631886 232.652874,8.77950029 C233.170799,7.51213481 234.35555,5.82621339 237.058556,4.9915385 C237.151955,4.9627209 237.219094,4.88083746 237.229086,4.78353996 C237.313528,3.9598316 237.479184,3.48126436 237.594454,3.23463925 L237.945139,3.5031365 C237.642585,4.25921791 236.966316,7.11557286 239.183687,14.9755296 Z M239.885911,7.03911176 C239.756749,5.97304306 239.035578,5.42355892 238.458556,5.15104061 C239.19703,5.0167006 240.279975,4.98349638 240.867598,5.73884669 C241.306442,6.30277011 241.417326,7.06457848 241.545756,7.94665316 C241.726217,9.18654138 241.944329,10.6769539 243.19098,12.1220991 C240.544025,10.6987042 239.994967,7.93708791 239.885911,7.03911176 Z" id="Shape" fill="#000000" fill-rule="nonzero" transform="translate(235.572025, 13.127347) rotate(-343.000000) translate(-235.572025, -13.127347) "></path>
            </g>
        </g>
    </g>
</svg>
