<?xml version="1.0" encoding="UTF-8"?>
<svg width="17px" height="37px" viewBox="0 0 17 37" version="1.1" xmlns="http://www.w3.org/2000/svg" xmlns:xlink="http://www.w3.org/1999/xlink">
    <!-- Generator: Sketch 46.2 (44496) - http://www.bohemiancoding.com/sketch -->
    <title></title>
    <desc>Created with Sketch.</desc>
    <defs></defs>
    <g id="Page-1" stroke="none" stroke-width="1" fill="none" fill-rule="evenodd">
        <g id="iPhone-7-Copy" transform="translate(-177.000000, -184.000000)" stroke="#000000" fill="#FFFFFF">
            <path d="M193.368322,211.238834 C193.267875,210.997762 193.046893,210.857137 192.785732,210.857137 L188.285727,210.857137 L188.285727,185.785678 C188.285727,185.424071 188.004476,185.14282 187.642869,185.14282 L183.785721,185.14282 C183.424114,185.14282 183.142863,185.424071 183.142863,185.785678 L183.142863,210.857137 L178.642858,210.857137 C178.381697,210.857137 178.160714,211.017851 178.060268,211.238834 C177.959821,211.479905 178,211.741066 178.160714,211.941959 L185.292419,219.656254 C185.412955,219.77679 185.593759,219.857147 185.774563,219.857147 C185.955367,219.857147 186.116081,219.77679 186.236617,219.656254 L193.267875,211.941959 C193.42859,211.741066 193.468768,211.479905 193.368322,211.238834 Z" id=""></path>
        </g>
    </g>
</svg>
