<?xml version="1.0" encoding="utf-8"?>
<svg version="1.1" xmlns="http://www.w3.org/2000/svg" xmlns:xlink="http://www.w3.org/1999/xlink"
	 width="365.35px" height="60px" viewBox="0 0 365.35 60">
<rect y="0.564" fill="#E20613" width="289.475" height="57.744"/>
<path fill="#009540" d="M303.864,30.758c0,11.072,5.579,20.978,15.379,25.829c9.222,4.553,21.506,4.553,30.757,0
	c9.123-4.498,15.351-14.757,15.351-25.829c0-16.926-13.529-30.757-30.743-30.757C317.322,0.001,303.864,13.727,303.864,30.758"/>
<path fill="#FFFFFF" d="M334.622,7.972c-3.093,10.499-12.315,25.879-19.051,33.419h15.958l0.042,4.568
	c-0.042,2.592-2.104,5.29-5.098,5.254c-4.167-0.057-9.378-1.985-12.525-7.33c-2.289-3.897-3.955-6.968-3.955-13.125
	c0-13.451,10.832-24.601,24.614-24.601c13.627,0,24.614,11.474,24.614,24.601c0,6.157-2.866,11.487-3.826,13.02
	c-3.361,5.45-8.487,7.379-12.455,7.429c-2.725,0.035-5.254-1.979-5.254-5.262v-4.554h16.197
	C346.907,33.851,337.686,18.471,334.622,7.972"/>
<path fill="#FFFFFF" d="M202.653,11.7c2.584,0,4.208,0.961,6.638,4.073l18.076,25.866c0.961,1.36,0.861,3.515-0.791,4.92
	c-1.469,1.243-4.068,1.351-5.479-0.508l-4.323-5.996h-28.482l-4.308,6.103c-1.525,1.807-3.403,1.807-5.083,0.684
	c-1.766-1.172-2.205-3.452-1.131-5.026l18.245-26.042C198.332,12.548,200.152,11.7,202.653,11.7 M203.726,21.281
	c-0.481-0.698-0.649-0.769-1.159-0.769c-0.564,0-0.79,0.281-1.17,0.797c-0.637,0.84-7.881,11.516-7.965,11.516h18.316
	C211.705,32.825,204.743,22.779,203.726,21.281"/>
<path fill="#FFFFFF" d="M79.935,11.813h25.983c6.44,0,7.034,7.43,7.034,7.43H80.98c-1.582,0-3.051,1.193-3.051,3.274
	c0,2.373,1.808,3.503,2.939,3.503h22.593c4.476,0,10.846,3.728,10.846,10.16c0,8.367-7.401,11.34-9.969,11.34H77.9
	c-7.865,0-7.426-7.491-7.426-7.491h32.762c1.313,0,3.248-1.3,3.248-3.247c0-1.852-1.694-3.278-2.938-3.278H81.403
	c-6.285,0-11.156-4.658-11.156-10.986C70.247,15.393,76.362,11.813,79.935,11.813"/>
<path fill="#FFFFFF" d="M246.262,11.7h26.887c4.066,0,10.394,3.334,10.394,11.298v0.507c0,4.245-2.655,7.96-6.384,9.766
	c0,0,0.269,0.418,6.045,8.255c0.749,1.011,0.79,3.445-0.849,4.915c-1.566,1.397-4.166,1.574-5.479,0.057
	c-1.835-2.127-3.954-4.915-9.771-12.322h-10.506c-2.994,0-7.063-2.366-7.063-7.619h22.709c1.229-0.049,3.205-1.235,3.205-3.558
	c0-2.147-1.891-3.616-3.22-3.616H247.15l0.028,23.78c0,2.601-1.99,4.352-4.137,4.352c-2.033,0-4.067-1.809-4.067-4.237V19.043
	C238.974,14.977,243.268,11.7,246.262,11.7"/>
<path fill="#FFFFFF" d="M136.026,11.756h26.887c4.081,0,10.394,3.335,10.394,11.306v0.501c0,4.243-2.654,7.972-6.383,9.778
	c0,0-1.921,0.622-3.729,0.849h-16.89c-2.993,0-6.848-2.429-6.848-7.69h22.496c1.229-0.05,3.276-1.123,3.276-3.438
	c0-2.147-1.907-3.616-3.233-3.616h-25.066l0.013,23.782c0,2.592-1.99,4.342-4.138,4.342c-2.033,0-4.066-1.807-4.066-4.236V19.107
	C128.739,15.034,133.033,11.756,136.026,11.756"/>
</svg>
