<?xml version="1.0" encoding="UTF-8"?>
<svg width="3px" height="13px" viewBox="0 0 3 13" version="1.1" xmlns="http://www.w3.org/2000/svg" xmlns:xlink="http://www.w3.org/1999/xlink">
    <!-- Generator: Sketch 46.1 (44463) - http://www.bohemiancoding.com/sketch -->
    <title>Alert</title>
    <desc>Created with Sketch.</desc>
    <defs></defs>
    <g id="Exports"  fill-rule="evenodd">
        <g id="Alert" >
            <path d="M0,0 L0,0.427827381 L0.0900297619,1.32142857 L0.107142857,1.48139881 L0.197172619,2.37425595 L0.197172619,2.55357143 L0.284970238,3.44642857 L0.303571429,3.60639881 L0.5,5.57068452 L0.517857143,5.73214286 L0.607142857,6.625 L0.607142857,6.80357143 L0.696428571,7.69642857 L0.714285714,7.85714286 L0.803571429,8.74925595 L2.17857143,8.74925595 L2.26785714,7.85714286 L2.28571429,7.69642857 L2.48214286,5.73214286 L2.5,5.57068452 L2.58928571,4.67857143 L2.58928571,4.5 L2.67857143,3.60639881 L2.69642857,3.44642857 L2.89285714,1.48139881 L2.91071429,1.32142857 L3,0.427827381 L3,0 L0,0 Z M0.107142857,13 L2.875,13 L2.875,10.2142857 L0.107142857,10.2142857 L0.107142857,13 Z" id="Page-1"></path>
        </g>
    </g>
</svg>
