<?xml version="1.0" encoding="UTF-8"?>
<svg width="12px" height="15px" viewBox="0 0 12 15" version="1.1" xmlns="http://www.w3.org/2000/svg" xmlns:xlink="http://www.w3.org/1999/xlink">
    <!-- Generator: Sketch 46.1 (44463) - http://www.bohemiancoding.com/sketch -->
    <title>Extradition</title>
    <desc>Created with Sketch.</desc>
    <defs>
        <polygon id="path-1" points="12 15 12 0 0 1.68646809e-15 0 15"></polygon>
    </defs>
    <g id="Exports"  fill-rule="evenodd">
        <g id="Extradition">
            <g id="Page-1">
                <mask id="mask-2"  >
                    <use xlink:href="#path-1"></use>
                </mask>
                <g id="Clip-2"></g>
                <path d="M4.01641349,2.90468053 C4.05002959,2.41384221 4.25598737,1.96050508 4.60540541,1.61587392 C4.98323141,1.24371024 5.47705662,1.0604766 6.02106924,1.05335612 C7.0697968,1.05335612 7.93150523,1.87126175 8.00441902,2.90468053 L4.01641349,2.90468053 Z M3.50743736,5.56014431 C3.77636615,5.56014431 4.01167883,5.32374442 4.01167883,5.05411564 L4.01167883,3.91531378 L8.00962715,3.91531378 L8.00962715,5.05838792 C8.0172026,5.3313396 8.23641744,5.55159973 8.51339515,5.56014431 C8.78185046,5.56014431 9.01763661,5.32421912 9.01763661,5.05459034 L9.01763661,3.91578847 L10.1942,3.91578847 L10.9915171,12.9611697 C10.9678438,13.5284344 10.3930558,13.9893668 9.70652989,13.9893668 L2.3356086,13.9893668 C1.62730322,13.9893668 1.02884198,13.516567 1.02836851,12.9697142 L1.82663247,3.91531378 L3.0031959,3.91531378 L3.0031959,5.05838792 C3.01124482,5.3313396 3.23093312,5.55159973 3.50743736,5.56014431 L3.50743736,5.56014431 Z M11.1472874,3.35137188 C11.1169856,3.080319 10.9053462,2.88331909 10.6435194,2.88331909 L9.01432235,2.88331909 C8.93998816,1.28073673 7.61617676,0 5.99976327,0 C4.38334977,0 3.05953837,1.28073673 2.98520418,2.88379379 L1.3560071,2.88379379 C1.09465378,2.88379379 0.882540935,3.0807937 0.8522391,3.35516947 L0,12.8928131 L0,12.9355359 C0,14.0738631 1.0383113,15 2.31477609,15 L9.68475044,15 C10.9612152,15 12,14.0738631 12,12.9360106 L11.1472874,3.35137188 Z" id="Fill-1" fill="#000000" mask="url(#mask-2)"></path>
            </g>
        </g>
    </g>
</svg>
