<?xml version="1.0" encoding="UTF-8"?>
<svg width="25px" height="23px" viewBox="0 0 25 23" version="1.1" xmlns="http://www.w3.org/2000/svg" xmlns:xlink="http://www.w3.org/1999/xlink">
    <!-- Generator: Sketch 46.1 (44463) - http://www.bohemiancoding.com/sketch -->
    <title>Shoppingcart</title>
    <desc>Created with Sketch.</desc>
    <defs></defs>
    <g id="Exports" stroke="none" stroke-width="1"   fill-rule="evenodd">
        <g id="Shoppingcart"  >
            <g id="Page-1">
                <path d="M22.332,4.4278 C22.085,4.6638 21.082,5.6448 20.309,6.4068 L19.819,6.4068 C20.443,5.3008 21.09,4.1968 21.344,3.7578 C21.41,3.7288 21.712,3.7578 22.041,3.9898 C22.297,4.1698 22.374,4.3408 22.332,4.4278 L22.332,4.4278 Z M19.83,14.8698 L7.306,14.8698 L5.74,7.6058 L22.419,7.6058 L19.83,14.8698 Z M8.097,20.6988 C8.097,21.4938 7.407,21.5348 7.269,21.5348 C7.13,21.5348 6.439,21.4938 6.439,20.6988 C6.44,19.9048 7.13,19.8638 7.269,19.8638 C7.407,19.8638 8.097,19.9048 8.097,20.6988 L8.097,20.6988 Z M7.049,6.4058 L10.612,6.4058 L10.612,4.5488 L7.049,4.5488 L7.049,6.4058 Z M8.831,2.8048 L9.508,3.3498 L8.153,3.3498 L8.831,2.8048 Z M14.89,4.8718 C15.657,4.8718 16.747,5.4988 17.143,6.4068 L12.754,6.4068 C13.05,5.5198 13.89,4.8718 14.89,4.8718 L14.89,4.8718 Z M19.653,19.8638 C19.791,19.8638 20.481,19.9048 20.481,20.6988 C20.481,21.4938 19.791,21.5348 19.653,21.5348 C19.514,21.5348 18.824,21.4938 18.824,20.6988 C18.824,19.9048 19.515,19.8638 19.653,19.8638 L19.653,19.8638 Z M24.509,2.5848 C24.369,2.5068 24.227,2.4548 24.084,2.4238 C24.41,1.8148 24.557,1.3188 24.567,1.2828 C24.659,0.9658 24.477,0.6338 24.159,0.5408 C23.843,0.4468 23.508,0.6298 23.415,0.9488 C23.414,0.9528 23.351,1.1548 23.227,1.4398 C23.153,1.2578 23.063,1.1088 22.975,1.0028 C22.766,0.7558 22.402,0.7248 22.148,0.9258 C21.893,1.1268 21.851,1.5018 22.046,1.7628 C22.076,1.8028 22.293,2.1268 22.094,2.6768 C21.893,2.6058 21.692,2.5618 21.507,2.5518 C20.952,2.5108 20.519,2.7558 20.321,3.1538 C20.015,3.6588 19.161,5.1148 18.445,6.4068 L18.417,6.4068 C18.145,5.2698 17.232,4.4338 16.264,4.0038 C16.32,3.9608 16.378,3.9168 16.423,3.8738 C17.061,3.2578 17.035,2.3458 17.03,2.2438 C17.015,1.9438 16.78,1.7008 16.481,1.6758 C16.383,1.6668 15.579,1.6228 14.951,2.1168 C14.844,1.9248 14.699,1.7268 14.485,1.5448 C14.232,1.3318 13.853,1.3628 13.639,1.6138 C13.424,1.8658 13.455,2.2448 13.707,2.4588 C13.995,2.7028 14.012,3.0238 14.012,3.0258 L14.012,3.7978 C13.047,4.0508 12.253,4.7008 11.812,5.5658 L11.812,3.9488 C11.812,3.9388 11.807,3.9288 11.806,3.9178 C11.804,3.8758 11.792,3.8368 11.781,3.7958 C11.772,3.7598 11.765,3.7248 11.749,3.6928 C11.733,3.6588 11.71,3.6308 11.687,3.6008 C11.663,3.5678 11.641,3.5338 11.609,3.5068 C11.601,3.4988 11.597,3.4888 11.588,3.4818 L9.431,1.7468 L9.431,0.5998 C9.431,0.2688 9.163,-0.0002 8.831,-0.0002 C8.499,-0.0002 8.231,0.2688 8.231,0.5998 L8.231,1.7468 L6.073,3.4818 C6.064,3.4888 6.061,3.4988 6.052,3.5068 C6.021,3.5338 5.999,3.5678 5.974,3.6008 C5.952,3.6308 5.928,3.6588 5.912,3.6928 C5.896,3.7248 5.89,3.7598 5.88,3.7958 C5.869,3.8368 5.858,3.8758 5.855,3.9178 C5.855,3.9288 5.849,3.9388 5.849,3.9488 L5.849,6.4068 L5.482,6.4068 L4.203,0.4738 C4.144,0.1978 3.899,-0.0002 3.617,-0.0002 L0.6,-0.0002 C0.269,-0.0002 0,0.2688 0,0.5998 C0,0.9308 0.269,1.1988 0.6,1.1988 L3.132,1.1988 L6.909,18.7248 C6.028,18.8648 5.24,19.5218 5.239,20.6988 C5.239,22.0348 6.26,22.7348 7.269,22.7348 C8.277,22.7348 9.297,22.0348 9.297,20.6988 C9.297,20.3818 9.237,20.1058 9.136,19.8638 L17.786,19.8638 C17.685,20.1058 17.624,20.3818 17.624,20.6988 C17.624,22.0348 18.644,22.7348 19.653,22.7348 C20.661,22.7348 21.682,22.0348 21.682,20.6988 C21.682,19.4688 20.82,18.8118 19.892,18.7148 C19.818,18.6828 19.738,18.6638 19.653,18.6638 L8.124,18.6638 L7.564,16.0698 L20.253,16.0698 C20.507,16.0698 20.733,15.9098 20.818,15.6708 L23.834,7.2068 C23.9,7.0238 23.872,6.8198 23.76,6.6598 C23.647,6.5008 23.464,6.4068 23.269,6.4068 L22.021,6.4068 C22.537,5.9008 23.005,5.4448 23.163,5.2938 C23.553,4.9188 23.671,4.4198 23.487,3.9248 C23.456,3.8388 23.413,3.7588 23.367,3.6798 C23.564,3.6018 23.78,3.5538 23.922,3.6318 C24.211,3.7918 24.577,3.6908 24.739,3.4028 C24.901,3.1138 24.798,2.7468 24.509,2.5848 L24.509,2.5848 Z" id="Fill-1"></path>
            </g>
        </g>
    </g>
</svg>
