<?xml version="1.0" encoding="UTF-8"?>
<svg width="24px" height="23px" viewBox="0 0 24 23" version="1.1" xmlns="http://www.w3.org/2000/svg" xmlns:xlink="http://www.w3.org/1999/xlink">
    <!-- Generator: Sketch 46.1 (44463) - http://www.bohemiancoding.com/sketch -->
    <title>Shoppingcart_2</title>
    <desc>Created with Sketch.</desc>
    <defs></defs>
    <g id="Exports" stroke="none" stroke-width="1"   fill-rule="evenodd">
        <g id="Shoppingcart_2" >
            <path d="M19.83,14.87 L7.306,14.87 L5.741,7.605 L22.419,7.605 L19.83,14.87 Z M8.098,20.699 C8.098,21.494 7.407,21.535 7.269,21.535 C7.13,21.535 6.44,21.494 6.44,20.699 C6.44,19.904 7.131,19.863 7.269,19.863 C7.407,19.863 8.098,19.904 8.098,20.699 L8.098,20.699 Z M19.653,19.863 C19.791,19.863 20.482,19.904 20.482,20.699 C20.482,21.494 19.791,21.535 19.653,21.535 C19.515,21.535 18.824,21.494 18.824,20.699 C18.825,19.904 19.515,19.863 19.653,19.863 L19.653,19.863 Z M5.482,6.406 L4.204,0.474 C4.144,0.197 3.9,0 3.617,0 L0.601,0 C0.269,0 0,0.268 0,0.599 C0,0.931 0.269,1.199 0.601,1.199 L3.133,1.199 L6.91,18.724 C6.029,18.864 5.241,19.521 5.24,20.699 C5.24,22.035 6.261,22.734 7.269,22.734 C8.277,22.734 9.298,22.035 9.298,20.699 C9.298,20.382 9.237,20.105 9.137,19.863 L17.786,19.863 C17.685,20.105 17.624,20.382 17.624,20.699 C17.624,22.035 18.645,22.734 19.653,22.734 C20.662,22.734 21.682,22.035 21.682,20.699 C21.682,19.469 20.821,18.811 19.892,18.715 C19.819,18.683 19.738,18.664 19.653,18.664 L8.124,18.664 L7.565,16.069 L20.253,16.069 C20.507,16.069 20.733,15.91 20.818,15.671 L23.835,7.207 C23.901,7.023 23.872,6.819 23.76,6.66 C23.648,6.501 23.465,6.406 23.27,6.406 L5.482,6.406 Z" id="Fill-1"></path>
        </g>
    </g>
</svg>
