<?xml version="1.0" encoding="UTF-8"?>
<svg width="12px" height="10px" viewBox="0 0 12 10" version="1.1" xmlns="http://www.w3.org/2000/svg" xmlns:xlink="http://www.w3.org/1999/xlink" style="background: #FFFFFF;">
    <!-- Generator: Sketch 46.1 (44463) - http://www.bohemiancoding.com/sketch -->
    <title>Check</title>
    <desc>Created with Sketch.</desc>
    <defs></defs>
    <g id="Exports"  fill-rule="evenodd">
        <g id="Check"  >
            <path d="M11.6800494,0.279763405 C11.2685775,-0.110063965 10.6180209,-0.0895467348 10.2291234,0.322849588 L3.73997494,7.20843198 L1.77291332,5.12182968 C1.3840159,4.7084075 0.734485382,4.68994199 0.321987327,5.0787435 C-0.0905107272,5.46754501 -0.108980789,6.11588948 0.27991663,6.5282858 L2.99398965,9.40685317 C3.00117245,9.41506006 3.0114336,9.41711178 3.0186164,9.42429282 C3.0257992,9.43249971 3.02887755,9.44275832 3.03708646,9.44993935 C3.09865334,9.50841346 3.17253358,9.54124103 3.2443616,9.58124962 C3.28232784,9.60381858 3.31413739,9.63562028 3.35415586,9.65203407 C3.47831572,9.70230128 3.60863227,9.72999954 3.73997494,9.72999954 C3.8713176,9.72999954 4.00163415,9.70230128 4.12579401,9.65203407 C4.1668386,9.63562028 4.19864815,9.60279272 4.2376405,9.58022376 C4.30844241,9.54124103 4.38232266,9.50841346 4.44388953,9.44993935 C4.45209845,9.44275832 4.45415067,9.43249971 4.46235959,9.42429282 C4.46954239,9.41711178 4.47980354,9.41506006 4.48698634,9.40685317 L11.7231462,1.7293057 C12.1120437,1.31793524 12.0925475,0.668564914 11.6800494,0.279763405" id="Fill-1"></path>
        </g>
    </g>
</svg>
