<?xml version="1.0" encoding="UTF-8"?>
<svg width="20px" height="6px" viewBox="0 0 20 6" version="1.1" xmlns="http://www.w3.org/2000/svg" xmlns:xlink="http://www.w3.org/1999/xlink">
    <!-- Generator: Sketch 46.1 (44463) - http://www.bohemiancoding.com/sketch -->
    <title>Menu</title>
    <desc>Created with Sketch.</desc>
    <defs></defs>
    <g id="Exports" stroke="none" stroke-width="1"  fill-rule="evenodd">
        <g id="Menu" fill-rule="nonzero"  >
            <g id="Group-5">
                <path d="M3,6 C1.34314575,6 0,4.65685425 0,3 C0,1.34314575 1.34314575,0 3,0 C4.65685425,0 6,1.34314575 6,3 C6,4.65685425 4.65685425,6 3,6 Z M3,4.76190476 C3.97307313,4.76190476 4.76190476,3.97307313 4.76190476,3 C4.76190476,2.02692687 3.97307313,1.23809524 3,1.23809524 C2.02692687,1.23809524 1.23809524,2.02692687 1.23809524,3 C1.23809524,3.97307313 2.02692687,4.76190476 3,4.76190476 Z" id="Oval-3"></path>
                <path d="M10,6 C8.34314575,6 7,4.65685425 7,3 C7,1.34314575 8.34314575,0 10,0 C11.6568542,0 13,1.34314575 13,3 C13,4.65685425 11.6568542,6 10,6 Z M10,4.76190476 C10.9730731,4.76190476 11.7619048,3.97307313 11.7619048,3 C11.7619048,2.02692687 10.9730731,1.23809524 10,1.23809524 C9.02692687,1.23809524 8.23809524,2.02692687 8.23809524,3 C8.23809524,3.97307313 9.02692687,4.76190476 10,4.76190476 Z" id="Oval-3-Copy"></path>
                <path d="M17,6 C15.3431458,6 14,4.65685425 14,3 C14,1.34314575 15.3431458,0 17,0 C18.6568542,0 20,1.34314575 20,3 C20,4.65685425 18.6568542,6 17,6 Z M17,4.76190476 C17.9730731,4.76190476 18.7619048,3.97307313 18.7619048,3 C18.7619048,2.02692687 17.9730731,1.23809524 17,1.23809524 C16.0269269,1.23809524 15.2380952,2.02692687 15.2380952,3 C15.2380952,3.97307313 16.0269269,4.76190476 17,4.76190476 Z" id="Oval-3-Copy"></path>
            </g>
        </g>
    </g>
</svg>
