<?xml version="1.0" encoding="UTF-8"?>
<svg width="10px" height="10px" viewBox="0 0 10 10" version="1.1" xmlns="http://www.w3.org/2000/svg" xmlns:xlink="http://www.w3.org/1999/xlink">
    <!-- Generator: Sketch 46.2 (44496) - http://www.bohemiancoding.com/sketch -->
    <title>Link</title>
    <desc>Created with Sketch.</desc>
    <defs></defs>
    <g id="Exports"   fill-rule="evenodd">
        <g id="Link"  >
            <path d="M9.92931818,0.579090909 C9.88204545,0.464545455 9.81022727,0.362727273 9.72204545,0.276363636 C9.55659091,0.106363636 9.3275,0 9.07204545,0 L1.79931818,0 C1.29659091,0 0.890227273,0.406363636 0.890227273,0.907272727 C0.890227273,1.40818182 1.29659091,1.81454545 1.79931818,1.81454545 L6.91477273,1.81454545 L0.266590909,8.45090909 C-0.0888636364,8.80545455 -0.0888636364,9.38 0.266590909,9.73363636 C0.443863636,9.91181818 0.676590909,10 0.909318182,10 C1.14113636,10 1.37386364,9.91181818 1.55204545,9.73363636 L8.18204545,3.11636364 L8.18204545,8.18545455 C8.18204545,8.68636364 8.58840909,9.09272727 9.09113636,9.09272727 C9.59204545,9.09272727 10.0002273,8.68636364 10.0002273,8.18545455 L10.0002273,0.926363636 C10.0002273,0.807272727 9.97568182,0.69 9.92931818,0.579090909" id="Fill-1"></path>
        </g>
    </g>
</svg>
