<?xml version="1.0" encoding="UTF-8"?>
<svg width="5px" height="13px" viewBox="0 0 5 13" version="1.1" xmlns="http://www.w3.org/2000/svg" xmlns:xlink="http://www.w3.org/1999/xlink">
    <!-- Generator: Sketch 46.1 (44463) - http://www.bohemiancoding.com/sketch -->
    <title>Info</title>
    <desc>Created with Sketch.</desc>
    <defs></defs>
    <g id="Exports"  fill-rule="evenodd">
        <g id="Info"  >
            <path d="M0.112561983,10.957513 C0.156336306,10.7647659 0.221996806,10.5098461 0.309545452,10.1927461 L1.46330577,5.90259067 C1.47581272,5.85284949 1.48675614,5.80310906 1.49613635,5.75336788 C1.50551656,5.70362669 1.5102066,5.65699504 1.5102066,5.6134715 C1.5102066,5.35854795 1.42891265,5.20000031 1.2663223,5.13782383 C1.10373196,5.07564736 0.806696366,5.03523325 0.375206608,5.01658031 L0.375206608,4.51295337 C0.737908143,4.48808278 1.26475549,4.43678795 1.95576445,4.35906736 C2.64677341,4.28134676 3.13610046,4.21450805 3.4237603,4.15854922 L4.24921484,4 L2.75776857,9.4373057 C2.63269908,9.90362927 2.54827843,10.2269421 2.50450411,10.4072539 C2.39194157,10.8673598 2.33566114,11.1658024 2.33566114,11.3025907 C2.33566114,11.4393789 2.36692804,11.5279791 2.42946279,11.5683938 C2.49199754,11.6088085 2.56078473,11.6290155 2.63582642,11.6290155 C2.82968414,11.6290155 3.07043931,11.4642504 3.35809915,11.134715 C3.64575898,10.8051797 3.89902091,10.4601054 4.11789253,10.0994819 L4.53999996,10.3699482 C3.91465249,11.2839424 3.43626885,11.8994803 3.10483468,12.2165803 C2.56078238,12.7388627 1.97921795,13 1.36012396,13 C1.00992937,13 0.695696978,12.8927472 0.417417352,12.6782383 C0.139137726,12.4637295 0,12.1357535 0,11.6943005 C0,11.5388593 0.0375202856,11.2932659 0.112561983,10.957513 Z M4.62490863,0.375246137 C4.87507397,0.625411478 5.00015477,0.928732405 5.00015477,1.28521802 C5.00015477,1.64170363 4.87507397,1.94658807 4.62490863,2.19988048 C4.37474329,2.45317288 4.07142236,2.57981719 3.71493675,2.57981719 C3.35845114,2.57981719 3.0535667,2.45317288 2.80027429,2.19988048 C2.54698189,1.94658807 2.42033758,1.64170363 2.42033758,1.28521802 C2.42033758,0.928732405 2.54698189,0.625411478 2.80027429,0.375246137 C3.0535667,0.125080795 3.35845114,0 3.71493675,0 C4.07142236,0 4.37474329,0.125080795 4.62490863,0.375246137 Z" id="i"></path>
        </g>
    </g>
</svg>
