<svg width="32" height="32" viewBox="0 0 32 32" xmlns="http://www.w3.org/2000/svg"><title>frysedisken32</title><g fill="none" fill-rule="evenodd"><circle fill="#FBFAFA" cx="16" cy="16" r="16"/><g stroke-linecap="round" stroke="#5381AC" stroke-width="2"><path d="M16.298 6.86l3.4-3.385M16.298 25.27l3.4 3.384M15.702 6.86l-3.4-3.385M15.702 25.27l-3.4 3.384" stroke-linejoin="round"/><path d="M16 3v26.13"/><g><path d="M24.71 16.066l3.484 3.5M7.29 16.066s-2.19 2.266-3.484 3.5M24.71 16.066l3.484-3.5M7.29 16.066l-3.484-3.5" stroke-linejoin="round"/><path d="M29.065 16.066H2.935"/></g><g><path d="M22.72 9.766l4.798.01M9.903 22.16l.014 6.112M22.298 9.344l-.01-4.798M9.903 22.16l-5.238-.01" stroke-linejoin="round"/><path d="M25.58 6.483L6.42 25.645"/></g><g><path d="M22.097 22.16l-.012 5.24M9.903 9.967l-5.238.012M22.97 22.16l4.365-.01M9.903 9.967l.012-5.238" stroke-linejoin="round"/><path d="M25.58 25.645L6.42 6.483"/></g></g></g></svg>