<?xml version="1.0" encoding="UTF-8"?>
<svg   viewBox="0 0 15 15" version="1.1" xmlns="http://www.w3.org/2000/svg" xmlns:xlink="http://www.w3.org/1999/xlink">
    <!-- Generator: Sketch 46.1 (44463) - http://www.bohemiancoding.com/sketch -->
    <title>Search</title>
    <desc>Created with Sketch.</desc>
    <defs></defs>
    <g id="Exports" stroke="none" stroke-width="1"  fill-rule="evenodd">
        <g id="Search" fill-rule="nonzero"  >
            <path d="M10.8752156,9.48087943 L14.7112235,13.3168873 C15.0962588,13.7019226 15.0962588,14.3261882 14.7112235,14.7112235 C14.3261882,15.0962588 13.7019226,15.0962588 13.3168873,14.7112235 L9.48087936,10.8752156 C8.49870848,11.5779997 7.29553273,11.991621 5.99581049,11.991621 C2.68458989,11.991621 0,9.30703107 0,5.99581049 C0,2.68458988 2.68458988,0 5.99581049,0 C9.30703107,0 11.991621,2.68458989 11.991621,5.99581049 C11.991621,7.29553276 11.5779997,8.49870853 10.8752156,9.48087943 Z M10.0197318,5.99581049 C10.0197318,3.77363422 8.21798675,1.97188918 5.99581049,1.97188918 C3.77363421,1.97188918 1.97188918,3.77363421 1.97188918,5.99581049 C1.97188918,8.21798675 3.77363422,10.0197318 5.99581049,10.0197318 C8.21798674,10.0197318 10.0197318,8.21798674 10.0197318,5.99581049 Z" id="Combined-Shape"></path>
        </g>
    </g>
</svg>
