<svg id="Layer_1" data-name="Layer 1" xmlns="http://www.w3.org/2000/svg" width="50mm" height="50mm" viewBox="0 0 141.73 141.73">
  <title>Debio_O-merke_Vektor_CMYK_Trykkfil</title>
  <g>
    <g>
      <path d="M111.15,60.5,60.49,111.14H70.87a40.28,40.28,0,0,0,40.27-40.27Z" fill="#b3d455"/>
      <path d="M70.87,30.6A40.27,40.27,0,0,0,30.59,70.84v0h0V81.24L81.24,30.6Z" fill="#b3d455"/>
    </g>
    <path d="M0,70.9v70.83H70.87a70.87,70.87,0,0,0,70.86-70.86V0H70.87A70.88,70.88,0,0,0,0,70.84Zm30.59,0h0A40.28,40.28,0,0,1,70.87,30.6H81.24L30.59,81.24V70.87S30.59,70.87,30.59,70.86Zm40.28,40.28H60.49L111.15,60.5V70.87A40.28,40.28,0,0,1,70.87,111.14Z" fill="#005f36"/>
    <g>
      <path d="M40.77,86.65c3.39,3.47,10.77,10.82,14.2,14.2l-3.36,3.36c-1.22,1.22-2.21,2.29-3.31,3.43-.62-.66-2.1-2.15-2.77-2.76l.23-.23c.79-.79.82-1.57-.16-2.68s-5.08-5.2-6-6-1.73-1-2.5-.22l-.35.35c-.62-.66-2-2.09-2.7-2.71.35-.31,2.16-2.08,3.4-3.32ZM53.59,96.78l.1-.1c1.45-1.44,1.32-3.17-2.27-6.77S46.35,86.45,45,87.83l-.17.17c-.6-.68-2-2.09-2.68-2.68l.77-.76c4.95-5,9-4.69,13.88.06,5.13,5,4.91,9.58.52,14,0,0-.23.18-1,.93C55.69,98.85,54.29,97.41,53.59,96.78Z" fill="#fff"/>
      <path d="M61,74.54c-.23,2,1.24,3.76,3.88,6.4,2.19,2.19,3.24,2.33,4,1.57.6-.6.62-1.49-.54-2.69.93-.84,2.89-2.8,3.76-3.75,2.58,2.37,2.66,5.72-.91,9.29s-6.83,4.11-10.44.49C56.38,81.49,57.31,77.72,61,74.54Zm7.28,3.53a5.84,5.84,0,0,1-2.55,1.7,1.61,1.61,0,0,0-.5-2c-.72-.72-1.34-.93-1.94-.54-1.18-1-1.59-2.82.17-4.58s3.61-1.55,5-.16C70.25,74.27,70.16,76.17,68.26,78.07Z" fill="#fff"/>
      <path d="M73.22,74.6c-1.28-1.36-6.17-6.26-6.79-6.79s-1.36-1.08-1.9-.54l-.19.18c-.72-.76-1.47-1.5-2.23-2.23.95-.9,4.72-4.72,5.47-5.59L80.07,72.13a3.87,3.87,0,0,0,.48,3.23c-.87.79-2.64,2.56-3.43,3.43C76.14,77.59,74.64,76.1,73.22,74.6ZM75.76,66c-2.75-1.92-1.94-4.29-.21-6,2.29-2.28,4.68-2.08,8.62,1.86s4.11,6.3,1.82,8.58c-1.73,1.74-4.1,2.54-6-.2,1.36-1.07,1.2-1.69-.65-3.53C77.83,65.12,76.94,64.61,75.76,66Z" fill="#fff"/>
      <path d="M92.43,57c.72.64,1.22.73,1.84.1l.11-.1c.51.56,1.71,1.75,2.27,2.27,0,0-2.15,2.07-3.33,3.24s-3.24,3.32-3.24,3.32c-.52-.56-1.71-1.75-2.27-2.27l.08-.08c.64-.64.51-1.1-.12-1.82S85,58.72,84.22,58.07s-1.2-.62-1.69-.13l-.16.17c-.52-.56-1.66-1.7-2.22-2.21,1.42-1.43,4.31-4.39,5.57-5.66C87.17,51.81,91.71,56.35,92.43,57ZM82.37,51.58a3.11,3.11,0,0,1-4.81-.06,3.37,3.37,0,1,1,4.76-4.77A3.15,3.15,0,0,1,82.37,51.58Z" fill="#fff"/>
      <path d="M92.31,53.48c-3.92-3.92-3.07-7.57.62-10.94-.62,1.81,1.94,4.38,3.95,6.38,2.29,2.29,3,1.8,3.57,1.34a3,3,0,0,1,.45,4.79C98.55,57.4,95.37,56.54,92.31,53.48Zm11.52-11.1c3.92,3.92,3.08,7.57-.62,10.94.62-1.82-1.94-4.38-3.94-6.38-2.29-2.29-3-1.79-3.57-1.34a3,3,0,0,1-.45-4.79C97.59,38.46,100.78,39.33,103.83,42.38Z" fill="#fff"/>
    </g>
    <g>
      <g>
        <path d="M66.76,124.31a6.29,6.29,0,0,1,1.35,4.28,6.41,6.41,0,0,1-1,4,5.65,5.65,0,0,1-2,1.68,6.18,6.18,0,0,1-2.49.46,6.27,6.27,0,0,1-2.84-.6l-1.41,2.07L57,135.45l1.48-2.17a6.34,6.34,0,0,1-1.68-4.61,6.42,6.42,0,0,1,1.5-4.5,5.31,5.31,0,0,1,4.12-1.63,6,6,0,0,1,2.91.66l1.36-2L68,122l-1.44,2.08Zm-2.57.61a2.63,2.63,0,0,0-1.79-.56,2.26,2.26,0,0,0-2.2,1.15,6.74,6.74,0,0,0-.6,3.1,8.08,8.08,0,0,0,.34,2.58Zm-3.36,7.61a3,3,0,0,0,1.68.42,2.78,2.78,0,0,0,1.56-.39,2.47,2.47,0,0,0,.91-1.34,8.35,8.35,0,0,0,.31-2.55c0-.4,0-.79,0-1.17a4.8,4.8,0,0,0-.21-1.14Z" fill="#cbe088"/>
        <path d="M80.55,133.53l-5-5.53.88,6.14-2.5.36-1.7-11.77,2.5-.36.78,5.34,3.17-5.91,3.06-.44-3.58,6.08,5.65,5.64Z" fill="#cbe088"/>
        <path d="M89.51,129.93a6.24,6.24,0,0,1-3.33-3.62,6.36,6.36,0,0,1-.33-4.74A5.3,5.3,0,0,1,89,118.5a5.25,5.25,0,0,1,4.51-.06,7.9,7.9,0,0,1,3.62,7.6,5.57,5.57,0,0,1-1.25,2.36,6.17,6.17,0,0,1-2.12,1.37A5.46,5.46,0,0,1,89.51,129.93Zm5.16-4.34a8.26,8.26,0,0,0-.68-2.47,12.48,12.48,0,0,0-.72-1.52,6.46,6.46,0,0,0-1.13-1.3c-.54-.51-1.36-.53-2.47-.08a2.25,2.25,0,0,0-1.6,1.91,6.82,6.82,0,0,0,.63,3.09A6.64,6.64,0,0,0,90.52,128a2.4,2.4,0,0,0,2.53.15,2.74,2.74,0,0,0,1.29-1A2.44,2.44,0,0,0,94.67,125.6Z" fill="#cbe088"/>
        <path d="M109.82,120.24l-5.61,3.94-6.84-9.73,2-1.42,5.68,8.09,4-2.8Z" fill="#cbe088"/>
        <path d="M113.85,114.93a6.22,6.22,0,0,1-4.56-1.84A6.39,6.39,0,0,1,107,109a5.31,5.31,0,0,1,1.56-4.15,5.24,5.24,0,0,1,4.06-2,6.5,6.5,0,0,1,4.23,1.89,6.36,6.36,0,0,1,2.29,3.43,5.54,5.54,0,0,1-.12,2.66,6.08,6.08,0,0,1-1.33,2.15A5.43,5.43,0,0,1,113.85,114.93Zm2.81-6.13a8.44,8.44,0,0,0-1.68-1.95,12.47,12.47,0,0,0-1.3-1.06,6.2,6.2,0,0,0-1.58-.69c-.7-.22-1.45.1-2.26,1a2.24,2.24,0,0,0-.62,2.4,6.83,6.83,0,0,0,1.89,2.53,6.71,6.71,0,0,0,2.83,1.72,2.4,2.4,0,0,0,2.35-1,2.75,2.75,0,0,0,.75-1.42A2.5,2.5,0,0,0,116.66,108.8Z" fill="#cbe088"/>
        <path d="M127.33,98.94a6.74,6.74,0,0,1-1.58,2,5.06,5.06,0,0,1-2,1.05,5.26,5.26,0,0,1-2.22.13,7.22,7.22,0,0,1-2.28-.8c-2-1.07-3.12-2.37-3.33-3.92a6.76,6.76,0,0,1,3.75-7.19l.72,1.83a6.82,6.82,0,0,0-1.23.87,4.28,4.28,0,0,0-.89,1.18q-1,1.89,0,3A8.66,8.66,0,0,0,120.66,99c1.58.84,2.75,1.06,3.49.66A3.94,3.94,0,0,0,125.82,98a3.68,3.68,0,0,0,.3-.76,5.48,5.48,0,0,0,.16-.77l-2.39-1.27-1,1.86L121,96.47,123.36,92l5,2.68a9.21,9.21,0,0,1-.28,2.14A9,9,0,0,1,127.33,98.94Z" fill="#cbe088"/>
        <path d="M131.31,89.15l-11.37-3.49.75-2.44,11.37,3.49Z" fill="#cbe088"/>
        <path d="M134,73.62a6.09,6.09,0,0,1,.35,1.55,8.12,8.12,0,0,1,0,1.76,9.65,9.65,0,0,1-1.56,4.24L131,80.06a10.67,10.67,0,0,0,.91-1.72,6.79,6.79,0,0,0,.44-1.77,3.83,3.83,0,0,0-.15-1.71,1.19,1.19,0,0,0-1.06-.87,1.22,1.22,0,0,0-1,.32,3.59,3.59,0,0,0-.79,1.36l-.59,1.53a3.68,3.68,0,0,1-1.66,2.19,3.62,3.62,0,0,1-2,.39,3.21,3.21,0,0,1-2.47-1.58,5.24,5.24,0,0,1-.63-3.45,9.36,9.36,0,0,1,.59-2.33,6.24,6.24,0,0,1,1.12-1.89l1.58,1.36a6.45,6.45,0,0,0-1.28,3,2.63,2.63,0,0,0,.19,1.48,1.11,1.11,0,0,0,.91.66,1,1,0,0,0,.86-.25,3.17,3.17,0,0,0,.67-1.2l.56-1.53a7.3,7.3,0,0,1,.66-1.33,5,5,0,0,1,1.09-1.15,2.72,2.72,0,0,1,2-.42,3.5,3.5,0,0,1,1.83.76A3.88,3.88,0,0,1,134,73.62Z" fill="#cbe088"/>
        <path d="M134.57,59.37l-6.2,4.2h6.2V66.1h-11.9V63.57h5.4l-5.4-4v-3.1l5.51,4.41,6.38-4.79Z" fill="#cbe088"/>
      </g>
      <g>
        <path d="M11,75a6.27,6.27,0,0,1,4.29-1.31,6.39,6.39,0,0,1,4,1A5.66,5.66,0,0,1,21,76.73a7,7,0,0,1-.18,5.32l2.07,1.43-.79,1.27-2.17-1.49a6.3,6.3,0,0,1-4.62,1.64,6.39,6.39,0,0,1-4.49-1.53,5.31,5.31,0,0,1-1.61-4.12,5.92,5.92,0,0,1,.69-2.9L7.92,75l.85-1.29,2.07,1.45Zm.59,2.57a2.68,2.68,0,0,0-.57,1.79,2.26,2.26,0,0,0,1.14,2.2,6.7,6.7,0,0,0,3.1.63,8.15,8.15,0,0,0,2.58-.32Zm7.6,3.41a3,3,0,0,0,.43-1.67,2.79,2.79,0,0,0-.38-1.56A2.46,2.46,0,0,0,18,76.8a8.43,8.43,0,0,0-2.55-.33c-.4,0-.79,0-1.16,0a4.6,4.6,0,0,0-1.14.2Z" fill="#cbe088"/>
        <path d="M22.15,63.22,15.42,66.5l6.14.88-.36,2.5L9.43,68.2l.36-2.5,5.34.77-4.78-4.71.44-3.06,4.82,5.15,7-3.84Z" fill="#cbe088"/>
        <path d="M22.44,56.64a6.23,6.23,0,0,1-4.91-.18,6.42,6.42,0,0,1-3.6-3.1A5.31,5.31,0,0,1,14,48.93a5.25,5.25,0,0,1,3.14-3.25,6.49,6.49,0,0,1,4.62.33,6.42,6.42,0,0,1,3.32,2.44,5.62,5.62,0,0,1,.8,2.55,6.2,6.2,0,0,1-.52,2.47A5.44,5.44,0,0,1,22.44,56.64ZM23,49.92a8.36,8.36,0,0,0-2.24-1.26,12.28,12.28,0,0,0-1.59-.55A6.26,6.26,0,0,0,17.44,48q-1.11,0-1.78,1.7a2.24,2.24,0,0,0,.23,2.48,6.8,6.8,0,0,0,2.65,1.73,6.67,6.67,0,0,0,3.24.65,2.4,2.4,0,0,0,1.88-1.7,2.78,2.78,0,0,0,.23-1.59A2.44,2.44,0,0,0,23,49.92Z" fill="#cbe088"/>
        <path d="M33,40l-3.94,5.61-9.73-6.83,1.41-2,8.08,5.68,2.79-4Z" fill="#cbe088"/>
        <path d="M34.5,36.44a6.22,6.22,0,0,1-4.36-2.27,6.41,6.41,0,0,1-1.92-4.34,5.34,5.34,0,0,1,1.95-4,5.26,5.26,0,0,1,4.23-1.59,6.47,6.47,0,0,1,4,2.28,6.4,6.4,0,0,1,2,3.63A5.56,5.56,0,0,1,40,32.8a6.13,6.13,0,0,1-1.53,2A5.44,5.44,0,0,1,34.5,36.44Zm3.39-5.83a8.44,8.44,0,0,0-1.49-2.1,12.28,12.28,0,0,0-1.2-1.18,6.35,6.35,0,0,0-1.51-.84q-1-.44-2.34.77a2.25,2.25,0,0,0-.86,2.34,6.82,6.82,0,0,0,1.65,2.69,6.7,6.7,0,0,0,2.65,2,2.39,2.39,0,0,0,2.43-.72,2.77,2.77,0,0,0,.89-1.34A2.45,2.45,0,0,0,37.88,30.6Z" fill="#cbe088"/>
        <path d="M49.5,27.11a6.8,6.8,0,0,1-2.45.81,5.12,5.12,0,0,1-2.27-.26,5.33,5.33,0,0,1-1.91-1.13,7.27,7.27,0,0,1-1.44-1.95q-1.6-3-.56-5.12a6.69,6.69,0,0,1,2.87-3.09A6.78,6.78,0,0,1,48,15.61l-.42,1.93a6.55,6.55,0,0,0-1.51,0,4.24,4.24,0,0,0-1.4.47q-1.9,1-1.71,2.47a8.53,8.53,0,0,0,1,2.92q1.26,2.37,2.52,2.5a3.94,3.94,0,0,0,2.31-.43,3.78,3.78,0,0,0,.67-.46,5.43,5.43,0,0,0,.57-.56l-1.27-2.39-1.86,1-1.23-1.55,4.43-2.36,2.68,5a9.2,9.2,0,0,1-3.25,2.9Z" fill="#cbe088"/>
        <path d="M56.68,23.92,53.19,12.55l2.44-.75,3.5,11.37Z" fill="#cbe088"/>
        <path d="M69.59,20.87a6.09,6.09,0,0,1-1.43.7,8,8,0,0,1-1.71.39A9.68,9.68,0,0,1,62,21.42l.67-2a10.45,10.45,0,0,0,1.88.49,6.68,6.68,0,0,0,1.83,0A3.86,3.86,0,0,0,68,19.4a1.18,1.18,0,0,0,.6-1.23,1.23,1.23,0,0,0-.55-.91,3.49,3.49,0,0,0-1.51-.45l-1.62-.22a3.67,3.67,0,0,1-2.51-1.12,3.62,3.62,0,0,1-.83-1.85,3.2,3.2,0,0,1,1-2.76,5.26,5.26,0,0,1,3.21-1.4,9.22,9.22,0,0,1,2.4,0,6.28,6.28,0,0,1,2.1.66l-1,1.85A6.47,6.47,0,0,0,66,11.45a2.6,2.6,0,0,0-1.39.52,1.12,1.12,0,0,0-.43,1,1,1,0,0,0,.44.77,3.17,3.17,0,0,0,1.32.38l1.62.19A7,7,0,0,1,69,14.7a4.87,4.87,0,0,1,1.37.8,2.68,2.68,0,0,1,.87,1.88,3.5,3.5,0,0,1-.31,2A3.85,3.85,0,0,1,69.59,20.87Z" fill="#cbe088"/>
        <path d="M82.3,21.25l-4.2-6.19v6.2H75.57V9.37H78.1v5.4l4-5.4h3.09l-4.41,5.51,4.79,6.38Z" fill="#cbe088"/>
      </g>
    </g>
    <g>
      <path d="M127.75,19.12c-.82,3.41-4.45,7.38-5.37,7-1.17-.48.42-7.22,0-7.66s-1.51,0-2.93.27c-1.95.43-3.84.87-4,.39s4.11-5.21,10.26-6C128.82,12.81,128.57,15.73,127.75,19.12Z" fill="#fff"/>
      <path d="M14,122.61c.81-3.41,4.45-7.36,5.35-7,1.19.49-.41,7.23,0,7.67s1.5,0,2.94-.29c1.94-.43,3.84-.85,4-.38s-4.1,5.22-10.26,6C12.92,128.92,13.17,126,14,122.61Z" fill="#fff"/>
    </g>
  </g>
</svg>
