<?xml version="1.0" encoding="UTF-8"?>
<svg width="87px" height="97px" viewBox="0 0 87 97" version="1.1" xmlns="http://www.w3.org/2000/svg" xmlns:xlink="http://www.w3.org/1999/xlink">
    <!-- Generator: Sketch 46.2 (44496) - http://www.bohemiancoding.com/sketch -->
    <title>Nytnorge</title>
    <desc>Created with Sketch.</desc>
    <defs>
        <polygon id="path-1" points="86.894 0.0171 86.894 96.9991 0.0003 96.9991 0.0003 0.0171"></polygon>
        <polygon id="path-3" points="0 97.983 86.894 97.983 86.894 1 0 1"></polygon>
    </defs>
    <g id="Exports" stroke="none" stroke-width="1" fill="none" fill-rule="evenodd">
        <g id="Nytnorge" transform="translate(0.000000, -1.000000)">
            <g id="Group-3" transform="translate(0.000000, 0.983000)">
                <mask id="mask-2" fill="white">
                    <use xlink:href="#path-1"></use>
                </mask>
                <g id="Clip-2"></g>
                <path d="M18.3363,0.0171 C8.2413,0.0221 0.0113,8.2571 0.0003,18.3581 L0.0003,96.9991 L68.5533,96.9991 C78.6553,96.9911 86.8883,88.7651 86.8943,78.6671 L86.8943,0.0171 L18.3363,0.0171" id="Fill-1" fill="#FEFEFE" mask="url(#mask-2)"></path>
            </g>
            <path d="M18.3363,6.879 C11.4763,6.885 5.8863,12.475 5.8783,19.346 L5.8783,59.55 L69.2673,59.55 C75.7363,59.437 80.9803,54.15 80.9853,47.618 L80.9853,10.398 C80.9853,10.289 81.0043,10.19 81.0143,10.084 L81.0143,6.879 L18.3363,6.879" id="Fill-4" fill="#71BE44"></path>
            <path d="M68.5536,92.1075 C75.4186,92.0975 81.0116,86.5105 81.0136,79.6475 L81.0136,65.2875 L40.8686,65.2875 L40.8686,92.1075 L68.5536,92.1075" id="Fill-6" fill="#EC1D24"></path>
            <path d="M21.726,40.5685 L23.899,40.5685 L23.899,51.6075 C23.899,53.1655 22.798,53.8665 21.542,53.8665 C20.263,53.8665 19.394,53.3915 18.82,52.2005 L15.622,45.4375 C15.622,45.4375 15.76,46.0985 15.76,46.4465 L15.76,53.7595 L13.585,53.7595 L13.585,40.5685 L15.622,40.5685 L21.017,51.7425 C21.244,52.2475 21.726,52.1795 21.726,51.7035 L21.726,40.5685" id="Fill-8" fill="#FEFEFE"></path>
            <path d="M30.1689,42.4474 C29.2739,42.4474 28.8229,42.9014 28.8229,43.9274 L28.8229,50.3974 C28.8229,51.4254 29.2739,51.8834 30.1689,51.8834 L32.7949,51.8834 C33.6879,51.8834 34.1419,51.4254 34.1419,50.3974 L34.1419,43.9274 C34.1419,42.9014 33.6879,42.4474 32.7949,42.4474 L30.1689,42.4474 Z M36.3189,43.7034 L36.3189,50.5184 C36.3189,52.4574 35.1709,53.7604 32.9559,53.7604 L29.9819,53.7604 C27.8549,53.7604 26.6469,52.5274 26.6469,50.5184 L26.6469,43.7034 C26.6469,41.7644 27.9509,40.5684 29.9819,40.5684 L32.9559,40.5684 C35.0339,40.5684 36.3189,41.7814 36.3189,43.7034 L36.3189,43.7034 Z" id="Fill-10" fill="#FEFEFE"></path>
            <path d="M45.5351,46.2384 C46.0181,45.9164 46.4751,45.5264 46.4751,44.8944 L46.4751,43.9274 C46.4751,42.9014 46.0181,42.4474 45.1251,42.4474 L41.2381,42.4474 L41.2381,49.0724 L45.5351,46.2384 Z M39.0671,40.5684 L45.2841,40.5684 C47.3681,40.5684 48.6431,41.7814 48.6431,43.7034 L48.6431,45.1174 C48.6431,46.1964 47.9111,46.9704 47.1581,47.4754 L45.1251,48.8224 L48.8751,53.7594 L46.3821,53.7594 L43.4311,49.9434 L41.2381,51.3844 L41.2381,53.7594 L39.0671,53.7594 L39.0671,40.5684 L39.0671,40.5684 Z" id="Fill-12" fill="#FEFEFE"></path>
            <path d="M58.6186,45.9991 L60.7936,45.9991 L60.7936,50.5191 C60.7936,52.4571 59.6466,53.7601 57.4316,53.7601 L54.4606,53.7601 C52.3306,53.7601 51.1186,52.5271 51.1186,50.5191 L51.1186,43.7031 C51.1186,41.7651 52.4246,40.5681 54.4606,40.5681 L59.6746,40.5681 L59.6746,42.4471 L54.6396,42.4471 C53.7506,42.4471 53.2956,42.9011 53.2956,43.9281 L53.2956,50.3971 C53.2956,51.4251 53.7506,51.8831 54.6396,51.8831 L57.2696,51.8831 C58.1606,51.8831 58.6186,51.4251 58.6186,50.3971 L58.6186,48.2351 L55.4416,48.2261 L55.4416,45.9991 L58.6186,45.9991" id="Fill-14" fill="#FEFEFE"></path>
            <path d="M27.9521,13.0704 L27.9521,30.5534 C27.9521,31.0354 27.4691,31.1014 27.2421,30.5984 L18.8811,13.0704 L13.5721,13.0704 L13.5721,36.3524 L18.4881,36.3524 L18.4881,23.7164 C18.4881,23.6334 18.4851,23.5414 18.4761,23.4444 L18.4761,22.4824 L23.6301,33.7364 C24.4901,35.5264 25.7481,36.3524 27.5421,36.5104 L27.5411,36.5144 C27.6001,36.5234 27.6571,36.5234 27.7141,36.5254 C27.8341,36.5304 27.9601,36.5354 28.0841,36.5354 L28.1231,36.5354 L28.1311,36.5354 C28.1551,36.5354 28.1781,36.5434 28.2041,36.5434 C28.6121,36.5434 29.0101,36.4924 29.3871,36.4024 C30.1291,36.2424 30.8301,35.9284 31.4161,35.4284 C32.3271,34.6514 32.8891,33.4294 32.8801,31.9354 L32.8801,13.0704 L27.9521,13.0704" id="Fill-16" fill="#FEFEFE"></path>
            <path d="M71.0209,51.8829 L66.9219,51.8829 C66.0339,51.8829 65.5729,51.4249 65.5729,50.3979 L65.5729,48.2649 L71.0209,48.2649 L71.0209,45.9989 L65.5729,45.9989 L65.5729,43.9279 C65.5729,42.9019 66.0339,42.4469 66.9219,42.4469 L71.0209,42.4469 L71.0209,40.5689 L66.7409,40.5689 C64.7089,40.5689 63.4009,41.7649 63.4009,43.7029 L63.4009,50.5189 C63.4009,52.5279 64.6149,53.7599 66.7409,53.7599 L71.0209,53.7599 L71.0209,51.8829" id="Fill-18" fill="#FEFEFE"></path>
            <polygon id="Fill-20" fill="#FEFEFE" points="60.0219 13.1456 60.0219 18.0726 65.8329 18.0726 65.8329 36.4276 70.8659 36.4276 70.8659 18.0726 76.6349 18.0726 76.6349 13.1456"></polygon>
            <polygon id="Fill-22" fill="#FEFEFE" points="41.8769 13.1671 46.4759 21.8241 51.4759 13.1671 57.4569 13.1671 49.2789 27.3301 49.2789 36.3471 44.0409 36.3471 44.0409 27.3301 35.8979 13.1671"></polygon>
            <mask id="mask-4" fill="white">
                <use xlink:href="#path-3"></use>
            </mask>
            <g id="Clip-25"></g>
            <polygon id="Fill-24" fill="#EC1D24" mask="url(#mask-4)" points="5.878 92.107 21.512 92.107 21.512 65.287 5.878 65.287"></polygon>
            <polygon id="Fill-26" fill="#044DA1" mask="url(#mask-4)" points="27.225 92.107 35.149 92.107 35.149 65.287 27.225 65.287"></polygon>
        </g>
    </g>
</svg>
