<svg id="Layer_1" data-name="Layer 1" xmlns="http://www.w3.org/2000/svg" width="6.13cm" height="6.01cm" viewBox="0 0 173.78 170.38">
  <title>svanen</title>
  <g>
    <path d="M86.89,170.31c48,0,86.69-38.12,86.89-85.16C174,38.61,134.81-.51,86.89,0,38.35.52,0,38.13,0,85.15S38.9,170.31,86.89,170.31Z" transform="translate(0 0.07)" fill="#fff"/>
    <path d="M86.89,85.15" transform="translate(0 0.07)" fill="#fff"/>
    <g>
      <path d="M37,118.43a2.55,2.55,0,1,0-2.55-2.55A2.55,2.55,0,0,0,37,118.43Z" transform="translate(0 0.07)" fill="#00a76d"/>
      <path d="M37,115.88" transform="translate(0 0.07)" fill="#00a76d"/>
    </g>
    <path d="M33.91,152.58a87.27,87.27,0,0,1-12.43-11.45l11.91-16H54.46Z" transform="translate(0 0.07)" fill="#00a76d"/>
    <path d="M51.77,163a86.79,86.79,0,0,1-13.61-7.4l22.9-30.5H80.17Z" transform="translate(0 0.07)" fill="#00a76d"/>
    <path d="M74.13,169.32A87.29,87.29,0,0,1,56.93,165l29.82-39.95h20.41Z" transform="translate(0 0.07)" fill="#00a76d"/>
    <path d="M103,168.77a88.94,88.94,0,0,1-16.11,1.46q-3.37,0-6.68-.25l33.56-44.89h22Z" transform="translate(0 0.07)" fill="#00a76d"/>
    <path d="M163.58,125.15A86.75,86.75,0,0,1,110.83,167l31.49-41.87Z" transform="translate(0 0.07)" fill="#00a76d"/>
    <path d="M173.76,83.16c-.06-2.73-.26-5.41-.57-8.07l-30.8,41.09H149Z" transform="translate(0 0.07)" fill="#00a76d"/>
    <path d="M167.56,53.39q-1.17-2.86-2.54-5.61l-51.2,68.41h6.59Z" transform="translate(0 0.07)" fill="#00a76d"/>
    <path d="M155.61,33q-1.7-2.14-3.52-4.17L86.81,116.18h6.61Z" transform="translate(0 0.07)" fill="#00a76d"/>
    <path d="M136.55,15.2A87.1,87.1,0,0,0,121.62,7L43.52,111.53a25.66,25.66,0,0,1,5.12,3.12c3.34,2.55,11.68,2.63,14.32-.92Z" transform="translate(0 0.07)" fill="#00a76d"/>
    <path d="M8.2,121.24,98.34.66A87.74,87.74,0,0,1,116.55,5L38,110.08c-10.37-1.3-7.37,10.75-29.84,11.16" transform="translate(0 0.07)" fill="#00a76d"/>
    <path d="M0,86.47c0-.46,0-.92,0-1.38C0,46.53,26.14,14,62,3.47Z" transform="translate(0 0.07)" fill="#00a76d"/>
    <path d="M70,1.54A89.09,89.09,0,0,1,86.89-.07q2.67,0,5.3.16L5.79,115.72A83.2,83.2,0,0,1,.53,94.53Z" transform="translate(0 0.07)" fill="#00a76d"/>
    <path d="M8.2,121.24" transform="translate(0 0.07)" fill="#00a76d"/>
    <path d="M18,137a85.18,85.18,0,0,1-7.79-11.83H26.79Z" transform="translate(0 0.07)" fill="#00a76d"/>
    <path d="M86.89,85.08" transform="translate(0 0.07)" fill="#00a76d"/>
  </g>
</svg>
