<svg id="Lager_1" data-name="Lager 1" xmlns="http://www.w3.org/2000/svg" width="50mm" height="34.3mm" viewBox="0 0 141.73 97.24">
  <title>krav</title>
  <g>
    <path d="M141.73,47.47c0,29.12-24.8,49.77-70.87,49.77C31.09,97.24,0,75,0,47.47S31.09,0,70.87,0,141.73,20,141.73,47.47Z" fill="#fff"/>
    <g>
      <polygon points="22.17 36.94 22.17 66.25 29.61 66.25 29.61 52.95 29.94 53.39 39.99 66.25 49.64 66.25 36.79 50.81 48.56 36.94 39.35 36.94 29.94 49.17 29.61 49.62 29.61 36.94 22.17 36.94" fill="#006f51"/>
      <polygon points="117.12 66.25 129.33 36.94 121.24 36.94 113.86 55.24 106.52 36.94 98.42 36.94 110.53 66.25 117.12 66.25" fill="#006f51"/>
      <path d="M72.8,45.89c0-5.69-3.73-9-10.24-9H51.1V66.25h7.45V54.32l.34.53,7.35,11.4H81.79l2.07-5.15h11l1.95,5.15h7.94L93.54,36.94H85.28l-8.53,22c-.08.19-.17.41-.27.65C75.56,62,74.75,63,73.87,63s-1.56-.89-2.52-2.14l0,0-5.19-6.7.28,0C70.29,53.42,72.8,50.19,72.8,45.89Zm16.57-.56h0l3.43,10.21H85.88Zm-29.9,4.9h-.92V42.5h.92c2.39,0,5.57.4,5.57,3.87S61.86,50.23,59.46,50.23Z" fill="#006f51"/>
      <path d="M137.68,48.51c0-24.32-29.58-43.52-66-43.52C40.27,5,15,22.28,9.88,37.39c1.06-8.86,9.95-21.18,24.84-28.07C14.35,17,3.6,31.31,3.6,47.76,3.6,60.88,11.94,72.7,25.27,81c11.92,7.88,28.31,12.75,46.41,12.75a97,97,0,0,0,14.89-1.13c12.83-1.5,22-5.21,29.68-10A56.87,56.87,0,0,0,123,77.66a60.08,60.08,0,0,1-5.73,3.75c-11,5.76-25.82,8.47-42.39,8.47-34.3,0-62.11-15.55-62.11-36.79C12.76,33.33,34.5,18.64,65,16.74c36.24-2.26,50.34,12.79,52,15.22C109.61,20.85,94.39,12.3,64.28,13.32,44.76,14,25.36,21.56,16.47,32.48,24.71,18.19,47.81,8.72,73.23,8.72c35.19,0,63.35,17.07,63.35,40a35,35,0,0,1-4.08,17A31.81,31.81,0,0,0,137.68,48.51Z" fill="#006f51"/>
      <path d="M126.57,66.25a3.64,3.64,0,1,0-3.64-3.64A3.61,3.61,0,0,0,126.57,66.25Zm0-6.68a3,3,0,1,1-3.05,3A3,3,0,0,1,126.57,59.58Z" fill="#006f51"/>
      <path d="M125.76,62.8h.76l1,1.89h.68l-1-1.89a1,1,0,0,0,1.09-1.12c0-.86-.66-1.08-1.41-1.08h-1.72v4.09h.59Zm0-1.61h1c.49,0,.93,0,.93.56s-.76.46-1.31.46h-.63Z" fill="#006f51"/>
    </g>
  </g>
</svg>
