<svg id="Layer_1" data-name="Layer 1" xmlns="http://www.w3.org/2000/svg" width="56.71mm" height="56.71mm" viewBox="0 0 160.76 160.76">
  <title>matmerk-brod-grovt</title>
  <circle cx="80.38" cy="80.38" r="80.38" fill="#fff"/>
  <g>
    <path d="M79,133.68V81.74H27.75A52.71,52.71,0,0,0,79,133.68Z" fill="#ed1c24"/>
    <path d="M79,79.14H27.79A52.72,52.72,0,0,1,79,28.46Z" fill="#ed1c24"/>
    <path d="M125.37,91.82l.74-1a28.25,28.25,0,0,1,2.74-7.23l1-1.87H81.64v51.95a52.65,52.65,0,0,0,40.51-20.52C119,106.34,120,98.91,125.37,91.82Z" fill="#ed1c24"/>
    <path d="M15.52,64.19l-3.2-.74,1.52-6.58,6.58,1.52a13.45,13.45,0,0,1,1.17,3.8,10.67,10.67,0,0,1-.28,3.57,7.9,7.9,0,0,1-1.86,3.79,6.31,6.31,0,0,1-3.34,1.76,10.26,10.26,0,0,1-4.43-.13,9.9,9.9,0,0,1-4.16-1.95,6.53,6.53,0,0,1-2.19-3.39,8.33,8.33,0,0,1,.13-4,9.88,9.88,0,0,1,1.25-3.32A4.58,4.58,0,0,1,8.58,57a6.79,6.79,0,0,1,2.71-.56l-.15,4.3a2.51,2.51,0,0,0-1.51.56,2.58,2.58,0,0,0-.81,1.44,2.74,2.74,0,0,0,.57,2.49,5.82,5.82,0,0,0,3.24,1.63,6,6,0,0,0,3.76,0A2.89,2.89,0,0,0,18,64.78a4,4,0,0,0,.08-1.42,7.25,7.25,0,0,0-.45-1.67l-1.47-.34Z" fill="#ed1c24"/>
    <path d="M23.53,56.54,9.68,49l3.49-6.43A9.63,9.63,0,0,1,15,40.06a3.37,3.37,0,0,1,2.09-.84,4.71,4.71,0,0,1,2.56.64,4.77,4.77,0,0,1,1.75,1.53,4.19,4.19,0,0,1,.69,2A5.05,5.05,0,0,1,21.9,45,4.14,4.14,0,0,1,23,44.28,4.79,4.79,0,0,1,24,44.06,6.41,6.41,0,0,1,25.17,44l5,.27-2.64,4.37-5.07-.24a3.65,3.65,0,0,0-1.44.12,1.71,1.71,0,0,0-.83.77l-.19.34,5.37,2.94Zm-6.11-8.33.88-1.63a6.12,6.12,0,0,0,.36-1.12,1.15,1.15,0,0,0-.1-.86,1.57,1.57,0,0,0-.68-.68,1.54,1.54,0,0,0-1.24-.18A2.44,2.44,0,0,0,15.5,45l-.92,1.69Z" fill="#ed1c24"/>
    <path d="M25,38.43a8.69,8.69,0,0,1-3.09-5.51A6.87,6.87,0,0,1,24,27.5a7,7,0,0,1,5.26-2.56,8.51,8.51,0,0,1,5.64,2.63,10.66,10.66,0,0,1,2.75,3.7A6.39,6.39,0,0,1,38,34.92a7.33,7.33,0,0,1-2,3.56,8.28,8.28,0,0,1-3.32,2.33,6.29,6.29,0,0,1-3.71,0A9.74,9.74,0,0,1,25,38.43Zm3-3.19A5.72,5.72,0,0,0,31,37a2.82,2.82,0,0,0,3-3.18,6.35,6.35,0,0,0-2.16-3.06,5.26,5.26,0,0,0-2.93-1.62,2.64,2.64,0,0,0-2.25.91A2.56,2.56,0,0,0,26,32.29,5.74,5.74,0,0,0,28,35.23Z" fill="#ed1c24"/>
    <path d="M32.31,20.19l3.37-2.89,9.11,7.85L41.14,13.85l3.89-2,4.15,15.7-4,2.61Z" fill="#ed1c24"/>
    <path d="M48.48,9.73,61,5.28l1.3,3.65-4.21,1.5,4,11.19L58,23.08,54,11.89l-4.21,1.5Z" fill="#ed1c24"/>
    <path d="M154.43,92.46l-.6,2.21a24.75,24.75,0,0,1-4.47,9.35l.47.43-.93,2.06c-4.75,10.54-10.1,14-19.85,12.51-1.67,1.22-11.59,7.8-15.08,9.51l-2.89,1.62c1-.66,1.84-1.28,2.7-1.89,1.74-1.2,5.48-3.81,7.41-5.51.55-.48,1.11-1,1.68-1.51,1.51-1.31,2.56-2.32,3.25-3.06l1-1c10.21,2.16,15.25-.63,19.95-11.05l.37-.82-.67-.61-.21-.18c2.41-2.28,4.13-5.54,5.33-10l.24-.88-.77-.5-.16-.1c2.48-2.65,4-6.32,4.69-11.27l.13-.91-.84-.39-.39-.17c2.27-3.27,2.55-7.45,2.19-12.87l-.06-.95-.93-.2a8.05,8.05,0,0,0-2.78-.24A50.87,50.87,0,0,0,150.79,56l-.82-2.6-1.2.38c-6,1.92-7.76,6.41-8.72,11.1a11.52,11.52,0,0,0-3.34-.47h-1l-.26.92a23.74,23.74,0,0,0-1,9.48l-.87-.09-.34.9a24.75,24.75,0,0,0-1.8,8.54l-.63-.15-.45.86a25.45,25.45,0,0,0-2.8,7.79l-.25-.11-.59.79c-5.62,7.46-6.1,15.3-1.44,22.22l-1.82,1.72c-6,5.47-17,13.19-27.4,16.3a54.77,54.77,0,1,1,37.15-67.08q.22-1,.52-2.06l.64-2.29h.66A57.87,57.87,0,0,0,22.56,80.5H3.85c0,.28,0,.55,0,.82a76.59,76.59,0,0,0,153,5.14,20.16,20.16,0,0,1-2.73,5.79ZM144.24,106.3c-3.73,7.73-7.41,9.93-14.84,8.73.79-1.1,1.5-2.19,2.16-3.26s1.33-2.15,2.06-3.11l.31-.4a12.23,12.23,0,0,1,1.3-1.42l.45-.39.53-.42c2-1.5,3.88-2,5.75-1.4a7.56,7.56,0,0,1,2.46,1.33Zm5-11.42c-1.11,3.65-2.61,6.3-4.71,8.11a7.92,7.92,0,0,0-7.25-.43,28.3,28.3,0,0,1,2.39-4.3l.12-.18.09-.12a12.39,12.39,0,0,1,2.7-2.84,6.69,6.69,0,0,1,1.69-.91,4.87,4.87,0,0,1,1.6-.28,7.09,7.09,0,0,1,3.38.93Zm-.39-3a8,8,0,0,0-5.42-.06,8.62,8.62,0,0,0-1.38.64c-.17.1-.34.21-.51.32q.64-1.55,1.52-3.37.42-.87.89-1.8l.18-.37c.16-.31.32-.6.48-.88a14.3,14.3,0,0,1,1.09-1.63,10.4,10.4,0,0,1,.74-.87A6.13,6.13,0,0,1,149.65,82a6.45,6.45,0,0,1,3.46.37l.15.05C152.53,86.71,151.13,89.77,148.82,91.91Zm4-23.27a8.26,8.26,0,0,1,1.75,0c0,.39,0,.8,0,1.17,0,4.12-.34,7.24-2.33,9.71a7.93,7.93,0,0,0-6,1.19,9.61,9.61,0,0,0-.87.65c.33-1.45,1.6-5.67,1.6-5.67.18-.55.36-1.07.51-1.52s.22-.59.33-.87a7.89,7.89,0,0,1,3-3.87A3.66,3.66,0,0,1,152.82,68.64Zm-4.44-12,0,.13a46.92,46.92,0,0,1,2.39,9.91A9.33,9.33,0,0,0,146,71.49a10.57,10.57,0,0,0-1.86-3.87A8,8,0,0,0,142.39,66C143.3,61.28,144.68,58.24,148.37,56.62ZM137.69,67a7.44,7.44,0,0,1,2.63.71,5.37,5.37,0,0,1,1.83,1.48,6.87,6.87,0,0,1,.73,1.17,9.87,9.87,0,0,1,.78,2.24,16.68,16.68,0,0,1,.35,2.64s-.11,1.2-.19,1.84-.62,2.74-1,4.28a8.47,8.47,0,0,0-5.73-6,13.82,13.82,0,0,1-.28-2.78A23.42,23.42,0,0,1,137.69,67Zm-2.45,10.84c0-.12.07-.23.11-.36A6.78,6.78,0,0,1,138.58,79a6.09,6.09,0,0,1,1.51,2.06,11.37,11.37,0,0,1,.88,4.74c0,.3,0,.62,0,.94a10,10,0,0,1-.28,1.83v0a28,28,0,0,1-1.36,4c0-.25-.05-.5-.09-.74A8.64,8.64,0,0,0,134,85c0-.25,0-.5,0-.76A20.8,20.8,0,0,1,135.24,77.82Zm-3.37,9.8.28-.61a7.44,7.44,0,0,1,2.6,1.51,6.25,6.25,0,0,1,1.89,3.39,9.94,9.94,0,0,1,.23,2.14,16.24,16.24,0,0,1-.14,2,10,10,0,0,1-1,3.11c-.3.61-.65,1.22-1,1.83A9.25,9.25,0,0,0,130,93.82,19.48,19.48,0,0,1,131.87,87.62Zm-7.21,18a16.88,16.88,0,0,1,2.86-8.9c.22-.35.44-.7.69-1.06a9,9,0,0,1,1.94,1.39,6.71,6.71,0,0,1,2.11,5s0,.07,0,.1a9.66,9.66,0,0,1-.14,1.51,8.72,8.72,0,0,1-.62,1.81,75,75,0,0,1-4.43,8.05A14.83,14.83,0,0,1,124.66,105.65ZM10.74,100a16.34,16.34,0,0,1-3.19-7,4.3,4.3,0,0,1,.23-3.39l1-.68a.26.26,0,0,1,.14,0l1.88,0,6.64.19,1,0,.21-.17.06-.05A12.83,12.83,0,0,0,16,86.32l-.53-.26a.25.25,0,0,1-.14-.22h0a.25.25,0,0,1,.13-.22s1.5-.85,1.57-.88c1.29-.28,2.63.61,4.09,2.73A18.83,18.83,0,0,1,24,94.22,8.4,8.4,0,0,1,24.08,98,2.48,2.48,0,0,1,22.25,100c-1.21.27-2.53-.38-4-1.92a7.19,7.19,0,0,1-.49,2.38,3.09,3.09,0,0,1-2.12,1.87C14,102.73,12.33,102,10.74,100Zm3.55,8.67-.27.19a.25.25,0,0,1-.33,0l-1-1.16c-.66-1.26,0-1.81.42-2l1.87-.56,2-.47,2.38-.75.32-.4.27-.43a.25.25,0,0,1,.2-.12.24.24,0,0,1,.21.1l1.38,1.81.18.56s0,.07,0,.11a1.19,1.19,0,0,1-.75,1.06l-2.13.59a17.78,17.78,0,0,1,3.34.89,6.3,6.3,0,0,1,3.38,2.68s.27,1.13.27,1.2a1.22,1.22,0,0,1-.63,1.09c-.53.28-1.3.08-2.56-.69l-.25-.15a.25.25,0,0,1-.12-.21.25.25,0,0,1,0-.12l.15-.25a.76.76,0,0,0,.12-.39.72.72,0,0,0-.1-.34c-.23-.43-.95-1.06-3.08-1.64l-3.37-.61A4.15,4.15,0,0,0,14.29,108.71Zm92.81,38.71a.64.64,0,0,1-.13.28l-.09.11a7.84,7.84,0,0,1-3.91,2.73,2.49,2.49,0,0,1-1.94-.29,3.72,3.72,0,0,1-1.4-2.47,12,12,0,0,1-1.64,2.8,6.05,6.05,0,0,1-3.17,2.3,2.61,2.61,0,0,1-2.25-.49,3.39,3.39,0,0,1-1.07-1.7l-1.1,1.23a6.55,6.55,0,0,1-3.9,2.15,3,3,0,0,1-3.32-3l0-.17a18.36,18.36,0,0,1-2.12,1.37,7.84,7.84,0,0,1-4.61,1.19,2.53,2.53,0,0,1-2.24-2.83q0-.12,0-.24l.07-.68a12,12,0,0,1-2.52,2,6.15,6.15,0,0,1-3.78,1,2.63,2.63,0,0,1-1.94-1.24,3.27,3.27,0,0,1-.46-1.74c0-.07,0-.15,0-.23a18.33,18.33,0,0,1-2.39.94,6.6,6.6,0,0,1-4.29.15,6.24,6.24,0,0,1-2.61-2.46,10.74,10.74,0,0,1-1.3-2.82l-.57.77s-.79,1.35-.82,1.34-.05.67-.06.67v.44a.25.25,0,0,1-.3.24l-1.95-.43a.26.26,0,0,1-.11-.06l-.68-.59a.25.25,0,0,1-.09-.19l0-.79a.29.29,0,0,1,0-.13L51.6,145l1.64-2.23-1.49.12-.65,0s-2.85,0-3.87-.17c-.09.29-.25.83-.27.87a3.08,3.08,0,0,1-2.69,1.32,5.78,5.78,0,0,1-3.37-1,4.07,4.07,0,0,1-1.44-1.51,1.68,1.68,0,0,1,0-1.77,2.19,2.19,0,0,1,2-.77l3,.44-.06-.61L44.27,138l-1.1.24-.3,0a21.69,21.69,0,0,1-5,.12c-2.39-.21-4-.71-4.9-1.52a2.48,2.48,0,0,1-.9-1.81h0a3.46,3.46,0,0,1,1.07-2.25l.41-.36a14.37,14.37,0,0,1-3.2.18,5.91,5.91,0,0,1-3.49-1.24,2.69,2.69,0,0,1-1-2.06s0,0,0-.07a3.45,3.45,0,0,1,1-2.26,6.38,6.38,0,0,1,3.67-2,6.22,6.22,0,0,1-1.05-2.66,5.42,5.42,0,0,1-3.9,1.39,7.28,7.28,0,0,1-4.83-2A6.86,6.86,0,0,1,19.44,120a2.23,2.23,0,0,0-1.44.52l-.36.45a.25.25,0,0,1-.21.09.25.25,0,0,1-.2-.12l-.21-.34a3.12,3.12,0,0,1-.54-1.47,1,1,0,0,1,.23-.65c.22-.26.66-.45,2.12-.58,0,0,0-.06,0-.08a4,4,0,0,1,.91-2.68,4.24,4.24,0,0,1,3.69-1.4,6.67,6.67,0,0,1,4,1.77s0-.05.07-.07l.84-.41.1-.06a.25.25,0,0,1,.31,0l.15.15a6.14,6.14,0,0,1,1.53,2.55h.13c2,0,3.26.36,4,1l.92,1.24a.25.25,0,0,1,0,.32l-.37.41a.25.25,0,0,1-.3.06,12.37,12.37,0,0,0-4-1.05l.21,1.17a5,5,0,0,0,2,4,6.54,6.54,0,0,1,3.52,1.63A8.7,8.7,0,0,1,38.27,129l2.56-1.71-.62-.46a2.56,2.56,0,0,1-.92-1.45l0-.27a3.33,3.33,0,0,1,.42-1.45L40,123a.25.25,0,0,1,.46,0l.23.66a4.36,4.36,0,0,0,1.25,1.57,12,12,0,0,0,2.91,2l.47.22a.25.25,0,0,1,0,.44l-7.86,5.24-1.85,1.51c-.34.38-.37.59-.39.55s.19.34.19.36c.23.2.95.55,3.27.72a23.49,23.49,0,0,0,3.47,0l1.73-.12.93-.13c.71-1,2-1.29,3.85-.87a.25.25,0,0,1,.13.08c.3.35,1.21,1.41.65,2.28-.38.59-1.14.83-2.31.76l.05,1.42,0,1.09,2.77.24,2.25-.14,1.13-.09h.13s.9,0,1-.06l.15,0,2.37-3.22-.85-.2c-1-.4-1.2-1-1.2-1.4,0,0,0,0,0-.05s.11-.47.13-.52L56,134a.25.25,0,0,1,.43,0l.24.42a2.24,2.24,0,0,0,1.17,1,9,9,0,0,0,3,.53l.56,0a.25.25,0,0,1,.22.14.25.25,0,0,1,0,.11.25.25,0,0,1,0,.15L56.82,143a19.93,19.93,0,0,1,2.76-.73,6.54,6.54,0,0,1,3.22,0c.51.2.8.79.93,1.84l.06.45a.25.25,0,0,1-.09.22.25.25,0,0,1-.23,0l-.44-.13a8.78,8.78,0,0,0-2.65-.21l-2.51.34c.71,2.06,1.51,3.31,2.4,3.67a2.86,2.86,0,0,0,1.5.17l2.72-.84,2-1a7.06,7.06,0,0,1,1.88-2.07,6.52,6.52,0,0,1,5-1.33,8.62,8.62,0,0,1,3,1.15,2.94,2.94,0,0,1,2.32-.36l1,.17a.25.25,0,0,1,.13.43l-.45.41a4.25,4.25,0,0,0-1,1.55l-.26.62-.65,2.47a3.85,3.85,0,0,0,0,.56,1,1,0,0,0,.13.59l.2.11a4.94,4.94,0,0,0,2.77-.92A20.48,20.48,0,0,0,83.58,148l1.14-6.19c-2.42.14-2.87-1.13-2.92-1.91l0-.63a.25.25,0,0,1,.34-.25l.42.16a6.09,6.09,0,0,0,2.49.32,5.06,5.06,0,0,0,2.33-.67l.56-.34a.25.25,0,0,1,.38.26l-1.83,10.3-.19,1.67c0,.67.29.78.73.75a3.15,3.15,0,0,0,2-1.06,30.93,30.93,0,0,0,2.41-3,7.23,7.23,0,0,1,1-2.24,6.53,6.53,0,0,1,4.21-3,8.7,8.7,0,0,1,3.26,0,2.89,2.89,0,0,1,2-1.14l1-.19a.25.25,0,0,1,.25.1.24.24,0,0,1,.05.15.27.27,0,0,1,0,.12l-.28.54a4.22,4.22,0,0,0-.39,1.8l0,.67s.26,2.52.26,2.54c.17.77.4,1.14.71,1.07s1-.43,2.16-1.7c.19-.11.75-.45,1.1-.11a2.83,2.83,0,0,1,.51,1.35Zm1.29-9.27a4.13,4.13,0,0,1-1.8,2.28l-1,.52a.25.25,0,0,1-.35-.32l.3-.73a5.76,5.76,0,0,0,.34-3.18l0-.26a.25.25,0,0,1,.17-.28l.24-.07c1.08-.36,2.12-.59,2.47.13a.93.93,0,0,1,.08.4A4.76,4.76,0,0,1,108.4,138.15Zm17.52,0a5.47,5.47,0,0,1-2.38,3,2.2,2.2,0,0,1-2.48-.21,8,8,0,0,1-1.9-3l-.25-.59s-.78-1.4-.78-1.42-.17-.1-.24-.07-1,.76-1.8,5.14l-.3,1.58a6.18,6.18,0,0,0-.16,1.31l.11.13.32.28a.25.25,0,0,1,.09.19h0a.25.25,0,0,1-.11.19l-1.14.81a.25.25,0,0,1-.12,0l-1,.11a.24.24,0,0,1-.21-.08s-.59-.64-.65-.74l-.66-2.21-.47-1.65s-.5-1.55-.51-1.59l-.32-1.82a.16.16,0,0,1,0,0,.25.25,0,0,1,.1-.2l.84-.61,1.3-1.09a.25.25,0,0,1,.41.18s.09,1.72.09,1.68l.11.42s.29,1.29.27,1.23l.23.55.4-2.13c.65-2.3,1.57-3.71,2.81-4.29a2.22,2.22,0,0,1,1.8-.13,4.46,4.46,0,0,1,2.17,2.63l.38.85s1,1.85,1,1.87c.17.19.24.16.31.13a2.66,2.66,0,0,0,1-1.48l.29-.94c.3-1.07.56-2,2.15-2.31a.26.26,0,0,1,.25.09.32.32,0,0,1,0,.19A26.74,26.74,0,0,1,125.92,138.11Z" fill="#ed1c24"/>
    <path d="M70,146.12a5.32,5.32,0,0,0-1.5,3.08c-.17,1.14.35,1.37.81,1.44s1.86-.37,5.85-4l.16-.13a7.32,7.32,0,0,0-2.8-1.32A2.89,2.89,0,0,0,70,146.12Z" fill="#ed1c24"/>
    <path d="M21.44,119.56a3.14,3.14,0,0,0,.72,1.19,3.51,3.51,0,0,0,2.8.92,3.85,3.85,0,0,0,2.73-1.38l.55-1A47.35,47.35,0,0,0,21.44,119.56Z" fill="#ed1c24"/>
    <path d="M42.52,142c-.16.25.23.57.58.8a1.91,1.91,0,0,0,1.29.35,1.22,1.22,0,0,0,.92-.59l.16-.48C42.94,141.65,42.55,141.94,42.52,142Z" fill="#ed1c24"/>
    <path d="M36.56,130.25a7.6,7.6,0,0,0-1.65-2.7,3,3,0,0,0-2.68-.61,5.24,5.24,0,0,0-3,1.72c-.78.86-.46,1.35-.1,1.67s2.05.71,7.21-.05Z" fill="#ed1c24"/>
    <path d="M27.07,117.35a4.1,4.1,0,0,0-2.83-1.08,3.11,3.11,0,0,0-2.54,1l-.34.76,6.17-.17Z" fill="#ed1c24"/>
    <path d="M99.51,144.55c-2.45,4.84-3.6,5.74-4.07,5.84s-1,.07-1.27-1.06a5.31,5.31,0,0,1,.33-3.41,2.88,2.88,0,0,1,2-1.8,7.39,7.39,0,0,1,3.09.27Z" fill="#ed1c24"/>
    <path d="M11.64,92.38l3.29.11.12,1.08c0,.06.63,1.7.63,1.7v.06a7.09,7.09,0,0,1-.34,2.54,1.48,1.48,0,0,1-1.13.9A2.39,2.39,0,0,1,12,97.88a6.44,6.44,0,0,1-1.68-3.25,6.88,6.88,0,0,1-.18-1.42c0-.51.11-.77.27-.8Zm8.25.1a1.11,1.11,0,0,0,.6-1.07A10.69,10.69,0,0,1,21.44,94l.19,1.38s0,0,0,.06a1.86,1.86,0,0,1-.2,1s-.55.35-.55.35a2.5,2.5,0,0,1-2.53-1.56,6.29,6.29,0,0,0-.87-2.28,2.32,2.32,0,0,0-.54-.35l.86,0,1.74,0A.91.91,0,0,0,19.9,92.48Z" fill="#ed1c24"/>
  </g>
</svg>
