<?xml version="1.0" encoding="UTF-8"?>
<svg width="63px" height="19px" viewBox="0 0 63 19" version="1.1" xmlns="http://www.w3.org/2000/svg" xmlns:xlink="http://www.w3.org/1999/xlink">
    <!-- Generator: Sketch 46.2 (44496) - http://www.bohemiancoding.com/sketch -->
    <title>Firstprice</title>
    <desc>Created with Sketch.</desc>
    <defs></defs>
    <g id="Exports" stroke="none" stroke-width="1" fill="none" fill-rule="evenodd">
        <g id="Firstprice">
            <path d="M5.3,18.6 C2.7,18.6 0.5,16.4 0.5,13.8 L0.5,5.6 C0.5,3 2.7,0.8 5.3,0.8 L57.3,0.8 C59.9,0.8 62.1,2.9 62.1,5.6 L62.1,13.8 C62.1,16.5 60,18.6 57.3,18.6 L5.3,18.6 Z" id="Shape" fill="#FFFFFF"></path>
            <path d="M31.3,2.9 L56.7,2.9 C58.5,2.9 60,4.4 60,6.2 L60,13.2 C60,15 58.5,16.5 56.7,16.5 L5.9,16.5 C4.1,16.5 2.6,15 2.6,13.2 L2.6,6.2 C2.6,4.4 4.1,2.9 5.9,2.9 L31.3,2.9" id="Shape" fill="#D20924"></path>
            <path d="M57.3,18.6 L5.3,18.6 C2.7,18.6 0.5,16.4 0.5,13.8 L0.5,5.6 C0.5,3 2.7,0.8 5.3,0.8 L57.3,0.8 C59.9,0.8 62.1,2.9 62.1,5.6 L62.1,13.8 C62.1,16.5 60,18.6 57.3,18.6 L57.3,18.6 Z M5.3,2 C3.3,2 1.7,3.6 1.7,5.6 L1.7,13.8 C1.7,15.8 3.3,17.4 5.3,17.4 L57.3,17.4 C59.3,17.4 60.9,15.8 60.9,13.8 L60.9,5.6 C60.9,3.6 59.3,2 57.3,2 L5.3,2 L5.3,2 Z" id="Shape" fill="#D20924"></path>
            <polygon id="Shape" fill="#FFFFFF" points="6.9 4.9 12.1 4.9 12.1 6.5 8.9 6.5 8.9 8.4 11.9 8.4 11.9 10 8.9 10 8.9 13.4 6.9 13.4"></polygon>
            <path d="M12.9,7.2 L14.8,7.2 L14.8,13.4 L12.9,13.4 L12.9,7.2 L12.9,7.2 Z M13.9,6.4 C13.3,6.4 12.8,5.9 12.8,5.4 C12.8,4.8 13.2,4.4 13.9,4.4 C14.6,4.4 15,4.8 15,5.4 C15,6 14.6,6.4 13.9,6.4 L13.9,6.4 L13.9,6.4 Z" id="Shape" fill="#FFFFFF"></path>
            <path d="M16.1,9.2 L16.1,7.2 L17.7,7.2 L17.8,8.3 L17.9,8.3 C18.2,7.4 19,7 19.6,7 L20,7 L20,8.8 C19.8,8.8 19.7,8.7 19.5,8.7 C18.8,8.7 18.3,9.1 18.2,9.7 L18.2,10.1 L18.2,13.2 L16,13.2 L16.1,9.2 L16.1,9.2 Z" id="Shape" fill="#FFFFFF"></path>
            <path d="M20.5,11.7 C20.9,11.9 21.6,12.2 22.2,12.2 C22.8,12.2 23,12 23,11.7 C23,11.4 22.8,11.2 22.1,11 C20.8,10.6 20.3,9.9 20.3,9.2 C20.3,8 21.3,7.2 22.8,7.2 C23.5,7.2 24.2,7.4 24.5,7.6 L24.2,8.9 C23.9,8.8 23.4,8.6 22.9,8.6 C22.4,8.6 22.2,8.8 22.2,9.1 C22.2,9.4 22.4,9.6 23.2,9.8 C24.4,10.2 24.9,10.8 24.9,11.7 C24.9,12.9 24,13.7 22.2,13.7 C21.4,13.7 20.7,13.5 20.2,13.3 L20.5,11.7 L20.5,11.7 Z" id="Shape" fill="#FFFFFF"></path>
            <path d="M27.8,5.5 L27.8,7.2 L29.2,7.2 L29.2,8.6 L27.8,8.6 L27.8,10.8 C27.8,11.5 28,11.9 28.6,11.9 C28.9,11.9 29,11.9 29.2,11.8 L29.2,13.3 C29,13.4 28.5,13.5 28,13.5 C27.4,13.5 26.9,13.3 26.5,13 C26.1,12.6 26,12 26,11.2 L26,8.7 L25.2,8.7 L25.2,7.3 L26,7.3 L26,6.1 L27.8,5.5 L27.8,5.5 Z" id="Shape" fill="#FFFFFF"></path>
            <path d="M33.5,6.5 C33.6,6.5 33.9,6.4 34.3,6.4 C35.3,6.4 35.8,6.9 35.8,7.6 C35.8,8.4 35.2,9 34.2,9 C33.9,9 33.7,9 33.6,8.9 L33.6,6.5 L33.5,6.5 Z M31.6,13.4 L33.5,13.4 L33.5,10.4 C33.7,10.4 33.9,10.5 34.1,10.5 C35.2,10.5 36.2,10.2 36.8,9.6 C37.3,9.1 37.6,8.4 37.6,7.6 C37.6,6.8 37.3,6.1 36.7,5.7 C36.1,5.2 35.3,5 34.1,5 C32.9,5 32.1,5.1 31.6,5.2 L31.6,13.4 L31.6,13.4 Z" id="Shape" fill="#FFFFFF"></path>
            <path d="M38.3,9.3 L38.3,7.3 L39.9,7.3 L40,8.4 L40,8.4 C40.3,7.5 41,7.1 41.6,7.1 L42,7.1 L42,9 L41.5,9 C40.8,9 40.3,9.4 40.2,10 L40.2,10.4 L40.2,13.5 L38.3,13.5 L38.3,9.3 L38.3,9.3 Z" id="Shape" fill="#FFFFFF"></path>
            <path d="M42.7,7.3 L44.6,7.3 L44.6,13.4 L42.7,13.4 L42.7,7.3 L42.7,7.3 Z M43.6,6.5 C43,6.5 42.6,6.1 42.6,5.5 C42.6,4.9 43,4.5 43.7,4.5 C44.3,4.5 44.7,4.9 44.8,5.5 C44.7,6.1 44.3,6.5 43.6,6.5 L43.6,6.5 L43.6,6.5 Z" id="Shape" fill="#FFFFFF"></path>
            <path d="M50.3,13.2 C50,13.4 49.3,13.5 48.6,13.5 C46.6,13.5 45.4,12.3 45.4,10.4 C45.4,8.6 46.6,7.2 48.9,7.2 C49.4,7.2 49.9,7.3 50.3,7.4 L50,8.9 C49.8,8.8 49.4,8.7 48.9,8.7 C47.9,8.7 47.3,9.4 47.3,10.4 C47.3,11.5 48,12.1 49,12.1 C49.4,12.1 49.8,12 50.1,11.9 L50.3,13.2 L50.3,13.2 Z" id="Shape" fill="#FFFFFF"></path>
            <path d="M52.3,9.7 C52.3,9.2 52.7,8.5 53.5,8.5 C54.4,8.5 54.6,9.3 54.6,9.7 L52.3,9.7 L52.3,9.7 Z M56.2,11 C56.2,10.9 56.3,10.6 56.3,10.2 C56.3,8.7 55.6,7.2 53.6,7.2 C51.5,7.2 50.5,8.9 50.5,10.4 C50.5,12.3 51.7,13.5 53.7,13.5 C54.5,13.5 55.3,13.4 55.9,13.1 L55.7,11.8 C55.2,12 54.7,12.1 54,12.1 C53.1,12.1 52.4,11.7 52.3,10.9 L56.2,11 L56.2,11 Z" id="Shape" fill="#FFFFFF"></path>
        </g>
    </g>
</svg>
