<svg xmlns="http://www.w3.org/2000/svg" width="5.12cm" height="5.12cm" viewBox="0 0 145 145">
  <title>nokkelhull</title>
  <g id="Lager_5" data-name="Lager 5">
    <g>
      <g>
        <g>
          <path d="M-.75,71A71.75,71.75,0,1,0,71-.75,71.83,71.83,0,0,0-.75,71Z" transform="translate(1.5 1.5)" fill="#00984a"/>
          <path d="M71-1.5A72.52,72.52,0,0,0,42.78,137.8,72.52,72.52,0,0,0,99.22,4.2,72,72,0,0,0,71-1.5ZM0,71a71,71,0,0,1,142,0h0A71,71,0,1,1,0,71Z" transform="translate(1.5 1.5)" fill="#fff"/>
        </g>
        <g>
          <circle cx="72.5" cy="52.88" r="23.5" fill="#fff"/>
          <polygon points="108 114.25 37 114.25 61 72.65 84 72.52 108 114.25" fill="#fff"/>
        </g>
      </g>
      <path d="M140.8,8.58A7.61,7.61,0,1,1,133.16,1,7.61,7.61,0,0,1,140.8,8.58Zm1,0a8.61,8.61,0,1,0-8.61,8.61A8.63,8.63,0,0,0,141.8,8.58ZM130,13.07h1.22V9h3.12c2,0,1.42,1.75,1.62,2.87l.2,1.2h1.45c-.53-.82-.35-1-.45-2.27C137,9.15,137,9,136,8.38A2.37,2.37,0,0,0,137.23,6c-.12-2.15-1.55-2.42-3-2.42H130Zm4.27-8.41c.75,0,1.92.2,1.75,1.82-.12,1.22-.92,1.45-1.75,1.45h-3V4.66Z" transform="translate(1.5 1.5)" fill="#fff"/>
    </g>
  </g>
</svg>
