<?xml version="1.0" encoding="UTF-8"?>
<svg width="141px" height="60px" viewBox="0 0 141 60" version="1.1" xmlns="http://www.w3.org/2000/svg" xmlns:xlink="http://www.w3.org/1999/xlink">
    <!-- Generator: Sketch 46.2 (44496) - http://www.bohemiancoding.com/sketch -->
    <title>Logo</title>
    <desc>Created with Sketch.</desc>
    <defs></defs>
    <g id="Exports" fill-rule="evenodd">
        <g id="Logo">
            <path d="M3.85990484,17.8068229 L3.85990484,17.8068229 L0.726918741,19.5776439 C0.0671781568,19.9490128 -0.18712943,20.7746267 0.146388717,21.4586168 L18.3033251,58.5955043 C18.4763376,58.9490391 18.7858842,59.2155015 19.1600498,59.3308986 C19.5342155,59.4473448 19.9386063,59.4032841 20.2794201,59.2102562 L23.7740649,57.2275241 C38.1330634,49.076292 55.1654183,44.4027091 70.5009996,44.4027091 C85.8376231,44.4027091 102.868936,49.077341 117.227934,57.2275241 L120.724664,59.2102562 C121.064435,59.4032841 121.468826,59.4473448 121.841949,59.3308986 C122.217157,59.2144525 122.525662,58.9490391 122.698674,58.5955043 L140.856653,21.4586168 C141.190171,20.7746267 140.935863,19.9479637 140.277165,19.5776439 L137.142094,17.8057738 C116.23676,5.99120804 93.8139181,0 70.5009996,0 C47.1891234,0 24.7683659,5.99120804 3.85990484,17.8068229" id="Clip-2" fill="#CE0029"></path>
            <path d="M104.095977,17.5612975 C104.095977,17.5612975 106.596321,31.8065459 106.641137,32.0604196 C106.551504,32.2975082 104.04178,38.967461 104.04178,38.967461 C103.977161,39.1332133 103.994879,39.243365 104.044907,39.3493206 C104.095977,39.4552761 104.206455,39.5423485 104.326313,39.5864092 C106.256549,40.2735465 108.293094,41.0435599 109.773081,41.6436249 C110.015924,41.742237 110.291076,41.6257908 110.390089,41.3824078 C110.390089,41.3824078 113.033221,34.8635203 113.129107,34.6295788 C113.334429,34.4732682 124.851228,25.7429524 124.851228,25.7429524 C124.970044,25.6527329 125.043001,25.4869807 125.036747,25.3159831 C125.030494,25.15128 124.920016,25.004411 124.772017,24.9330746 C122.941836,24.0382224 120.994924,23.1024568 119.17725,22.3188055 C119.00528,22.2432729 118.807254,22.2789411 118.669677,22.4048288 C118.669677,22.4048288 112.788293,27.8473761 111.603262,28.9425995 C111.481319,27.3301872 110.870564,19.3321186 110.870564,19.3321186 C110.855973,19.1411888 110.730903,18.9785838 110.55268,18.917738 C108.878835,18.3418016 106.747446,17.650468 104.701521,17.0231273 C104.542057,16.9759194 104.333608,17.001097 104.227299,17.0976109 C104.126202,17.1930758 104.063667,17.3871528 104.095977,17.5612975 Z" id="Fill-4" fill="#FFFFFF"></path>
            <path d="M77.6923907,12.4383485 L76.0018706,32.9370712 C75.9904059,33.0650571 76.0320957,33.1909448 76.1144329,33.2885078 C76.1978125,33.3850218 76.3155861,33.4448185 76.4416976,33.4521619 C77.3057181,33.5088114 79.6007398,33.6766618 82.2897299,34.0197059 C82.4179259,34.0364909 82.546122,33.9997737 82.6472197,33.9200447 C82.7462329,33.8382177 82.8098098,33.7207225 82.8223167,33.5927366 C82.8223167,33.5927366 83.4674658,26.8441039 83.6967596,24.4396478 C84.8202988,26.7580806 88.7443483,34.8621048 88.7443483,34.8621048 C88.8089674,34.995336 88.9319522,35.0908009 89.0778664,35.1201747 C90.6506129,35.4390903 92.5860604,35.8692068 94.5288036,36.3318443 C94.6517885,36.3601691 94.782069,36.3381387 94.8894201,36.2709986 C94.9957291,36.2049075 95.0718129,36.0968538 95.1009957,35.9730642 L99.6712366,15.8047969 C99.7296023,15.5477761 99.5701389,15.2928534 99.3179158,15.2341057 C97.4095666,14.784057 95.055137,14.2710644 93.1738862,13.8975974 C92.9185363,13.8451442 92.6704822,14.0108964 92.61837,14.2668682 C92.61837,14.2668682 90.915343,22.4485231 90.4525865,24.6683439 C89.4895529,22.5062217 85.2017602,12.8810538 85.2017602,12.8810538 C85.1340143,12.7278904 84.9922691,12.6229839 84.8255101,12.6020026 C81.9468315,12.2484678 79.021252,12.0533418 78.1947524,12.0008886 C77.9373181,11.9851526 77.7132356,12.1802786 77.6923907,12.4383485" id="Fill-5" fill="#FFFFFF"></path>
            <path d="M69.2052206,12.0001419 C69.2052206,12.0001419 65.7387163,12.0651839 65.7355896,12.0651839 C61.2383058,12.228838 56.1490274,12.7166531 51.4026472,13.4394586 C51.1462551,13.478274 50.9690736,13.7185098 51.0045099,13.9755306 L53.7424855,34.4490757 C53.7602036,34.5770616 53.8279495,34.6914097 53.9311317,34.7679914 C54.0332716,34.8456222 54.1635521,34.876045 54.2896637,34.8540147 C59.8448253,33.949721 65.3510015,33.4514153 70.4632093,33.478691 C70.7237704,33.47974 70.9363882,33.2699271 70.9395149,33.0066119 L70.9791202,29.2320774 C70.9801625,29.1040915 70.931177,28.9834491 70.8436285,28.8921804 C70.7539955,28.8019609 70.6341374,28.7537039 70.5080258,28.7495077 C67.7033467,28.6592881 62.5973923,28.9855472 60.0418095,29.2541077 C59.9605144,28.5900498 59.6707705,26.2128694 59.5863488,25.5236339 C61.7417098,25.2896925 67.0019163,25.0095923 67.235379,25.0127395 C67.469884,25.0148376 67.7054312,24.7903378 67.7002199,24.5259735 L67.6303896,21.0483243 C67.6272628,20.9213875 67.5761929,20.8017941 67.4844754,20.7136727 C67.3938001,20.6266003 67.2697731,20.5825396 67.1467883,20.5804415 C65.8075044,20.5636564 61.5895421,20.8395604 59.0610577,21.092385 L58.6024702,17.3115561 C61.1257435,17.066075 63.7876352,16.8824887 65.9044332,16.8038088 C65.8877573,16.8038088 69.2344034,16.7450612 69.2344034,16.7450612 C69.4939222,16.7398159 69.7013288,16.5268558 69.7013288,16.2656387 L69.6877796,12.4753682 C69.6867374,12.3473823 69.6356674,12.2256908 69.5449922,12.1365203 C69.4532747,12.0463008 69.3313321,11.9969947 69.2052206,12.0001419" id="Fill-6" fill="#FFFFFF"></path>
            <path d="M43.1013607,15.0124821 C40.8782538,15.5328181 38.5842743,16.1360303 36.2840413,16.8084807 C36.1151977,16.8567377 35.9870017,16.9962633 35.9515654,17.1693589 C35.9515654,17.1693589 34.0088222,26.6633937 33.7295007,28.0292759 C32.6695384,27.1302275 25.3071253,20.8851458 25.3071253,20.8851458 C25.1716335,20.7718468 24.9861141,20.742473 24.8224817,20.8085641 C22.4472072,21.7789489 20.2428607,22.7419902 18.2730191,23.6756577 C18.0395564,23.7847604 17.9363742,24.0627625 18.0405986,24.2988021 L26.2503563,43.0225074 C26.3014262,43.1400027 26.398355,43.2312713 26.5161286,43.2774301 C26.6349444,43.3214908 26.7673094,43.3172946 26.8829985,43.2627432 C28.1962262,42.6595311 29.9784638,41.9178424 32.3287245,41.002009 C32.4485826,40.9558501 32.5507225,40.8645815 32.5944968,40.74289 C32.638271,40.6211985 32.64244,40.483771 32.5934545,40.369423 C32.5934545,40.3683739 30.0264071,34.3058295 29.099852,32.1195788 C31.0446796,33.4928044 36.5435601,37.3774907 36.5435601,37.3774907 C36.6696716,37.4666612 36.8280928,37.4886915 36.9719225,37.4383364 C37.1157522,37.3879813 37.2272723,37.269437 37.2700043,37.1246661 C37.2700043,37.1246661 39.2023251,30.6362015 39.8776993,28.3670747 C40.5072148,30.6424958 42.2852834,37.0764092 42.2852834,37.0764092 C42.3551138,37.3281847 42.6146326,37.4771518 42.8658135,37.4089626 C44.8460775,36.8655472 47.0129032,36.310592 48.5189461,35.9560081 C48.6440154,35.9276834 48.7513665,35.8479545 48.8180702,35.7388518 C48.8837315,35.6276509 48.9024919,35.4954688 48.8712246,35.3716791 L43.6683415,15.3576243 C43.6026801,15.107947 43.3525415,14.9537345 43.1013607,15.0124821" id="Fill-7" fill="#FFFFFF"></path>
        </g>
    </g>
</svg>
