<?xml version="1.0" encoding="UTF-8"?>
<svg width="50px" height="44px" viewBox="0 0 50 44" version="1.1" xmlns="http://www.w3.org/2000/svg" xmlns:xlink="http://www.w3.org/1999/xlink">
    <!-- Generator: Sketch 46.2 (44496) - http://www.bohemiancoding.com/sketch -->
    <title>Profil</title>
    <desc>Created with Sketch.</desc>
    <defs></defs>
    <g id="Menu"  fill-rule="evenodd">
        <g id="Profil" >
            <g id="Group" transform="translate(16.000000, 9.000000)">
                <path d="M8.946,1.891 C7.863,1.891 6.845,2.313 6.079,3.079 C5.313,3.845 4.891,4.863 4.891,5.946 C4.891,7.029 5.313,8.046 6.079,8.812 C7.611,10.345 10.281,10.345 11.813,8.812 C12.579,8.046 13.001,7.029 13.001,5.946 C13.001,4.863 12.579,3.845 11.813,3.079 C11.047,2.313 10.029,1.891 8.946,1.891 M8.946,11.891 C7.358,11.891 5.864,11.273 4.742,10.15 C3.619,9.027 3,7.534 3,5.946 C3,4.358 3.619,2.865 4.742,1.742 C5.864,0.619 7.358,0 8.946,0 C10.534,0 12.028,0.619 13.15,1.742 C14.273,2.865 14.892,4.358 14.892,5.946 C14.892,7.534 14.273,9.027 13.15,10.15 C12.027,11.273 10.534,11.891 8.946,11.891" id="Fill-1-Copy"></path>
                <path d="M8.938,15.8954553 C7.603,15.8954553 6.31,16.2624553 5.164,16.9924553 C3.115,18.2954553 1.891,20.5224553 1.891,22.9484553 L1.891,25.0014553 C1.891,25.2664553 2.106,25.4814553 2.371,25.4814553 L15.524,25.4814553 C15.787,25.4814553 16,25.2674553 16,25.0044553 L16,22.6624553 C16,20.0684553 14.56,17.7194553 12.332,16.6774553 C11.214,16.1554553 10.062,15.8954553 8.938,15.8954553 M15.524,27.3724553 L2.371,27.3724553 C1.063,27.3724553 0,26.3084553 0,25.0014553 L0,22.9484553 C0,19.8734553 1.551,17.0494553 4.148,15.3964553 C6.815,13.6994553 10.088,13.5414553 13.132,14.9644553 C16.023,16.3154553 17.891,19.3364553 17.891,22.6624553 L17.891,25.0044553 C17.891,26.3104553 16.83,27.3724553 15.524,27.3724553" id="Fill-4-Copy"></path>
            </g>
        </g>
    </g>
</svg>
