<?xml version="1.0" encoding="UTF-8"?>
<svg width="62px" height="39px" viewBox="0 0 62 39" version="1.1" xmlns="http://www.w3.org/2000/svg" xmlns:xlink="http://www.w3.org/1999/xlink">
    <!-- Generator: Sketch 46.2 (44496) - http://www.bohemiancoding.com/sketch -->
    <title>Artboard 3</title>
    <desc>Created with Sketch.</desc>
    <defs></defs>
    <g id="Page-1" stroke="none" stroke-width="1" fill="none" fill-rule="evenodd">
        <g id="Artboard-3" fill-rule="nonzero" fill="#000000">
            <g id="noun_1138078_cc">
                <g id="Group">
                    <path d="M60.9666667,0.205263158 L1.03333333,0.205263158 C0.413333333,0.205263158 0,0.615789474 0,1.23157895 L0,37.7684211 C0,38.3842105 0.413333333,38.7947368 1.03333333,38.7947368 L60.9666667,38.7947368 C61.5866667,38.7947368 62,38.3842105 62,37.7684211 L62,1.23157895 C62,0.615789474 61.5866667,0.205263158 60.9666667,0.205263158 Z M2.06666667,2.25789474 L40.0933333,2.25789474 L40.0933333,36.7421053 L2.06666667,36.7421053 L2.06666667,2.25789474 Z M59.9333333,36.7421053 L42.16,36.7421053 L42.16,2.25789474 L59.9333333,2.25789474 L59.9333333,36.7421053 Z" id="Shape"></path>
                    <path d="M25.73,10.3657895 C25.3166667,9.95526316 24.6966667,9.95526316 24.2833333,10.3657895 L8.37,27.0947368 C7.95666667,27.5052632 7.95666667,28.1210526 8.37,28.5315789 C8.57666667,28.7368421 8.78333333,28.8394737 9.09333333,28.8394737 C9.40333333,28.8394737 9.61,28.7368421 9.81666667,28.5315789 L25.8333333,11.9052632 C26.2466667,11.4947368 26.1433333,10.7763158 25.73,10.3657895 Z" id="Shape"></path>
                    <path d="M11.9866667,17.8578947 C14.1566667,17.8578947 15.9133333,16.1131579 15.9133333,13.9578947 C15.9133333,11.8026316 14.1566667,10.0578947 11.9866667,10.0578947 C9.81666667,10.0578947 8.06,11.8026316 8.06,13.9578947 C8.06,16.1131579 9.92,17.8578947 11.9866667,17.8578947 Z M11.9866667,12.2131579 C13.02,12.2131579 13.8466667,13.0342105 13.8466667,14.0605263 C13.8466667,15.0868421 13.02,15.9078947 11.9866667,15.9078947 C10.9533333,15.9078947 10.1266667,15.0868421 10.1266667,14.0605263 C10.1266667,13.0342105 11.0566667,12.2131579 11.9866667,12.2131579 Z" id="Shape"></path>
                    <path d="M22.2166667,21.1421053 C20.0466667,21.1421053 18.29,22.8868421 18.29,25.0421053 C18.29,27.1973684 20.0466667,28.9421053 22.2166667,28.9421053 C24.3866667,28.9421053 26.1433333,27.1973684 26.1433333,25.0421053 C26.1433333,22.8868421 24.3866667,21.1421053 22.2166667,21.1421053 Z M22.2166667,26.7868421 C21.1833333,26.7868421 20.3566667,25.9657895 20.3566667,24.9394737 C20.3566667,23.9131579 21.1833333,23.0921053 22.2166667,23.0921053 C23.25,23.0921053 24.0766667,23.9131579 24.0766667,24.9394737 C24.0766667,25.9657895 23.25,26.7868421 22.2166667,26.7868421 Z" id="Shape"></path>
                </g>
            </g>
        </g>
    </g>
</svg>
