<?xml version="1.0" encoding="UTF-8"?>
<svg width="62px" height="42px" viewBox="0 0 62 42" version="1.1" xmlns="http://www.w3.org/2000/svg" xmlns:xlink="http://www.w3.org/1999/xlink">
    <!-- Generator: Sketch 46.2 (44496) - http://www.bohemiancoding.com/sketch -->
    <title>Artboard 3</title>
    <desc>Created with Sketch.</desc>
    <defs></defs>
    <g id="Page-1"  fill-rule="evenodd">
        <g id="Artboard-3" fill-rule="nonzero"  >
            <g id="noun_1087639_cc">
                <g id="Group">
                    <g id="Shape">
                        <path d="M20.561,11.538 L18.664,11.54 C18.14,11.539 17.717,11.965 17.716,12.487 L17.722,18.175 C17.725,18.696 18.15,19.124 18.673,19.122 L20.569,19.12 C21.094,19.119 21.517,18.692 21.515,18.169 L21.508,12.483 C21.507,11.958 21.084,11.536 20.561,11.538 L20.561,11.538 Z"></path>
                        <path d="M57.513,0.108 L20.546,0.162 L18.65,0.164 L4.43,0.183 C2.336,0.188 0.637,1.883 0.641,3.979 L0.645,7.771 L0.652,11.562 L0.659,15.355 C3.802,15.352 6.349,17.892 6.355,21.035 C6.358,24.176 3.816,26.724 0.674,26.731 L0.678,30.521 L0.682,34.313 L0.689,38.104 C0.692,40.197 2.39,41.895 4.487,41.89 L18.706,41.871 L20.6,41.868 L57.571,41.818 C59.664,41.815 61.361,40.111 61.357,38.02 L61.355,36.124 L61.346,30.436 L61.341,26.643 C58.198,26.646 55.65,24.104 55.646,20.963 C55.64,17.821 58.185,15.273 61.326,15.267 L61.321,11.477 L61.317,9.58 L61.31,3.893 C61.308,1.799 59.605,0.105 57.513,0.108 L57.513,0.108 Z M57.531,12.284 C54.186,13.749 51.848,17.085 51.854,20.973 C51.858,24.854 54.208,28.182 57.553,29.643 L57.564,36.13 C57.566,37.175 56.692,38.08 55.646,38.082 L21.543,38.075 L21.54,35.231 C21.54,34.709 21.113,34.286 20.591,34.286 L18.695,34.288 C18.172,34.29 17.747,34.714 17.748,35.239 L17.751,38.082 L6.375,38.098 C5.327,38.098 4.479,37.248 4.477,36.204 L4.467,29.714 C7.81,28.246 10.15,24.913 10.143,21.031 C10.138,17.143 7.79,13.814 4.444,12.357 L4.434,5.871 C4.431,4.822 5.28,3.974 6.329,3.972 L17.704,3.957 L17.705,6.799 C17.708,7.319 18.133,7.748 18.659,7.746 L20.555,7.744 C21.078,7.742 21.501,7.316 21.499,6.793 L21.496,3.96 L55.621,3.96 C56.67,3.959 57.518,4.749 57.52,5.796 L57.531,12.284 L57.531,12.284 Z"></path>
                        <path d="M20.575,22.911 L18.679,22.913 C18.156,22.915 17.734,23.338 17.732,23.863 L17.742,29.55 C17.744,30.073 18.167,30.498 18.69,30.496 L20.589,30.494 C21.111,30.495 21.535,30.065 21.535,29.546 L21.525,23.859 C21.526,23.335 21.098,22.908 20.575,22.911 L20.575,22.911 Z"></path>
                    </g>
                    <path d="M25.552,16.982 C25.546,16.074 25.745,15.214 26.141,14.395 C26.536,13.578 27.139,12.948 27.95,12.508 C28.764,12.07 29.725,11.846 30.836,11.847 C32.469,11.843 33.76,12.307 34.703,13.236 C35.646,14.171 36.115,15.414 36.121,16.968 C36.124,18.53 35.651,19.779 34.71,20.715 C33.771,21.647 32.484,22.117 30.848,22.12 C29.737,22.119 28.778,21.899 27.964,21.462 C27.15,21.025 26.547,20.397 26.151,19.58 C25.75,18.763 25.553,17.897 25.552,16.982 Z M29.295,17.005 C29.298,18.105 29.478,18.906 29.832,19.402 C30.064,19.731 30.402,19.892 30.846,19.894 C31.291,19.894 31.623,19.727 31.842,19.399 C32.2,18.9 32.377,18.103 32.373,16.999 C32.373,15.906 32.194,15.104 31.839,14.602 C31.615,14.282 31.282,14.122 30.837,14.123 C30.394,14.122 30.057,14.284 29.827,14.604 C29.471,15.104 29.293,15.901 29.295,17.005 Z M40.916,11.83 L44.946,11.825 L33.689,32.707 L29.691,32.714 L40.916,11.83 Z M39.651,27.531 C39.649,26.615 39.841,25.751 40.234,24.938 C40.623,24.125 41.228,23.496 42.043,23.047 C42.861,22.603 43.819,22.38 44.922,22.378 C46.562,22.376 47.859,22.843 48.8,23.776 C49.744,24.714 50.213,25.958 50.219,27.514 C50.221,29.071 49.752,30.318 48.814,31.254 C47.872,32.192 46.58,32.661 44.938,32.662 C43.834,32.664 42.873,32.444 42.057,32.004 C41.24,31.56 40.634,30.93 40.24,30.117 C39.85,29.309 39.651,28.445 39.651,27.531 Z M43.395,27.55 C43.399,28.654 43.577,29.451 43.934,29.951 C44.155,30.267 44.489,30.43 44.932,30.43 C45.377,30.429 45.713,30.266 45.947,29.948 C46.3,29.45 46.477,28.649 46.475,27.547 C46.472,26.446 46.294,25.644 45.936,25.138 C45.705,24.817 45.371,24.66 44.926,24.661 C44.481,24.661 44.147,24.824 43.925,25.154 C43.57,25.649 43.395,26.451 43.395,27.55 Z" id="Shape"></path>
                </g>
            </g>
        </g>
    </g>
</svg>
