<?xml version="1.0" encoding="UTF-8"?>
<svg width="62px" height="42px" viewBox="0 0 62 42" version="1.1" xmlns="http://www.w3.org/2000/svg" xmlns:xlink="http://www.w3.org/1999/xlink">
    <!-- Generator: Sketch 46.2 (44496) - http://www.bohemiancoding.com/sketch -->
    <title>Artboard 3</title>
    <desc>Created with Sketch.</desc>
    <defs></defs>
    <g id="Page-1"   fill-rule="evenodd">
        <g id="Artboard-3" fill-rule="nonzero">
            <g id="noun_1087639_cc">
                <g id="Group">
                    <g id="Shape">
                        <path d="M20.561,11.538 L18.664,11.54 C18.14,11.539 17.717,11.965 17.716,12.487 L17.722,18.175 C17.725,18.696 18.15,19.124 18.673,19.122 L20.569,19.12 C21.094,19.119 21.517,18.692 21.515,18.169 L21.508,12.483 C21.507,11.958 21.084,11.536 20.561,11.538 L20.561,11.538 Z"></path>
                        <path d="M57.513,0.108 L20.546,0.162 L18.65,0.164 L4.43,0.183 C2.336,0.188 0.637,1.883 0.641,3.979 L0.645,7.771 L0.652,11.562 L0.659,15.355 C3.802,15.352 6.349,17.892 6.355,21.035 C6.358,24.176 3.816,26.724 0.674,26.731 L0.678,30.521 L0.682,34.313 L0.689,38.104 C0.692,40.197 2.39,41.895 4.487,41.89 L18.706,41.871 L20.6,41.868 L57.571,41.818 C59.664,41.815 61.361,40.111 61.357,38.02 L61.355,36.124 L61.346,30.436 L61.341,26.643 C58.198,26.646 55.65,24.104 55.646,20.963 C55.64,17.821 58.185,15.273 61.326,15.267 L61.321,11.477 L61.317,9.58 L61.31,3.893 C61.308,1.799 59.605,0.105 57.513,0.108 L57.513,0.108 Z M57.531,12.284 C54.186,13.749 51.848,17.085 51.854,20.973 C51.858,24.854 54.208,28.182 57.553,29.643 L57.564,36.13 C57.566,37.175 56.692,38.08 55.646,38.082 L21.543,38.075 L21.54,35.231 C21.54,34.709 21.113,34.286 20.591,34.286 L18.695,34.288 C18.172,34.29 17.747,34.714 17.748,35.239 L17.751,38.082 L6.375,38.098 C5.327,38.098 4.479,37.248 4.477,36.204 L4.467,29.714 C7.81,28.246 10.15,24.913 10.143,21.031 C10.138,17.143 7.79,13.814 4.444,12.357 L4.434,5.871 C4.431,4.822 5.28,3.974 6.329,3.972 L17.704,3.957 L17.705,6.799 C17.708,7.319 18.133,7.748 18.659,7.746 L20.555,7.744 C21.078,7.742 21.501,7.316 21.499,6.793 L21.496,3.96 L55.621,3.96 C56.67,3.959 57.518,4.749 57.52,5.796 L57.531,12.284 L57.531,12.284 Z"></path>
                        <path d="M20.575,22.911 L18.679,22.913 C18.156,22.915 17.734,23.338 17.732,23.863 L17.742,29.55 C17.744,30.073 18.167,30.498 18.69,30.496 L20.589,30.494 C21.111,30.495 21.535,30.065 21.535,29.546 L21.525,23.859 C21.526,23.335 21.098,22.908 20.575,22.911 L20.575,22.911 Z"></path>
                    </g>
                </g>
            </g>
        </g>
    </g>
</svg>
