<?xml version="1.0" encoding="UTF-8"?>
<svg width="44px" height="44px" viewBox="0 0 44 44" version="1.1" xmlns="http://www.w3.org/2000/svg" xmlns:xlink="http://www.w3.org/1999/xlink">
    <!-- Generator: Sketch 46.2 (44496) - http://www.bohemiancoding.com/sketch -->
    <title>Artboard 2</title>
    <desc>Created with Sketch.</desc>
    <defs></defs>
    <g id="Page-1"   fill-rule="evenodd">
        <g id="Artboard-2" fill-rule="nonzero"  >
            <g id="noun_705100_cc">
                <g id="Group" transform="translate(0.000000, 0.637820)">
                    <path d="M4.322324,3.68451 C1.605407,6.40142 1.605409,10.86709 4.322328,13.584 C7.03925,16.30091 11.504905,16.30091 14.221825,13.58399 C16.938743,10.86708 16.938737,6.40143 14.221822,3.68451 C11.504909,0.9676 7.039253,0.96758 4.322324,3.68451 L4.322324,3.68451 Z M7.150755,6.51294 C8.339066,5.32462 10.205103,5.32465 11.393394,6.51294 C12.58169,7.70122 12.581709,9.56725 11.393395,10.75558 C10.205083,11.9439 8.339049,11.94386 7.150752,10.75558 C5.96246,9.56728 5.962439,7.70125 7.150755,6.51294 L7.150755,6.51294 Z M1.493939,39.0399 C0.712833,39.8209 0.712852,41.0872 1.493936,41.8683 C2.274901,42.6493 3.54128,42.6493 4.322358,41.8683 L42.506108,3.68453 C43.287156,2.90346 43.287105,1.6371 42.506108,0.8561 C41.725038,0.07503 40.458728,0.07505 39.677678,0.85609 L1.493939,39.0399 Z M29.7782,29.1404 C27.061253,31.8573 27.061251,36.3229 29.778198,39.0399 C32.495122,41.7568 36.960767,41.7568 39.677669,39.0398 C42.394615,36.323 42.394593,31.8573 39.677647,29.1403 C36.960795,26.4235 32.495101,26.4234 29.7782,29.1404 Z M32.606619,31.9688 C33.794922,30.7805 35.660957,30.7805 36.849244,31.9687 C38.037527,33.1571 38.037574,35.0232 36.849225,36.2114 C35.660946,37.3998 33.794909,37.3997 32.606603,36.2114 C31.418318,35.0231 31.418269,33.1571 32.606619,31.9688 L32.606619,31.9688 Z" id="Shape"></path>
                </g>
            </g>
        </g>
    </g>
</svg>
