<?xml version="1.0" encoding="UTF-8"?>
<svg width="50px" height="44px" viewBox="0 0 50 44" version="1.1" xmlns="http://www.w3.org/2000/svg" xmlns:xlink="http://www.w3.org/1999/xlink">
    <!-- Generator: Sketch 46.2 (44496) - http://www.bohemiancoding.com/sketch -->
    <title>Fordeler</title>
    <desc>Created with Sketch.</desc>
    <defs></defs>
    <g id="Menu"  fill-rule="evenodd">
        <g id="Fordeler"  >
            <g transform="translate(12.000000, 9.000000)">
                <path d="M13.0186679,1.87881539 C12.5948071,1.87881539 12.1691349,1.90323536 11.7398399,1.95207529 C6.59735733,2.5419114 2.45112885,6.8417039 1.88416969,12.1746488 C1.54725466,15.3285814 2.41490143,18.4054971 4.32770932,20.8381014 C6.24413996,23.2782196 8.95576252,24.7828652 11.9626386,25.0740263 C12.384688,25.1172309 12.799492,24.9650757 13.0911228,24.6626438 L23.7818351,13.5759792 C24.0752772,13.2716688 24.2183755,12.8452587 24.1785254,12.4056993 C23.8977629,9.28745743 22.448666,6.47540441 20.0956949,4.48799485 C18.0796388,2.78235414 15.6053059,1.87881539 13.0186679,1.87881539 M12.1021142,26.9599991 C12.0006774,26.9599991 11.8974292,26.9543637 11.7959924,26.9449714 C8.30004618,26.6049703 5.14826044,24.8580035 2.92208534,22.0252875 C0.701344351,19.1982068 -0.30758936,15.6272563 0.0818554299,11.9680183 C0.743005887,5.76722539 5.56125305,0.770524623 11.5424005,0.0848871125 C15.0637059,-0.318981558 18.5143679,0.727320068 21.2404814,3.03031072 C23.9720291,5.34081521 25.6566042,8.6074553 25.982651,12.2310026 C26.0732196,13.2303427 25.7363045,14.2052629 25.0624745,14.9040496 L14.3717622,25.9907143 C13.7703869,26.6143626 12.9552699,26.9599991 12.1021142,26.9599991" id="Fill-1"></path>
                <path d="M7.40500177,17.2628726 L7.40500177,17.2628726 L7.40500177,17.2628726 C7.72089682,17.5781827 8.23243674,17.5782053 8.54835965,17.2629231 L16.55424,9.27328082 L16.55424,9.27328082 C16.8693715,8.9587885 16.8698897,8.44837755 16.5553973,8.13324605 C16.5548946,8.13274228 16.5543912,8.13223918 16.5538871,8.13173674 L16.5538871,8.13173674 L16.5538871,8.13173674 C16.2374881,7.81636973 15.7255419,7.81655062 15.4093659,8.13214116 L7.40500177,16.1216824 L7.40500177,16.1216824 C7.0898708,16.4362298 7.08939772,16.946685 7.40394512,17.261816 C7.40429701,17.2621685 7.40464923,17.2625207 7.40500177,17.2628726 Z" id="Fill-1"></path>
                <path d="M15.4252834,14.6137269 C15.2182914,14.6137269 15.0112994,14.6912052 14.8528211,14.8493899 C14.5390988,15.1641454 14.5390988,15.6758247 14.8528211,15.9905802 C15.1697776,16.3053356 15.6807892,16.3053356 15.9977457,15.9905802 C16.3114679,15.6758247 16.3114679,15.1641454 15.9977457,14.8493899 C15.8392674,14.6912052 15.6322754,14.6137269 15.4252834,14.6137269 M15.4252834,17.8403736 C14.8043073,17.8403736 14.1833313,17.6047106 13.7095136,17.1317704 C12.7634955,16.1875041 12.7634955,14.652466 13.7095136,13.7081997 C14.6555318,12.7639334 16.1950349,12.7639334 17.1410531,13.7081997 C18.0870713,14.652466 18.0870713,16.1875041 17.1410531,17.1317704 C16.6672355,17.6047106 16.0462594,17.8403736 15.4252834,17.8403736" id="Fill-2"></path>
                <path d="M9.18076686,9.09747098 C8.97377484,9.09747098 8.76678283,9.17494924 8.60830457,9.33313402 C8.2945823,9.64788946 8.2945823,10.1595688 8.60830457,10.4743242 C8.92526109,10.7890797 9.43627263,10.7890797 9.75322915,10.4743242 C10.0669514,10.1595688 10.0669514,9.64788946 9.75322915,9.33313402 C9.59475089,9.17494924 9.38775887,9.09747098 9.18076686,9.09747098 M9.18076686,12.3241177 C8.55979082,12.3241177 7.93881477,12.0884547 7.46499712,11.6155145 C6.51897893,10.6712482 6.51897893,9.13621011 7.46499712,8.1919438 C8.41101531,7.2476775 9.95051841,7.2476775 10.8965366,8.1919438 C11.8425548,9.13621011 11.8425548,10.6712482 10.8965366,11.6155145 C10.4227189,12.0884547 9.8017429,12.3241177 9.18076686,12.3241177" id="Fill-5"></path>
            </g>
        </g>
    </g>
</svg>
