<?xml version="1.0" encoding="UTF-8"?>
<svg width="42px" height="41px" viewBox="0 0 42 41" version="1.1" xmlns="http://www.w3.org/2000/svg" xmlns:xlink="http://www.w3.org/1999/xlink">
    <!-- Generator: Sketch 46.2 (44496) - http://www.bohemiancoding.com/sketch -->
    <title>Artboard 4</title>
    <desc>Created with Sketch.</desc>
    <defs></defs>
    <g id="Page-1" stroke="none" stroke-width="1" fill="none" fill-rule="evenodd">
        <g id="Artboard-4" fill-rule="nonzero" fill="#000000">
            <g id="noun_827233_cc">
                <g id="Group">
                    <path d="M32.6458875,40.5335691 C33.2927148,40.5174073 33.9009715,40.2213885 34.3140378,39.7217344 C34.727104,39.2220804 34.9046146,38.5676177 34.8008625,37.9268636 L32.8751625,26.1660509 L41.3268375,17.7786064 C41.9283054,17.1810587 42.14262,16.2943608 41.8807722,15.4867764 C41.6189244,14.6791919 40.9256529,14.0887032 40.0888875,13.9605522 L28.3360125,12.1511924 L23.0021625,1.494368 C22.6223354,0.734308521 21.8474556,0.254423344 21,0.254423344 C20.1525444,0.254423344 19.3776646,0.734308521 18.9978375,1.494368 L13.6639875,12.1511924 L1.9111125,13.9605522 C1.07434712,14.0887032 0.381075602,14.6791919 0.119227782,15.4867764 C-0.142620039,16.2943608 0.0716946221,17.1810587 0.6731625,17.7786064 L9.1248375,26.1660509 L7.19913675,37.9268636 C7.06101752,38.765894 7.40682322,39.6112688 8.09259648,40.1110623 C8.77836974,40.6108558 9.68660677,40.6794308 10.4392125,40.28824 L21.0000375,34.8142182 L31.5607875,40.28824 C31.8961713,40.4602596 32.2693802,40.544638 32.6458875,40.5335691 L32.6458875,40.5335691 Z M29.6503875,34.2315709 L22.0240125,30.2754436 C21.3813143,29.9439573 20.6186857,29.9439573 19.9759875,30.2754436 L12.3496125,34.2315709 L13.7404125,25.7367436 C13.8566239,25.0167703 13.6173166,24.2849946 13.0985625,23.7740364 L7.00046175,17.7172778 L15.4827375,16.4292591 C16.2009729,16.3203941 16.8219824,15.8688282 17.1486375,15.2179029 L21.0000375,7.52045855 L24.8514375,15.2179029 C25.1780778,15.8688085 25.7990549,16.3203713 26.5172625,16.4292591 L34.9995375,17.7172778 L28.9014375,23.7740364 C28.3826834,24.2849946 28.1433761,25.0167703 28.2595875,25.7367436 L29.6503875,34.2315709 L29.6503875,34.2315709 Z" id="Shape"></path>
                </g>
            </g>
        </g>
    </g>
</svg>
