<?xml version="1.0" encoding="UTF-8"?>
<svg width="50px" height="44px" viewBox="0 0 50 44" version="1.1" xmlns="http://www.w3.org/2000/svg" xmlns:xlink="http://www.w3.org/1999/xlink">
    <!-- Generator: Sketch 46.2 (44496) - http://www.bohemiancoding.com/sketch -->
    <title>Search</title>
    <desc>Created with Sketch.</desc>
    <defs></defs>
    <g id="Menu"  fill-rule="evenodd">
        <g id="Search"  >
            <path d="M16.6977261,27.2269207 C12.9685023,23.4977329 12.9685023,17.427874 16.6977261,13.6986862 C18.5628408,11.8325841 21.0131289,10.9015439 23.4624115,10.9015439 C25.9126996,10.9015439 28.3619823,11.8325841 30.2270969,13.6986862 C33.9573263,17.427874 33.9573263,23.4977329 30.2270969,27.2269207 C26.4968676,30.9581194 20.4279555,30.9581194 16.6977261,27.2269207 M37.721741,33.3772151 L32.2098496,27.865377 C36.0235315,23.364009 35.8164082,16.5983836 31.5713871,12.3534035 C27.1001392,7.88219883 19.8246839,7.88219883 15.3534359,12.3534035 C10.882188,16.8246082 10.882188,24.1009987 15.3534359,28.5722034 C17.5895626,30.8083084 20.5254844,31.9253555 23.4624115,31.9253555 C26.1017247,31.9253555 28.7350052,31.0154297 30.8655594,29.2106596 L36.3774508,34.7224978 C36.5624541,34.9085047 36.8057736,35 37.0490932,35 C37.2924127,35 37.5357322,34.9085047 37.721741,34.7224978 C38.092753,34.3514893 38.092753,33.749229 37.721741,33.3772151" id="Fill-1-Copy-2"></path>
        </g>
    </g>
</svg>
