<?xml version="1.0" encoding="UTF-8"?>
<svg width="48px" height="48px" viewBox="0 0 48 48" version="1.1" xmlns="http://www.w3.org/2000/svg" xmlns:xlink="http://www.w3.org/1999/xlink">
    <!-- Generator: Sketch 46.2 (44496) - http://www.bohemiancoding.com/sketch -->
    <title>Artboard</title>
    <desc>Created with Sketch.</desc>
    <defs></defs>
    <g id="Page-1"   fill-rule="evenodd">
        <g id="Artboard" fill-rule="nonzero"  >
            <g id="noun_925566_cc">
                <path d="M24,47.7241379 C10.9241379,47.7241379 0.275862069,37.0758621 0.275862069,24 C0.275862069,10.9241379 10.9241379,0.275862069 24,0.275862069 C37.0758621,0.275862069 47.7241379,10.9241379 47.7241379,24 C47.7241379,37.0758621 37.0758621,47.7241379 24,47.7241379 Z M24,3.5862069 C12.7448276,3.5862069 3.5862069,12.7448276 3.5862069,24 C3.5862069,35.2551724 12.7448276,44.4137931 24,44.4137931 C35.2551724,44.4137931 44.4137931,35.2551724 44.4137931,24 C44.4137931,12.7448276 35.2551724,3.5862069 24,3.5862069 Z M24,20.1931034 C26.0965517,20.1931034 27.8068966,21.9034483 27.8068966,24 C27.8068966,26.0965517 26.0965517,27.8068966 24,27.8068966 C21.9034483,27.8068966 20.1931034,26.0965517 20.1931034,24 C20.1931034,21.9034483 21.9034483,20.1931034 24,20.1931034 Z M39.3931034,22.3448276 L34.262069,22.3448276 C33.9862069,20.6896552 33.3793103,19.2 32.4413793,17.8758621 L36.0275862,14.2896552 C36.6344828,13.6275862 36.6344828,12.6896552 36.0275862,12.0275862 C35.4206897,11.3655172 34.3724138,11.3103448 33.7103448,11.9724138 L30.1241379,15.5586207 C28.8551724,14.6206897 27.3103448,13.9586207 25.6551724,13.737931 L25.6551724,8.60689655 C25.6551724,7.66896552 24.937931,6.95172414 24,6.95172414 C23.062069,6.95172414 22.3448276,7.66896552 22.3448276,8.60689655 L22.3448276,13.737931 C20.6896552,14.0137931 19.2,14.6206897 17.8758621,15.5586207 L14.2896552,11.9724138 C13.6275862,11.3655172 12.6896552,11.3655172 12.0275862,11.9724138 C11.3655172,12.5793103 11.3103448,13.6275862 11.9724138,14.2896552 L15.5586207,17.8758621 C14.6206897,19.1448276 13.9586207,20.6896552 13.737931,22.3448276 L8.60689655,22.3448276 C7.66896552,22.3448276 6.95172414,23.062069 6.95172414,24 C6.95172414,24.937931 7.66896552,25.6551724 8.60689655,25.6551724 L13.737931,25.6551724 C14.0137931,27.3103448 14.6206897,28.8 15.5586207,30.1241379 L11.9724138,33.7103448 C11.6413793,34.0413793 11.4758621,34.4275862 11.4758621,34.8689655 C11.4758621,35.8068966 12.1931034,36.5241379 13.1310345,36.5241379 C13.5724138,36.5241379 14.0137931,36.3586207 14.2896552,36.0275862 L17.8758621,32.4413793 C19.1448276,33.3793103 20.6896552,34.0413793 22.3448276,34.262069 L22.3448276,39.3931034 C22.3448276,40.3310345 23.062069,41.0482759 24,41.0482759 C24.937931,41.0482759 25.6551724,40.3310345 25.6551724,39.3931034 L25.6551724,34.262069 C27.3103448,33.9862069 28.8,33.3793103 30.1241379,32.4413793 L33.7103448,36.0275862 C34.0413793,36.3586207 34.4275862,36.5241379 34.8689655,36.5241379 C35.3103448,36.5241379 35.7517241,36.3586207 36.0275862,36.0275862 C36.6896552,35.3655172 36.6896552,34.3172414 36.0275862,33.7103448 L32.4413793,30.1241379 C33.3793103,28.8551724 34.0413793,27.3103448 34.262069,25.6551724 L39.3931034,25.6551724 C40.3310345,25.6551724 41.0482759,24.937931 41.0482759,24 C41.0482759,23.062069 40.3310345,22.3448276 39.3931034,22.3448276 Z M31.1172414,24 C31.1172414,27.9172414 27.9724138,31.1172414 24,31.1172414 C24,31.1172414 24,31.1172414 23.9448276,31.1172414 C23.8896552,31.1172414 23.9448276,31.1172414 23.8896552,31.1172414 C19.9724138,31.1172414 16.7724138,27.9172414 16.7724138,24 C16.7724138,22.0137931 17.5448276,20.2482759 18.8689655,18.9793103 C18.8689655,18.9793103 18.8689655,18.9793103 18.8689655,18.9793103 C18.8689655,18.9793103 18.8689655,18.9793103 18.8689655,18.9793103 C20.137931,17.7103448 21.9586207,16.8827586 23.8896552,16.8827586 L23.8896552,16.8827586 C25.8758621,16.8827586 27.6413793,17.6551724 28.9103448,18.9793103 C28.9103448,18.9793103 28.9103448,18.9793103 28.9103448,18.9793103 C30.3448276,20.2482759 31.1172414,22.0137931 31.1172414,24 C31.1172414,24 31.1172414,24 31.1172414,24 Z" id="Shape"></path>
            </g>
        </g>
    </g>
</svg>
