<?xml version="1.0" encoding="UTF-8"?>
<svg width="40px" height="39px" viewBox="0 0 40 39" version="1.1" xmlns="http://www.w3.org/2000/svg" xmlns:xlink="http://www.w3.org/1999/xlink">
    <!-- Generator: Sketch 46.2 (44496) - http://www.bohemiancoding.com/sketch -->
    <title>Artboard 4</title>
    <desc>Created with Sketch.</desc>
    <defs></defs>
    <g id="Page-1"   fill-rule="evenodd">
        <g id="Artboard-4" fill-rule="nonzero" >
            <g id="noun_748518_cc">
                <g id="Group">
                    <path d="M31.6021208,38.5110471 C32.0172769,38.4598543 32.3935125,38.2409241 32.6435718,37.9050303 C32.893631,37.5691364 32.9957883,37.1454619 32.9263515,36.7322647 L30.9701208,24.8236529 L39.5325823,16.3369318 C39.9434444,15.9291834 40.0902051,15.3244875 39.9120788,14.7732975 C39.7339524,14.2221075 39.2612722,13.8182851 38.6898131,13.7290859 L26.7716592,11.9051171 L21.3693515,1.11202 C21.1090985,0.593563061 20.579281,0.266385507 19.9999669,0.266385507 C19.4206528,0.266385507 18.8908353,0.593563061 18.6305823,1.11202 L13.2282746,11.9051171 L1.31012077,13.7290859 C0.738674931,13.8183088 0.26601763,14.2221404 0.0879089376,14.7733262 C-0.0901997543,15.324512 0.0565691357,15.9291941 0.467428462,16.3369318 L9.02981308,24.8236529 L7.07350538,36.7322647 C6.97659187,37.3082808 7.21436269,37.8894879 7.68693225,38.2317255 C8.15950181,38.5739631 8.78499966,38.6179402 9.30065923,38.3451824 L19.9999669,32.7979294 L30.6992746,38.3451824 C30.9762429,38.4915597 31.2913237,38.5494442 31.6021208,38.5110471 L31.6021208,38.5110471 Z M29.4050438,34.2148529 L20.7072746,29.7076765 C20.2639308,29.4766724 19.7360031,29.4766724 19.2926592,29.7076765 L10.59489,34.2148529 L12.18989,24.5372706 C12.2703429,24.0456479 12.107682,23.5454829 11.7535823,23.1956706 L4.78619769,16.2916612 L14.4621977,14.8295435 C14.9553589,14.7559615 15.3819732,14.4466885 15.60589,14.0004265 L19.9999669,5.22726941 L24.3940438,14.0004265 C24.6179607,14.4466885 25.044575,14.7559615 25.5377362,14.8295435 L35.2137362,16.2916612 L28.2463515,23.1956706 C27.8922518,23.5454829 27.729591,24.0456479 27.8100438,24.5372706 L29.4050438,34.2148529 L29.4050438,34.2148529 Z" id="Shape"></path>
                </g>
            </g>
        </g>
    </g>
</svg>
