<?xml version="1.0" encoding="UTF-8"?>
<svg width="18px"   viewBox="0 0 18 14" version="1.1" xmlns="http://www.w3.org/2000/svg" xmlns:xlink="http://www.w3.org/1999/xlink">
    <!-- Generator: Sketch 46.1 (44463) - http://www.bohemiancoding.com/sketch -->
    <title>Payment</title>
    <desc>Created with Sketch.</desc>
    <defs></defs>
    <g id="Exports"    fill-rule="evenodd">
        <g id="Payment"  >
            <g id="Group">
                <path d="M16.5,8.85 L5.2,8.85 C4.85,8.85 4.5,8.55 4.5,8.1 L4.5,7.7 C5.25,7.1 5.7,6.05 5.9,5.55 L7.15,5.55 C8.1,5.55 9,5.05 9,4.1 L9,3.75 L17.25,3.75 L17.25,8.1505 C17.25,8.55 16.9,8.85 16.5,8.85 L16.5,8.85 Z M13.5,10.35 C13.5,10.7505 13.15,11.1 12.75,11.1 L7.85,11.1 C7.65,11.1 7.45,11.2505 7.45,11.45 C7.45,11.6505 7.6,11.8 7.85,11.8 L9.75,11.8 C10.15,11.8 10.5,12.1505 10.5,12.55 C10.5,12.95 10.15,13.3 9.75,13.3 L4.1,13.3 C2.25,13.3 0.75,11.8 0.75,10.0005 L0.75,7.55 C0.75,3.35 3.9,3 4.85,3 L7.1,3 C7.55,3 8.2,3.2 8.2,3.75 L8.2,4.05 C8.2,4.6505 7.45,4.8 7.1,4.8 L5.6,4.8 C5.45,4.8 5.3,4.9005 5.25,5.05 C5.05,5.7 4.35,7.35 3.35,7.35 C3.15,7.4005 3,7.55 3,7.7505 C3,7.95 3.15,8.1 3.35,8.1 C3.5,8.1 3.6,8.1 3.75,8.05 L3.75,8.1 C3.75,8.9005 4.4,9.55 5.25,9.55 L12.8,9.55 C13.15,9.6 13.5,9.95 13.5,10.35 L13.5,10.35 Z M4.5,1.5 C4.5,1.1 4.85,0.75 5.25,0.75 L16.5,0.75 C16.9,0.75 17.25,1.1 17.25,1.5 L17.25,2.95 L8.75,2.95 C8.4,2.45 7.75,2.2 7.1,2.2 L4.5,2.2 L4.5,1.5 Z M16.5,0 L5.25,0 C4.4,0 3.75,0.6505 3.75,1.45 L3.75,2.3 C2.25,2.6505 0,3.75 0,7.5 L0,9.95 C0,12.2 1.85,14.0005 4.1,14.0005 L9.75,14.0005 C10.6,14.0005 11.25,13.35 11.25,12.55 C11.25,12.3 11.15,12.05 11.05,11.8 L12.75,11.8 C13.6,11.8 14.25,11.1505 14.25,10.35 C14.25,10.1 14.15,9.85 14.05,9.6 L16.5,9.6 C17.35,9.6 18,8.95 18,8.1505 L18,1.5 C18,0.7 17.35,0 16.5,0 L16.5,0 Z" id="Fill-1"></path>
                <rect id="Rectangle-4" x="13" y="5" width="3" height="1" rx="0.5"></rect>
            </g>
        </g>
    </g>
</svg>
