<?xml version="1.0" encoding="UTF-8"?>
<svg width="12px" height="16px" viewBox="0 0 12 16" version="1.1" xmlns="http://www.w3.org/2000/svg" xmlns:xlink="http://www.w3.org/1999/xlink">
    <!-- Generator: Sketch 46.2 (44496) - http://www.bohemiancoding.com/sketch -->
    <title>Pickup</title>
    <desc>Created with Sketch.</desc>
    <defs></defs>
    <g id="Exports" stroke="none" stroke-width="1" fill="none" fill-rule="evenodd">
        <g id="Pickup" fill="#231F20">
            <g id="Group">
                <path d="M5.99978604,3.85585907 C4.81741673,3.85585907 3.85585907,4.81784466 3.85585907,6.00021396 C3.85585907,7.18215534 4.81741673,8.14414093 5.99978604,8.14414093 C7.18215534,8.14414093 8.14414093,7.18215534 8.14414093,6.00021396 C8.14414093,4.81784466 7.18215534,3.85585907 5.99978604,3.85585907 M5.99978604,9 C4.34583839,9 3,7.65416161 3,6.00021396 C3,4.34583839 4.34583839,3 5.99978604,3 C7.65416161,3 9,4.34583839 9,6.00021396 C9,7.65416161 7.65416161,9 5.99978604,9" id="Fill-1"></path>
                <path d="M5.9977928,0.898260612 C4.67947211,0.898260612 3.43826402,1.40504847 2.4758812,2.34366087 C1.44117808,3.35274776 0.871328946,4.71600259 0.871328946,6.18294919 C0.871328946,7.27867032 1.19372066,8.32950324 1.80408658,9.22232967 C2.55255815,10.3176019 4.68470008,13.339476 5.88887668,15.0438812 C5.96076132,15.1453285 6.03961659,15.1457774 6.11150123,15.0434323 C7.07824069,13.6756887 9.41165961,10.37057 10.196727,9.2214319 C10.8981468,8.19573638 11.2140035,6.98599921 11.1103154,5.72239619 C10.8972755,3.12112461 8.82612656,1.05088051 6.29230198,0.906789371 C6.19384181,0.900953904 6.09538164,0.898260612 5.9977928,0.898260612 L5.9977928,0.898260612 Z M6.00040679,16 C5.6740941,16 5.37697093,15.843789 5.18440723,15.5722154 C3.97892363,13.8660147 1.84373205,10.8396518 1.09177517,9.73899293 C0.377285434,8.69444436 0,7.46450749 0,6.18294919 C0,4.46687305 0.666566644,2.87154618 1.87684255,1.69188411 C3.08624713,0.512222034 4.67163014,-0.0856888795 6.34022508,0.00992300084 C9.30535748,0.17915154 11.7293946,2.60221694 11.9785947,5.646984 C12.0975311,7.10225966 11.7180673,8.55529091 10.9090384,9.73854404 C10.1209214,10.8926198 7.78401714,14.2026762 6.81597068,15.5722154 C6.62384265,15.843789 6.32671948,16 6.00040679,16 Z" id="Fill-3"></path>
            </g>
        </g>
    </g>
</svg>
