<?xml version="1.0" encoding="UTF-8"?>
<svg viewBox="0 0 13 13" version="1.1" xmlns="http://www.w3.org/2000/svg" xmlns:xlink="http://www.w3.org/1999/xlink">
    <!-- Generator: Sketch 46.1 (44463) - http://www.bohemiancoding.com/sketch -->
    <title>Plus</title>
    <desc>Created with Sketch.</desc>
    <defs></defs>
    <g id="Exports" stroke="none" stroke-width="1"  fill-rule="evenodd">
        <g id="Plus" fill-rule="nonzero"  >
            <path d="M7,6 L7,0.5 C7,0.223857625 6.77614237,0 6.5,0 C6.22385763,0 6,0.223857625 6,0.5 L6,6 L0.5,6 C0.223857625,6 0,6.22385763 0,6.5 C0,6.77614237 0.223857625,7 0.5,7 L6,7 L6,12.5 C6,12.7761424 6.22385763,13 6.5,13 C6.77614237,13 7,12.7761424 7,12.5 L7,7 L12.5,7 C12.7761424,7 13,6.77614237 13,6.5 C13,6.22385763 12.7761424,6 12.5,6 L7,6 Z" id="Combined-Shape"></path>
        </g>
    </g>
</svg>
