<?xml version="1.0" encoding="UTF-8"?>
<svg width="54px" height="54px" viewBox="0 0 54 54" version="1.1" xmlns="http://www.w3.org/2000/svg" xmlns:xlink="http://www.w3.org/1999/xlink">
    <!-- Generator: Sketch 46.2 (44496) - http://www.bohemiancoding.com/sketch -->
    <title>Salg</title>
    <desc>Created with Sketch.</desc>
    <defs></defs>
    <g id="Exports"  fill-rule="evenodd">
        <g id="Salg"  >
            <g id="Page-1">
                <path d="M30.4326,30.433 C29.6546,31.211 29.6546,32.477 30.4326,33.256 C31.2106,34.034 32.4766,34.034 33.2546,33.256 C34.0336,32.477 34.0336,31.211 33.2546,30.433 C32.4766,29.655 31.2106,29.655 30.4326,30.433" id="Fill-1"></path>
                <path d="M21.2598,21.2602 C22.0378,20.4822 22.0378,19.2162 21.2598,18.4382 C20.4818,17.6592 19.2158,17.6592 18.4368,18.4382 C17.6588,19.2162 17.6588,20.4822 18.4368,21.2602 C19.2158,22.0382 20.4818,22.0382 21.2598,21.2602" id="Fill-3"></path>
                <g id="Group-7" transform="translate(0.000000, -0.000400)">
                    <path d="M35.019,18.7909 L18.79,35.0199 C18.206,35.6049 17.258,35.6049 16.673,35.0199 C16.088,34.4359 16.088,33.4879 16.673,32.9029 L32.902,16.6739 C33.487,16.0899 34.435,16.0899 35.019,16.6739 C35.603,17.2589 35.603,18.2069 35.019,18.7909 M35.372,35.3729 C33.423,37.3219 30.264,37.3219 28.316,35.3729 C26.367,33.4249 26.367,30.2659 28.316,28.3169 C30.264,26.3679 33.423,26.3679 35.372,28.3169 C37.32,30.2659 37.32,33.4249 35.372,35.3729 M16.32,16.3209 C18.269,14.3729 21.428,14.3729 23.376,16.3209 C25.325,18.2699 25.325,21.4289 23.376,23.3769 C21.428,25.3259 18.269,25.3259 16.32,23.3769 C14.372,21.4289 14.372,18.2699 16.32,16.3209 M44.042,6.1419 C38.36,1.5059 31.184,-0.6191 23.868,0.1569 C11.451,1.4799 1.481,11.4539 0.158,23.8709 C-0.622,31.1939 1.503,38.3599 6.139,44.0409 C10.787,49.7349 17.349,53.2609 24.614,53.9669 C24.825,53.9869 25.04,53.9989 25.25,53.9999 C27.022,54.0069 28.709,53.3249 29.957,52.0769 L52.078,29.9569 C53.472,28.5619 54.161,26.6119 53.968,24.6129 C53.258,17.3479 49.736,10.7899 44.042,6.1419" id="Fill-5"></path>
                </g>
            </g>
        </g>
    </g>
</svg>
