<?xml version="1.0" encoding="UTF-8"?>
<svg  viewBox="0 0 16 17" version="1.1" xmlns="http://www.w3.org/2000/svg" xmlns:xlink="http://www.w3.org/1999/xlink">
    <!-- Generator: Sketch 46.1 (44463) - http://www.bohemiancoding.com/sketch -->
    <title>Replacement</title>
    <desc>Created with Sketch.</desc>
    <defs></defs>
        <g id="Page-1"  >
            <path d="M15,15.5428571 C15,15.793 14.7185,16.0285714 14.5,16.0285714 L10.5,16.0285714 C10.2385,16.0285714 10,15.7968857 10,15.5428571 L10,9.71428571 C10,8.86282857 10.6815,7.82534286 11.2295,6.99234286 C11.7155,6.25308571 12.0415,5.75717143 12,5.31565714 L12,2.42857143 L13,2.42857143 L13,5.31565714 C12.9585,5.75571429 13.281,6.24191429 13.7615,6.96562857 C14.3135,7.79717143 15,8.83174286 15,9.71428571 L15,15.5428571 Z M12,1.45714286 L13,1.45714286 L13,0.971428571 L12,0.971428571 L12,1.45714286 Z M14.602,6.43911429 C14.3565,6.069 14.0215,5.56434286 13.997,5.39385714 C13.999,5.37685714 14,5.35985714 14,5.34285714 L14,0.485714286 C14,0.2176 13.7765,0 13.5,0 L11.5,0 C11.2235,0 11,0.2176 11,0.485714286 L11.0035,5.38705714 C10.989,5.55414286 10.6405,6.08308571 10.3865,6.46922857 C9.769,7.40957143 9,8.57917143 9,9.71428571 L9,15.5428571 C9,16.3326286 9.687,17 10.5,17 L14.5,17 C15.285,17 16,16.3054286 16,15.5428571 L16,9.71428571 C16,8.54565714 15.2245,7.37751429 14.602,6.43911429 L14.602,6.43911429 Z" id="Fill-1"></path>
            <path d="M5.00085,7.67790323 C5.13405,7.74080645 5.32845,7.83177419 5.4,7.89467742 L5.4,15.0322581 L0.9,15.0322581 L0.9,7.90096774 C0.9729,7.84532258 1.1493,7.76693548 1.27125,7.71274194 C1.8054,7.47564516 2.7,7.07887097 2.7,5.83870968 L2.7,1.96774194 L3.6,1.96774194 L3.6,5.83870968 C3.6,7.01935484 4.47705,7.4316129 5.00085,7.67790323 M5.84325,5.84887097 C5.84325,6.11596774 6.0444,6.33274194 6.29325,6.33274194 L8.54325,6.33274194 C8.69625,6.33274194 8.8317,6.25048387 8.9127,6.12467742 C8.9676,6.04483871 9,5.94564516 9,5.83870968 L9,2.93548387 C9,2.6683871 8.7984,2.4516129 8.55,2.4516129 C8.30115,2.4516129 8.1,2.6683871 8.1,2.93548387 L8.1,4.28112903 C7.38045,3.535 6.30315,3.24516129 5.30235,3.63564516 C5.0049,3.75225806 4.7349,3.92112903 4.5,4.13016129 L4.5,1.48387097 C4.5,1.21677419 4.2984,1 4.05,1 L2.25,1 C2.00115,1 1.8,1.21677419 1.8,1.48387097 L1.8,5.83870968 C1.8,6.40241935 1.46835,6.57854839 0.9279,6.81854839 C0.5364,6.99177419 0,7.22983871 0,7.84725806 L0,15.516129 C0,15.7837097 0.20115,16 0.45,16 L5.85,16 C6.0984,16 6.3,15.7837097 6.3,15.516129 L6.29865,7.7833871 C6.25635,7.21241935 5.76,6.97919355 5.36175,6.79145161 C4.77585,6.51612903 4.5,6.33225806 4.5,5.83870968 L4.5,5.82419355 C4.65975,5.23193548 5.0652,4.75822581 5.61015,4.54532258 C6.43095,4.22451613 7.3287,4.58935484 7.76475,5.365 L6.29325,5.365 C6.0444,5.365 5.84325,5.58129032 5.84325,5.84887097" id="Fill-3"></path>
        </g>
</svg>
