<?xml version="1.0" encoding="UTF-8"?>
<svg width="45px" height="42px" viewBox="0 0 45 42" version="1.1" xmlns="http://www.w3.org/2000/svg" xmlns:xlink="http://www.w3.org/1999/xlink">
    <!-- Generator: Sketch 46.2 (44496) - http://www.bohemiancoding.com/sketch -->
    <title>Artboard 5</title>
    <desc>Created with Sketch.</desc>
    <defs></defs>
    <g id="Page-1"  fill-rule="evenodd">
        <g id="Artboard-5" fill-rule="nonzero"  >
            <g id="noun_538607_cc" transform="translate(0.000000, -1.000000)">
                <g id="Group">
                    <path d="M41.2,22.6 L39,22.6 C40.8,22.6 42.2,21.2 42.2,19.4 L42.2,19 C42.2,17.2 40.8,15.8 39,15.8 L33.1,15.8 C42.5,4.3 34.2,-1.3 32.3,1.8 C29.7,6.2 25.4,8.8 22.2,11.4 C17.9,14.9 14.8,17.6 14.8,17.6 L10.8,17.6 L10.8,36.2 L14.3,36.2 C15.7,40.1 19.7,43 24.5,43 L36,43 C37.8,43 39.2,41.6 39.2,39.8 L39.2,39.4 C39.2,37.6 37.8,36.2 36,36.2 L39,36.2 C40.8,36.2 42.2,34.8 42.2,33 L42.2,32.6 C42.2,30.8 40.8,29.4 39,29.4 L41.2,29.4 C43,29.4 44.4,28 44.4,26.2 L44.4,25.8 C44.4,24 43,22.6 41.2,22.6 Z" id="Shape"></path>
                    <path d="M0.5,19.3 L0.5,34.4 C0.5,35.4 1.3,36.2 2.3,36.2 L7.9,36.2 L7.9,17.6 L2.3,17.6 C1.3,17.6 0.5,18.4 0.5,19.3 Z" id="Shape"></path>
                </g>
            </g>
        </g>
    </g>
</svg>
