<?xml version="1.0" encoding="UTF-8"?>
<svg   viewBox="0 0 22 24" version="1.1" xmlns="http://www.w3.org/2000/svg" xmlns:xlink="http://www.w3.org/1999/xlink">
    <!-- Generator: Sketch 46.1 (44463) - http://www.bohemiancoding.com/sketch -->
    <title>Trash</title>
    <desc>Created with Sketch.</desc>
    <defs></defs>
    <g id="Exports" stroke="none" stroke-width="1"  fill-rule="evenodd">
        <g id="Trash"  >
            <g id="Page-1">
                <path d="M10.9998,19.5 C10.7238,19.5 10.4998,19.276 10.4998,19 L10.4998,7 C10.4998,6.724 10.7238,6.5 10.9998,6.5 C11.2758,6.5 11.4998,6.724 11.4998,7 L11.4998,19 C11.4998,19.276 11.2758,19.5 10.9998,19.5 Z" id="Fill-1"></path>
                <path d="M15.4998,19 L15.4998,7 C15.4998,6.724 15.2758,6.5 14.9998,6.5 C14.7238,6.5 14.4998,6.724 14.4998,7 L14.4998,19 C14.4998,19.276 14.7238,19.5 14.9998,19.5 C15.2758,19.5 15.4998,19.276 15.4998,19 Z" id="Fill-3"></path>
                <path d="M7.4998,19 L7.4998,7 C7.4998,6.724 7.2758,6.5 6.9998,6.5 C6.7238,6.5 6.4998,6.724 6.4998,7 L6.4998,19 C6.4998,19.276 6.7238,19.5 6.9998,19.5 C7.2758,19.5 7.4998,19.276 7.4998,19 Z" id="Fill-5"></path>
                <path d="M3.5,23 L18.5,23 L18.5,4 L3.5,4 L3.5,23 Z M7.5,3 L14.5,3 L14.5,1 L7.5,1 L7.5,3 Z M15.5,3 L15.5,0.5 C15.5,0.224 15.276,0 15,0 L7,0 C6.724,0 6.5,0.224 6.5,0.5 L6.5,3 L0.5,3 C0.224,3 0,3.224 0,3.5 C0,3.776 0.224,4 0.5,4 L2.5,4 L2.5,23.5 C2.5,23.776 2.724,24 3,24 L19,24 C19.276,24 19.5,23.776 19.5,23.5 L19.5,4 L21.5,4 C21.776,4 22,3.776 22,3.5 C22,3.224 21.776,3 21.5,3 L15.5,3 Z" id="Fill-7"></path>
            </g>
        </g>
    </g>
</svg>
