<?xml version="1.0" encoding="UTF-8"?>
<svg width="22px" height="17px" viewBox="0 0 22 17" version="1.1" xmlns="http://www.w3.org/2000/svg" xmlns:xlink="http://www.w3.org/1999/xlink">
    <!-- Generator: Sketch 46.1 (44463) - http://www.bohemiancoding.com/sketch -->
    <title>Delivery</title>
    <desc>Created with Sketch.</desc>
    <defs></defs>
    <g id="Exports"  fill-rule="evenodd">
        <g id="Delivery" >
            <g id="Page-1">
                <path d="M7,13 C8.10310966,13 9,13.8968903 9,15 C9,16.1031097 8.10310966,17 7,17 C5.89689034,17 5,16.1031097 5,15 C5,13.8968903 5.89689034,13 7,13 Z" id="Fill-1"></path>
                <path d="M16,15 C16,16.1031097 16.8968903,17 18.0010911,17 C19.1042008,17 20.0010911,16.1031097 20.0010911,15 C20.0010911,13.8968903 19.1042008,13 18.0010911,13 C16.8968903,13 16,13.8968903 16,15 Z" id="Fill-3"></path>
                <path d="M15.889,11 L20.778,11 L20.778,8.556 L15.889,8.556 L15.889,11 Z M15.889,4.278 L18.023,4.278 L20.264,7.333 L15.889,7.333 L15.889,4.278 Z M5.5,11 L14.667,11 L14.667,1.222 L5.5,1.222 L5.5,11 Z M21.882,7.473 L18.826,3.305 C18.711,3.148 18.528,3.056 18.334,3.056 L15.889,3.056 L15.889,0.611 C15.889,0.273 15.616,0 15.278,0 L4.889,0 C4.551,0 4.278,0.273 4.278,0.611 L4.278,11.611 C4.278,11.949 4.551,12.222 4.889,12.222 L21.389,12.222 C21.726,12.222 22,11.949 22,11.611 L22,7.834 C22,7.704 21.959,7.578 21.882,7.473 L21.882,7.473 Z" id="Fill-5"></path>
                <path d="M3.0554,7.1855 L2.4444,7.1855 C2.1074,7.1855 1.8334,7.4585 1.8334,7.7965 C1.8334,8.1335 2.1074,8.4075 2.4444,8.4075 L3.0554,8.4075 C3.3934,8.4075 3.6664,8.1335 3.6664,7.7965 C3.6664,7.4585 3.3934,7.1855 3.0554,7.1855" id="Fill-7"></path>
                <path d="M3.0554,3.6665 L0.6114,3.6665 C0.2734,3.6665 0.0004,3.9405 0.0004,4.2775 C0.0004,4.6155 0.2734,4.8885 0.6114,4.8885 L3.0554,4.8885 C3.3934,4.8885 3.6664,4.6155 3.6664,4.2775 C3.6664,3.9405 3.3934,3.6665 3.0554,3.6665" id="Fill-8"></path>
                <path d="M3.0554,5.5 L1.8334,5.5 C1.4954,5.5 1.2224,5.773 1.2224,6.111 C1.2224,6.449 1.4954,6.722 1.8334,6.722 L3.0554,6.722 C3.3934,6.722 3.6664,6.449 3.6664,6.111 C3.6664,5.773 3.3934,5.5 3.0554,5.5" id="Fill-9"></path>
            </g>
        </g>
    </g>
</svg>
