<?xml version="1.0" encoding="UTF-8"?>
<svg width="13px" height="13px" viewBox="0 0 13 13" version="1.1" xmlns="http://www.w3.org/2000/svg" xmlns:xlink="http://www.w3.org/1999/xlink">
    <!-- Generator: Sketch 46.1 (44463) - http://www.bohemiancoding.com/sketch -->
    <title>Close</title>
    <desc>Created with Sketch.</desc>
    <defs></defs>
    <g id="Exports" fill-rule="evenodd">
        <g id="Close"  fill-rule="nonzero">
            <path d="M6.5,5.08571452 L1.70719359,0.292908113 C1.31664944,-0.0976360378 0.683452265,-0.0976360378 0.292908113,0.292908113 C-0.0976360378,0.683452265 -0.0976360378,1.31664944 0.292908113,1.70719359 L5.08571452,6.5 L0.292908113,11.2928064 C-0.0976360378,11.6833506 -0.0976360378,12.3165477 0.292908113,12.7070919 C0.683452265,13.097636 1.31664944,13.097636 1.70719359,12.7070919 L6.5,7.91428548 L11.2928064,12.7070919 C11.6833506,13.097636 12.3165477,13.097636 12.7070919,12.7070919 C13.097636,12.3165477 13.097636,11.6833506 12.7070919,11.2928064 L7.91428548,6.5 L12.7070919,1.70719359 C13.097636,1.31664944 13.097636,0.683452265 12.7070919,0.292908113 C12.3165477,-0.0976360378 11.6833506,-0.0976360378 11.2928064,0.292908113 L6.5,5.08571452 Z"></path>
        </g>
    </g>
</svg>
