<svg xmlns="http://www.w3.org/2000/svg" viewBox="0 0 46 18" height="18" width="46">
  <path fill="#1869b5" d="M7.89 11.694l-3.337.215 2.054-3.333 1.284-2.2H.48v2.2h2.945L1.368 11.91 0 14.11h7.56M12.52 8.36c.665 0 1.246.36 1.57.898l2.67.035c-.457-1.778-2.18-3.103-4.24-3.103-2.018 0-3.71 1.27-4.21 2.99l2.664.036c.328-.515.897-.857 1.545-.857zM12.52 12.097c-.568 0-1.075-.26-1.413-.672l-2.665.227c.622 1.526 2.21 2.613 4.077 2.613 2.145 0 3.925-1.435 4.29-3.323l-2.704.23c-.32.552-.91.925-1.587.925zM21.815 12.097c-.867 0-1.59-.61-1.786-1.43l-2.515.214c.338 1.92 2.132 3.385 4.3 3.385 2.41 0 4.362-1.808 4.362-4.037 0-.028-.004-.054-.005-.082l-2.524.215c-.068.97-.86 1.737-1.833 1.737zM21.815 8.36c.716 0 1.335.415 1.64 1.023l2.634.035c-.407-1.842-2.166-3.227-4.275-3.227-2.066 0-3.79 1.33-4.243 3.114l2.624.035c.312-.585.92-.98 1.62-.98zM31.93 6.19c-.884 0-1.694.353-2.324.936v-.75H26.99V9.43l2.608.035c.287-.65.93-1.106 1.678-1.106.766 0 1.42.474 1.698 1.15l.604.01-.583.048c.077.205.12.427.12.66 0 1.032-.823 1.87-1.84 1.87-1.015 0-1.838-.838-1.838-1.87 0-.124.012-.244.035-.36l-2.483.21V18h2.617v-4.67c.63.583 1.44.935 2.324.935 2.007 0 3.633-1.807 3.633-4.037S33.937 6.19 31.93 6.19z"/>
  <path fill="#ff8d31" d="M35.563 14.11h2.785l1.993-7.734H37.6"/>
  <path d="M39.838 0c-1.04 0-1.845.857-1.882 1.912-.044 1.29 1.335 3.477 1.335 3.477.092 0 2.43-2.072 2.43-3.478C41.72.856 40.878 0 39.838 0zm0 2.72c-.44 0-.796-.36-.796-.808 0-.446.357-.81.796-.81.44 0 .796.364.796.81 0 .447-.356.81-.796.81z" fill="#1869b5"/>
  <path fill="#ff8d31" d="M39.798 14.11h2.785l1.445-5.667h1.367L46 6.376h-1.446l.556-2.18h-2.67l-.58 2.18h-1.02l-.5 2.067h.97"/>
</svg>
